<svg width="80" height="80" viewBox="0 0 80 80" fill="none" xmlns="http://www.w3.org/2000/svg">
<g clip-path="url(#clip0_11888_47970)">
<path d="M33.0982 64.9974C32.8387 64.9974 32.5826 64.9385 32.3492 64.8251C32.1158 64.7118 31.9111 64.5469 31.7507 64.3429L28.7735 60.5575L24.1468 61.8964C23.8481 61.9828 23.5316 61.9862 23.2311 61.9065C22.9307 61.8267 22.6575 61.6668 22.441 61.4437C22.2245 61.2206 22.0727 60.9429 22.002 60.6402C21.9312 60.3374 21.9441 60.0212 22.0393 59.7252L24.8382 51.0292C24.9059 50.8136 25.0157 50.6134 25.1611 50.4403C25.3066 50.2673 25.4848 50.1247 25.6856 50.0208C25.8864 49.9169 26.1058 49.8538 26.3311 49.835C26.5564 49.8163 26.7831 49.8423 26.9983 49.9115C27.2135 49.9808 27.4129 50.092 27.5849 50.2386C27.757 50.3853 27.8983 50.5645 28.0008 50.766C28.1033 50.9676 28.1649 51.1873 28.1821 51.4128C28.1992 51.6382 28.1716 51.8648 28.1008 52.0795L26.288 57.7078L28.9294 56.9435C29.2571 56.8494 29.6054 56.8553 29.9297 56.9602C30.2541 57.0651 30.5398 57.2645 30.7503 57.5326L32.4502 59.6942L33.7891 55.5312C33.8569 55.3155 33.9666 55.1154 34.1121 54.9423C34.2575 54.7692 34.4358 54.6267 34.6365 54.5228C34.8373 54.4189 35.0567 54.3557 35.282 54.337C35.5073 54.3182 35.7341 54.3442 35.9493 54.4135C36.1645 54.4828 36.3638 54.594 36.5359 54.7406C36.7079 54.8873 36.8493 55.0665 36.9517 55.268C37.0542 55.4695 37.1158 55.6893 37.133 55.9147C37.1502 56.1402 37.1226 56.3668 37.0518 56.5815L34.7247 63.8116C34.6136 64.1568 34.3957 64.4579 34.1026 64.6714C33.8094 64.885 33.4561 65 33.0934 65L33.0982 64.9974ZM46.8912 64.9974C46.5285 64.9974 46.1752 64.8823 45.882 64.6688C45.5889 64.4552 45.3711 64.1542 45.2599 63.8089L42.9334 56.5788C42.8597 56.3633 42.8298 56.1353 42.8452 55.9081C42.8607 55.681 42.9213 55.4591 43.0234 55.2556C43.1256 55.0521 43.2673 54.871 43.4402 54.7229C43.6132 54.5748 43.8139 54.4626 44.0307 54.3929C44.2475 54.3233 44.476 54.2975 44.7028 54.3171C44.9297 54.3367 45.1504 54.4014 45.3519 54.5073C45.5535 54.6131 45.732 54.7581 45.8769 54.9337C46.0219 55.1094 46.1304 55.3121 46.196 55.5301L47.535 59.6915L49.2349 57.5299C49.4454 57.2618 49.7311 57.0625 50.0554 56.9575C50.3798 56.8526 50.7281 56.8468 51.0558 56.9408L53.6972 57.7051L51.887 52.0816C51.8171 51.8668 51.7904 51.6403 51.8082 51.4151C51.8261 51.19 51.8882 50.9705 51.9911 50.7694C52.0939 50.5683 52.2355 50.3895 52.4076 50.2432C52.5797 50.0969 52.779 49.986 52.9941 49.9169C53.2091 49.8478 53.4357 49.8218 53.6608 49.8404C53.8859 49.8591 54.1052 49.9219 54.3059 50.0255C54.5067 50.129 54.685 50.2712 54.8307 50.4438C54.9764 50.6164 55.0866 50.8161 55.155 51.0314L57.9523 59.7226C58.0475 60.0185 58.0604 60.3348 57.9896 60.6375C57.9188 60.9402 57.7671 61.218 57.5506 61.441C57.334 61.6641 57.0609 61.8241 56.7604 61.9038C56.46 61.9836 56.1435 61.9801 55.8448 61.8937L51.2181 60.5548L48.2408 64.3402C48.0805 64.545 47.8756 64.7106 47.6418 64.8244C47.408 64.9383 47.1513 64.9974 46.8912 64.9974Z" fill="#425BB5"/>
<path d="M39.9987 18.4276C44.2831 18.4347 48.4122 20.0327 51.5851 22.9117C54.758 25.7908 56.7485 29.7456 57.1706 34.0092C57.5927 38.2727 56.4162 42.5411 53.8694 45.9864C51.3226 49.4316 47.587 51.8083 43.3872 52.6552C39.1873 53.5022 34.8226 52.7591 31.1396 50.5702C27.4566 48.3813 24.7178 44.9025 23.4545 40.8086C22.1911 36.7146 22.4933 32.2974 24.3024 28.4137C26.1114 24.53 29.2985 21.4566 33.2452 19.7896C35.3819 18.8858 37.6789 18.4226 39.9987 18.4276ZM39.9987 15C28.5221 15 19.2188 24.3033 19.2188 35.78C19.2188 47.2567 28.5221 56.56 39.9987 56.56C51.4754 56.56 60.7788 47.2561 60.7788 35.78C60.7788 24.3039 51.4754 15 39.9987 15Z" fill="#555555"/>
<path d="M39.9993 30.7763C40.9888 30.7763 41.9561 31.0697 42.7789 31.6195C43.6017 32.1692 44.243 32.9506 44.6217 33.8649C45.0004 34.7791 45.0994 35.7851 44.9064 36.7556C44.7133 37.7262 44.2368 38.6177 43.5371 39.3174C42.8374 40.0171 41.9459 40.4936 40.9753 40.6867C40.0048 40.8797 38.9988 40.7806 38.0846 40.4019C37.1704 40.0233 36.389 39.382 35.8392 38.5592C35.2894 37.7364 34.996 36.7691 34.996 35.7795C34.9974 34.453 35.525 33.1812 36.463 32.2433C37.401 31.3053 38.6727 30.7777 39.9993 30.7763ZM39.9993 27.3486C38.3318 27.3486 36.7018 27.8431 35.3153 28.7695C33.9288 29.6959 32.8482 31.0126 32.2101 32.5532C31.572 34.0937 31.4051 35.7889 31.7304 37.4243C32.0557 39.0597 32.8586 40.562 34.0377 41.7411C35.2168 42.9202 36.719 43.7231 38.3545 44.0484C39.9899 44.3737 41.6851 44.2068 43.2256 43.5687C44.7662 42.9305 46.0829 41.8499 47.0093 40.4635C47.9357 39.077 48.4302 37.447 48.4302 35.7795C48.4302 33.5435 47.5419 31.3991 45.9608 29.818C44.3797 28.2369 42.2353 27.3486 39.9993 27.3486Z" fill="#555555"/>
</g>
<defs>
<clipPath id="clip0_11888_47970">
<rect width="50" height="50" fill="white" transform="translate(15 15)"/>
</clipPath>
</defs>
</svg>
