<svg width="80" height="80" viewBox="0 0 80 80" fill="none" xmlns="http://www.w3.org/2000/svg">
<path d="M42.7509 30.9581C43.5076 30.2013 44.7345 30.2013 45.4912 30.9581C46.2482 31.715 46.2479 32.9423 45.4906 33.699L43.8718 35.3164L45.9764 35.3171C47.0463 35.3174 47.9134 36.1848 47.9134 37.2547C47.9134 38.325 47.0456 39.1925 45.9754 39.1923L42.584 39.1914V41.9362L45.9751 41.937C47.0449 41.9373 47.9121 42.8047 47.9121 43.8745C47.9121 44.9448 47.0444 45.8123 45.9741 45.812L42.584 45.8112V47.2656C42.584 48.3357 41.7165 49.2031 40.6465 49.2031C39.5764 49.2031 38.709 48.3357 38.709 47.2656V45.8112L35.3188 45.812C34.2486 45.8123 33.3809 44.9448 33.3809 43.8745C33.3809 42.8047 34.248 41.9373 35.3179 41.937L38.709 41.9362V39.1914L35.3189 39.1923C34.2486 39.1925 33.3809 38.325 33.3809 37.2547C33.3809 36.1848 34.248 35.3174 35.3178 35.3171L37.4212 35.3164L35.8031 33.699C35.046 32.9423 35.0459 31.7152 35.8028 30.9583C36.5596 30.2015 37.7867 30.2016 38.5434 30.9586L40.6465 33.0625L42.7509 30.9581Z" fill="#425BB5"/>
<path d="M58.7106 36.5097C58.5109 35.2571 59.417 34.0245 60.6854 34.0245C61.5492 34.0245 62.311 34.6108 62.4638 35.4611C62.6916 36.7283 62.8099 38.0331 62.8099 39.3656C62.8099 51.3316 53.2219 61.0578 41.3088 61.28L40.8929 61.2838L40.4757 61.28C34.8737 61.1809 29.524 58.933 25.5324 55.0012V58.0754C25.5324 59.1454 24.665 60.0129 23.5949 60.0129C22.5249 60.0129 21.6574 59.1454 21.6574 58.0754V50.4191C21.6574 48.7622 23.0006 47.4191 24.6574 47.4191H30.9822C32.0521 47.4191 32.9194 48.2864 32.9194 49.3563V49.8034C32.9194 50.6266 32.252 51.2939 31.4288 51.2937L28.585 51.2929C28.4744 51.2929 28.4131 51.4211 28.4826 51.5072C31.3759 55.0025 35.4989 56.9581 40.9691 57.4076L41.2171 57.405L41.4703 57.3998L41.7687 57.3869L41.8397 57.383L41.9172 57.3791L41.9999 57.374L42.067 57.3701L42.0167 57.3727L42.1006 57.3688C42.3938 57.3494 42.6857 57.3223 42.9751 57.2887L43.0048 57.2861L43.0177 57.2836L43.0474 57.2797L43.0332 57.2823L43.0771 57.2771L43.0474 57.2797L43.0939 57.2745L43.0991 57.2732L43.3032 57.2487L43.3135 57.2474L43.3871 57.2358L43.4866 57.2229L43.6752 57.1944L43.6364 57.2009L43.7178 57.1867L43.9322 57.1518L43.8431 57.1673L43.8909 57.1609L44.1053 57.1221L44.29 57.0885L44.4127 57.064L44.3119 57.0846L44.5031 57.0459L44.6775 57.011L44.8002 56.9826L44.8725 56.9684L44.9152 56.9568L45.0585 56.9245L45.2342 56.8819L45.1412 56.9038L45.2613 56.8754L45.3311 56.8573L45.2691 56.8728L45.4202 56.8341L45.3324 56.8573L45.4228 56.8354L45.4861 56.8173L45.4706 56.8224L45.6488 56.7746L45.7702 56.7398L45.6514 56.7733L45.8064 56.7307L45.8658 56.7126L45.9033 56.7036L46.0144 56.6713L46.0983 56.6442L46.1887 56.6184L46.3644 56.5628L46.2042 56.6132L46.3657 56.5628L46.3786 56.5589L46.5594 56.5008L46.7377 56.4401L46.9056 56.382L47.0503 56.329L46.9418 56.3691L47.1019 56.3109L47.2182 56.267L47.3319 56.2244L47.4171 56.1921L47.4701 56.1714L47.5721 56.1327L47.6612 56.0952L47.7697 56.05L47.7827 56.0448L47.8782 56.0048L47.9028 55.9945L48.0875 55.9157L48.1676 55.8808L48.2864 55.8279L48.3445 55.802L48.3665 55.7917L48.3691 55.7904L48.4957 55.7323L48.5086 55.7258L48.6248 55.6728L48.7979 55.5876L48.8237 55.5747L48.9723 55.5023L49.0562 55.4597L49.197 55.3861L49.228 55.3719C49.3249 55.3202 49.4218 55.2699 49.5161 55.2169L49.6892 55.1213L49.8661 55.0219L50.0069 54.9392L49.9023 54.9986L50.056 54.9121C50.1593 54.8514 50.2601 54.7894 50.3608 54.7274L50.2407 54.7984L50.499 54.6408C50.614 54.5685 50.7264 54.4961 50.8387 54.4212L50.9214 54.3657L50.995 54.3166L51.1242 54.2275L51.2146 54.1642L51.2792 54.1203L51.3037 54.1022L51.3593 54.0621L51.4303 54.0131L51.5814 53.9033L51.6073 53.8826L51.6163 53.8761L51.7235 53.7961L51.7494 53.7767L51.8979 53.6643L51.9147 53.6501L51.9987 53.5842L52.2002 53.4254L52.4972 53.1799L52.6419 53.0598L52.7233 52.9862L52.7517 52.9616L52.771 52.9445C52.7736 52.9421 52.7765 52.9401 52.7795 52.9384C52.7825 52.9367 52.7853 52.9347 52.7879 52.9324C52.9622 52.7785 53.134 52.622 53.3045 52.4618L53.5422 52.2318L53.7747 51.9981L53.8832 51.8857L53.9917 51.7733L54.1196 51.6364L54.25 51.4943L54.3198 51.4168L54.3611 51.3716L54.3805 51.3496L54.4076 51.3173L54.5032 51.2089L54.6052 51.0913L54.6207 51.0732L54.7137 50.9621L54.737 50.9363L54.7641 50.904L54.8804 50.7606L54.8455 50.8046L54.8881 50.7516L54.9734 50.6483L55.0987 50.4907C55.0995 50.4881 55.1008 50.4857 55.1025 50.4836L55.1464 50.4274L55.1891 50.3744L55.0987 50.4907C55.2485 50.2995 55.3957 50.1032 55.5378 49.9068L55.6102 49.8035L55.6502 49.7493L55.7613 49.5891L55.6838 49.7015C55.9929 49.2595 56.2821 48.804 56.5505 48.3362L56.6112 48.2264L56.7404 47.9965C57.0863 47.3628 57.3939 46.7089 57.6613 46.0383L57.7685 45.7645C57.9827 45.1986 58.1681 44.6222 58.3239 44.0375L58.4092 43.7094C58.712 42.4867 58.8851 41.2355 58.9259 39.9765L58.9349 39.3656L58.931 38.9626C58.9136 38.1399 58.8398 37.3204 58.7106 36.5097ZM40.8929 17.4473C46.553 17.4473 51.7119 19.5927 55.6011 23.1151V20.0048C55.6011 18.9347 56.4686 18.0673 57.5386 18.0673C58.6087 18.0673 59.4761 18.9347 59.4761 20.0048V27.661C59.4761 29.3179 58.133 30.661 56.4761 30.661H50.1518C49.0816 30.661 48.2141 29.7934 48.2141 28.7233C48.2141 27.6533 49.0813 26.7858 50.1513 26.7855L52.9261 26.7847C50.1529 23.6744 46.3257 21.8803 41.3502 21.3726L40.8167 21.3223L40.5106 21.3261L40.1967 21.3352L40.0378 21.3416L39.9409 21.3468L39.8415 21.352L39.6426 21.3649L39.4062 21.383L39.2137 21.3985L39.029 21.4166L38.874 21.4333L38.4568 21.485L38.0435 21.5457L37.8536 21.5767L37.9298 21.5638L37.7593 21.5935L37.696 21.6038L37.5901 21.6232L37.2698 21.6865L36.8913 21.7679L36.7944 21.7898L36.8422 21.7782L36.5025 21.8596C36.3409 21.9004 36.1799 21.9435 36.0194 21.9888L36.0698 21.9733L35.9613 22.0043L35.8063 22.0495L35.7973 22.0521L35.6126 22.1076L35.579 22.1166L35.5377 22.1296L35.4304 22.1644C35.3827 22.1786 35.3336 22.1941 35.2858 22.2109L35.4111 22.1696L35.0533 22.2884C34.6987 22.4096 34.3481 22.5418 34.0019 22.685L33.9773 22.694L33.8094 22.7638L33.8417 22.7508L33.8107 22.7638L33.7668 22.7831L33.8417 22.7521C33.7267 22.7999 33.6131 22.8503 33.5007 22.9007L33.5859 22.8632L33.4464 22.9252L33.4374 22.9291L33.418 22.9381L33.2889 22.9976L33.1065 23.0843C33.1049 23.085 33.1033 23.0856 33.1016 23.086C33.0999 23.0865 33.0982 23.0871 33.0965 23.0879L32.9272 23.1706L32.7024 23.283L32.5849 23.345L32.5087 23.3838L32.4441 23.4186L32.3924 23.4458L32.3614 23.4613L32.3188 23.4845L32.3098 23.4897L32.2684 23.5129L32.2594 23.5181C31.9854 23.6674 31.7154 23.8237 31.4495 23.987L31.4224 24.0038L31.4198 24.0051L31.3062 24.0761L31.1641 24.1665C31.0491 24.2401 30.9354 24.3151 30.8231 24.3913L30.9445 24.3099L30.7985 24.4081L30.7908 24.4119L30.6642 24.4985L30.5686 24.5644L30.6358 24.5191L30.3614 24.7124C30.3609 24.7127 30.3604 24.7131 30.36 24.7135C30.3596 24.714 30.3591 24.7144 30.3586 24.7147L30.3374 24.7297L30.2186 24.8162L30.0778 24.9209L30.0623 24.9325L30.0287 24.9583L29.7445 25.1779C29.6131 25.2811 29.483 25.3862 29.3544 25.4931L29.286 25.5512L29.1568 25.661L29.1155 25.6946L28.7409 26.0278C28.3432 26.3904 27.9617 26.7706 27.5978 27.1671L27.2452 27.5623L27.0695 27.769L27.0437 27.7987L26.9274 27.9408L26.8099 28.0841L26.744 28.1668L26.6742 28.2559L26.5632 28.398L26.4818 28.5065L26.4727 28.5194L26.4559 28.5388L26.3823 28.6396L26.3617 28.6667L26.2402 28.8346L26.1808 28.916L26.1322 28.9833C26.132 28.9835 26.1323 28.9838 26.1326 28.9836C26.1328 28.9834 26.1331 28.9837 26.1329 28.9839L26.102 29.0296L26.0207 29.1459L25.9664 29.2234L25.916 29.2983L25.9109 29.3074L25.8967 29.3267L25.8217 29.4391L25.8037 29.4688L25.721 29.5954L25.6693 29.6755L25.6603 29.6897L25.4394 30.0475L25.1707 30.5073L24.915 30.9749C24.8711 31.0589 24.8272 31.1428 24.7845 31.2293L24.7613 31.272L24.7587 31.2784L24.5947 31.6143C24.5328 31.7444 24.4725 31.8753 24.4138 32.0069L24.388 32.0663L24.3764 32.0896L24.3609 32.1258C23.7879 33.4323 23.3729 34.8025 23.1247 36.2074L23.0653 36.5639C22.9207 37.4908 22.8486 38.4275 22.8496 39.3656C22.8496 40.3298 22.9254 41.2769 23.0712 42.2008C23.2687 43.452 22.363 44.6821 21.0963 44.6821C20.2314 44.6821 19.4692 44.0942 19.3171 43.2428C19.0886 41.964 18.9738 40.6665 18.9746 39.3656C18.9746 37.8931 19.1193 36.4554 19.3957 35.0656C21.3939 25.019 30.2586 17.4473 40.8929 17.4473Z" fill="#555555"/>
</svg>
