<svg width="80" height="80" viewBox="0 0 80 80" fill="none" xmlns="http://www.w3.org/2000/svg">
<path d="M56.7961 19H23.1844C22.0749 19.001 21.0112 19.4422 20.2267 20.2267C19.4422 21.0112 19.001 22.0749 19 23.1844V56.7961C19.001 57.9055 19.4422 58.9692 20.2267 59.7537C21.0112 60.5382 22.0749 60.9794 23.1844 60.9804H56.8156C57.9251 60.9794 58.9888 60.5382 59.7733 59.7537C60.5578 58.9692 60.999 57.9055 61 56.7961V23.1648C60.9836 22.0586 60.5343 21.0028 59.7483 20.2242C58.9623 19.4455 57.9024 19.006 56.7961 19ZM57.4218 46.8827V56.8156C57.4208 56.9813 57.3545 57.1398 57.2374 57.2569C57.1203 57.3741 56.9617 57.4403 56.7961 57.4413H48.5251V46.9022H57.4218V46.8827ZM57.4218 33.0782V43.324H48.5447V33.0782H57.4218ZM44.9665 46.8827V57.4218H35.0335V46.8827H44.9665ZM44.9665 33.0782V43.324H35.0335V33.0782H44.9665ZM31.4553 46.8827V57.4218H23.1844C23.1034 57.4208 23.0234 57.4037 22.9491 57.3717C22.8747 57.3397 22.8074 57.2932 22.7511 57.2351C22.6948 57.1769 22.6505 57.1082 22.6208 57.0328C22.5911 56.9575 22.5767 56.877 22.5782 56.7961V46.8631H31.4553V46.8827ZM31.4553 33.0782V43.324H22.5782V33.0782H31.4553ZM57.4218 23.2039V29.5196H22.5587V23.2039C22.5586 23.0413 22.6218 22.885 22.735 22.7682C22.8481 22.6515 23.0023 22.5833 23.1648 22.5782H56.7961C56.9617 22.5792 57.1203 22.6455 57.2374 22.7626C57.3545 22.8797 57.4208 23.0383 57.4218 23.2039Z" fill="#555555" stroke="white" stroke-width="0.5"/>
<rect x="22" y="30" width="36" height="3" fill="#425BB5"/>
</svg>
