<svg width="80" height="80" viewBox="0 0 80 80" fill="none" xmlns="http://www.w3.org/2000/svg">
<path d="M55.8021 61.0444H24.1979C20.7368 61.0444 17.92 58.2276 17.92 54.7665V25.2213C17.92 21.7602 20.7368 18.9434 24.1979 18.9434H55.8021C59.2631 18.9434 62.08 21.7602 62.08 25.2213V54.7792C62.08 58.2276 59.2631 61.0444 55.8021 61.0444ZM24.1979 21.4823C23.2029 21.4823 22.2487 21.8776 21.5451 22.5811C20.8416 23.2847 20.4463 24.2389 20.4463 25.2339V54.7792C20.4463 55.7741 20.8416 56.7284 21.5451 57.4319C22.2487 58.1355 23.2029 58.5307 24.1979 58.5307H55.8021C56.7971 58.5307 57.7513 58.1355 58.4548 57.4319C59.1584 56.7284 59.5537 55.7741 59.5537 54.7792V25.2213C59.5537 24.2263 59.1584 23.272 58.4548 22.5685C57.7513 21.8649 56.7971 21.4697 55.8021 21.4697H24.1979V21.4823Z" fill="#555555" stroke="#555555"/>
<path d="M41.4395 40.9978C41.1985 40.9966 40.9628 40.927 40.7598 40.797C40.5569 40.6671 40.395 40.4821 40.2931 40.2637C40.1912 40.0453 40.1534 39.8025 40.1842 39.5635C40.2149 39.3244 40.313 39.0991 40.4669 38.9136L51.6584 25.6883C52.1132 25.1578 52.909 25.0946 53.4395 25.5367C53.97 25.9915 54.0332 26.7873 53.5911 27.3178L42.3995 40.5431C42.2839 40.686 42.1375 40.8012 41.9713 40.8799C41.8051 40.9586 41.6234 40.9989 41.4395 40.9978ZM42.6016 32.421C41.8371 32.421 41.0898 32.1943 40.4542 31.7695C39.8185 31.3448 39.3231 30.7412 39.0306 30.0349C38.738 29.3286 38.6615 28.5514 38.8106 27.8016C38.9597 27.0518 39.3279 26.3631 39.8684 25.8225C40.409 25.282 41.0977 24.9138 41.8475 24.7647C42.5973 24.6156 43.3745 24.6921 44.0808 24.9847C44.787 25.2772 45.3907 25.7726 45.8154 26.4083C46.2402 27.0439 46.4669 27.7912 46.4669 28.5557C46.4669 30.6904 44.7237 32.421 42.6016 32.421ZM42.6016 27.2167C42.3368 27.2167 42.0779 27.2953 41.8577 27.4424C41.6375 27.5895 41.4659 27.7986 41.3646 28.0433C41.2632 28.288 41.2367 28.5572 41.2884 28.8169C41.34 29.0766 41.4676 29.3152 41.6548 29.5025C41.8421 29.6897 42.0806 29.8173 42.3404 29.8689C42.6001 29.9206 42.8693 29.8941 43.114 29.7927C43.3586 29.6914 43.5678 29.5198 43.7149 29.2996C43.862 29.0794 43.9405 28.8205 43.9405 28.5557C43.9405 27.8231 43.3342 27.2167 42.6016 27.2167ZM51.4942 41.541C49.3721 41.541 47.6542 39.8231 47.6542 37.701C47.6542 35.5789 49.3721 33.861 51.4942 33.861C53.6163 33.861 55.3342 35.5789 55.3342 37.701C55.3342 39.8231 53.6163 41.541 51.4942 41.541ZM51.4942 36.3746C50.7742 36.3746 50.1805 36.9683 50.1805 37.6883C50.1805 38.4083 50.7742 39.002 51.4942 39.002C52.2142 39.002 52.8079 38.4083 52.8079 37.6883C52.8079 36.9683 52.2269 36.3746 51.4942 36.3746Z" fill="#425BB5"/>
<path d="M27.6206 55.4607C26.9258 55.4607 26.3574 54.8923 26.3574 54.1976V37.1323C26.3574 36.4376 26.9258 35.8691 27.6206 35.8691C28.3153 35.8691 28.8837 36.4376 28.8837 37.1323V54.2102C28.8804 54.543 28.7459 54.8611 28.5093 55.0952C28.2728 55.3294 27.9534 55.4607 27.6206 55.4607ZM36.2858 55.4607C35.5911 55.4607 35.0227 54.8923 35.0227 54.1976V46.4923C35.0227 45.7976 35.5911 45.2291 36.2858 45.2291C36.9806 45.2291 37.549 45.7976 37.549 46.4923V54.1976C37.549 54.8923 36.9806 55.4607 36.2858 55.4607ZM44.9385 55.4607C44.2437 55.4607 43.6753 54.8923 43.6753 54.1976V44.9891C43.6753 44.2944 44.2437 43.726 44.9385 43.726C45.6332 43.726 46.2016 44.2944 46.2016 44.9891V54.1976C46.2016 54.8923 45.6332 55.4607 44.9385 55.4607ZM53.5911 55.4607C52.8964 55.4607 52.3279 54.8923 52.3279 54.1976V47.4902C52.3279 46.7955 52.8964 46.227 53.5911 46.227C54.2858 46.227 54.8543 46.7955 54.8543 47.4902V54.1976C54.8543 54.8923 54.2985 55.4607 53.5911 55.4607Z" fill="#555555" stroke="#555555"/>
</svg>
