<svg width="80" height="80" viewBox="0 0 80 80" fill="none" xmlns="http://www.w3.org/2000/svg">
<path d="M61.9481 58.5732H60.3238V38.3074C60.3238 36.4512 58.8051 34.9324 56.9488 34.9324H46.8186C46.7975 34.9324 46.7764 34.9377 46.7553 34.9377V21.4219C46.7553 19.5656 45.2365 18.0469 43.3803 18.0469H23.1092C21.2529 18.0469 19.7342 19.5656 19.7342 21.4219V58.5732H18.0467C17.1186 58.5732 16.3592 59.3326 16.3592 60.2607C16.3592 61.1889 17.1186 61.9482 18.0467 61.9482H61.9533C62.8815 61.9482 63.6408 61.1889 63.6408 60.2607C63.6408 59.3326 62.8762 58.5732 61.9481 58.5732ZM46.8186 38.3074H56.9488V58.5732H46.8186V38.3074ZM23.1092 58.5732V21.4219H43.375V58.5732H23.1092Z" fill="#555555"/>
<path d="M38.308 28.3145H28.1777C27.2443 28.3145 26.4902 29.0738 26.4902 30.002C26.4902 30.9301 27.2496 31.6895 28.1777 31.6895H38.308C39.2414 31.6895 39.9955 30.9301 39.9955 30.002C40.0008 29.0686 39.2414 28.3145 38.308 28.3145ZM38.308 36.7361H28.1777C27.2443 36.7361 26.4902 37.4955 26.4902 38.4236C26.4902 39.357 27.2496 40.1111 28.1777 40.1111H38.308C39.2414 40.1111 39.9955 39.3518 39.9955 38.4236C40.0008 37.4902 39.2414 36.7361 38.308 36.7361ZM38.308 45.0629H28.1777C27.2443 45.0629 26.4902 45.8223 26.4902 46.7504C26.4902 47.6838 27.2496 48.4379 28.1777 48.4379H38.308C39.2414 48.4379 39.9955 47.6785 39.9955 46.7504C40.0008 45.8223 39.2414 45.0629 38.308 45.0629Z" fill="#425BB5"/>
</svg>
