<svg width="80" height="80" viewBox="0 0 80 80" fill="none" xmlns="http://www.w3.org/2000/svg">
<path d="M57.0334 17.0664H22.9667C22.0334 17.0664 21.3334 17.7664 21.3334 18.6998V59.0664C21.3334 59.9998 22.0334 60.9331 23.2 60.9331H46.3C47.2334 60.9331 48.1667 60.2331 48.1667 59.0664C48.1667 58.1331 47.4667 57.1998 46.3 57.1998H24.8334V20.5664H55.4V59.2998C55.4 60.2331 56.1 61.1664 57.2667 61.1664C58.2 61.1664 59.1334 60.4664 59.1334 59.2998V18.6998C58.6667 17.7664 57.9667 17.0664 57.0334 17.0664Z" fill="#555555"/>
<path d="M27.4 36.1995C27.6333 36.8995 28.3333 37.3662 29.0333 37.3662H49.8C50.7333 37.3662 51.6666 36.6662 51.6666 35.4995C51.6666 34.5662 50.9666 33.6329 49.8 33.6329H33.2333L34.1666 32.6995C34.8666 31.9995 34.8666 30.8329 34.1666 30.1329C33.7 29.6662 32.5333 29.6662 31.8333 30.3662L27.8666 34.3329C27.6333 34.5662 27.4 35.0329 27.4 35.4995V36.1995ZM50.0333 42.4995H29.0333C28.1 42.4995 27.1666 43.1995 27.1666 44.3662C27.1666 45.2995 27.8666 46.2329 29.0333 46.2329H45.8333L44.9 47.1662C44.2 47.8662 44.2 49.0329 44.9 49.7329C45.1333 49.9662 45.6 50.1995 46.0666 50.1995C46.5333 50.1995 47 49.9662 47.2333 49.7329L51.2 45.7662C51.9 45.0662 51.9 43.8995 51.2 43.1995C50.9666 42.4995 50.5 42.4995 50.0333 42.4995Z" fill="#425BB5"/>
</svg>
