<svg width="80" height="80" viewBox="0 0 80 80" fill="none" xmlns="http://www.w3.org/2000/svg">
<path d="M40 59.0181C43.7588 59.0248 47.4351 57.9165 50.564 55.8334C53.6928 53.7504 56.1335 50.7861 57.5773 47.3157C59.0211 43.8452 59.4032 40.0245 58.6752 36.3369C57.9472 32.6492 56.1419 29.2603 53.4876 26.5989C50.8332 23.9375 47.4492 22.1231 43.7635 21.3853C40.0778 20.6475 36.2561 21.0194 32.7818 22.454C29.3075 23.8886 26.3368 26.3213 24.2454 29.4446C22.154 32.5678 21.0359 36.2412 21.0325 40C21.028 45.0365 23.0233 49.8688 26.5799 53.4349C30.1366 57.001 34.9635 59.0092 40 59.0181ZM40 61.9375C35.6612 61.9375 31.4198 60.6509 27.8122 58.2404C24.2046 55.8298 21.3928 52.4037 19.7324 48.3951C18.072 44.3866 17.6376 39.9757 18.484 35.7202C19.3305 31.4648 21.4198 27.5559 24.4879 24.4879C27.5559 21.4198 31.4648 19.3305 35.7202 18.484C39.9757 17.6376 44.3866 18.072 48.3951 19.7324C52.4037 21.3928 55.8298 24.2046 58.2404 27.8122C60.6509 31.4198 61.9375 35.6612 61.9375 40C61.9375 45.8182 59.6262 51.3981 55.5122 55.5122C51.3981 59.6262 45.8182 61.9375 40 61.9375Z" fill="#555555"/>
<path d="M39.9995 62.3598C35.582 62.3565 31.2646 61.0437 27.593 58.5874C23.9214 56.1311 21.0603 52.6415 19.3713 48.5596C17.6824 44.4778 17.2413 39.9868 18.104 35.6544C18.9666 31.3219 21.0942 27.3424 24.2178 24.2188C27.3414 21.0951 31.3209 18.9676 35.6534 18.1049C39.9858 17.2423 44.4768 17.6833 48.5586 19.3723C52.6405 21.0613 56.1301 23.9223 58.5864 27.594C61.0427 31.2656 62.3555 35.5829 62.3588 40.0004C62.3544 45.9291 59.9972 51.6137 55.805 55.806C51.6128 59.9982 45.9282 62.3553 39.9995 62.3598ZM39.9995 18.4848C35.7488 18.4881 31.5946 19.7514 28.0617 22.115C24.5289 24.4786 21.776 27.8364 20.1509 31.7641C18.5258 35.6918 18.1014 40.0131 18.9315 44.1819C19.7616 48.3507 21.8088 52.1798 24.8144 55.1855C27.8201 58.1911 31.6492 60.2383 35.818 61.0684C39.9868 61.8985 44.3081 61.4741 48.2358 59.849C52.1634 58.2239 55.5213 55.471 57.8849 51.9381C60.2485 48.4053 61.5117 44.251 61.5151 40.0004C61.5017 34.3014 59.2295 28.84 55.1965 24.8133C51.1634 20.7866 45.6985 18.523 39.9995 18.5186V18.4848ZM39.9995 59.4067C36.1579 59.4033 32.4037 58.2609 29.2114 56.1239C26.0191 53.9869 23.5323 50.9513 22.0653 47.4009C20.5983 43.8505 20.217 39.9448 20.9697 36.1778C21.7224 32.4107 23.5753 28.9514 26.2941 26.2374C29.0128 23.5234 32.4753 21.6765 36.2436 20.9304C40.012 20.1842 43.917 20.5722 47.4648 22.0454C51.0127 23.5186 54.044 26.0107 56.1754 29.2067C58.3069 32.4027 59.4428 36.1589 59.4395 40.0004C59.4395 45.1562 57.3913 50.1009 53.7456 53.7466C50.0999 57.3923 45.1553 59.4404 39.9995 59.4404V59.4067ZM39.9995 21.4379C36.3281 21.4379 32.7393 22.5266 29.6867 24.5663C26.6341 26.606 24.2549 29.505 22.8499 32.8969C21.445 36.2887 21.0774 40.021 21.7936 43.6218C22.5099 47.2226 24.2778 50.5301 26.8738 53.1261C29.4698 55.7221 32.7773 57.49 36.3781 58.2063C39.9789 58.9225 43.7112 58.5549 47.103 57.1499C50.4949 55.745 53.3939 53.3658 55.4336 50.3132C57.4733 47.2606 58.562 43.6718 58.562 40.0004C58.562 35.0774 56.6063 30.3559 53.1251 26.8748C49.644 23.3936 44.9225 21.4379 39.9995 21.4379Z" fill="#555555"/>
<path d="M42.6997 44.9444V43.7463C42.6997 40.675 44.1678 39.1056 47.1041 39.0381C49.9559 39.0381 51.4241 40.7256 51.4916 43.7463V44.9444C51.536 45.5281 51.4524 46.1146 51.2464 46.6626C51.0404 47.2106 50.7171 47.707 50.2991 48.1169C49.8812 48.5268 49.3786 48.8404 48.8267 49.0357C48.2748 49.231 47.6868 49.3033 47.1041 49.2475C46.518 49.3153 45.9243 49.2514 45.3661 49.0606C44.8079 48.8699 44.2992 48.5569 43.8773 48.1447C43.4553 47.7324 43.1306 47.2312 42.9269 46.6776C42.7232 46.1239 42.6456 45.5318 42.6997 44.9444ZM48.4372 44.2356C48.4372 42.1769 48.0659 41.1813 47.1378 41.2488C46.2097 41.3163 45.6697 42.2444 45.7372 44.2356C45.8047 46.2269 46.1253 47.4081 47.1378 47.3406C48.1503 47.2731 48.4372 46.4463 48.4372 44.2356ZM28.5078 36.8444V35.6463C28.5078 32.575 29.9759 31.0056 32.8953 30.9381C35.8147 30.8706 37.2322 32.6256 37.2997 35.6463V36.8444C37.3579 37.4418 37.2849 38.0447 37.0856 38.6109C36.8863 39.1771 36.5656 39.6929 36.146 40.1222C35.7264 40.5514 35.2181 40.8837 34.6565 41.0958C34.095 41.3079 33.4939 41.3947 32.8953 41.35C30.0941 41.2825 28.6428 39.7806 28.5078 36.8444ZM34.2959 36.1356C34.2959 34.0769 33.8403 33.0475 32.8953 33.0475C31.9503 33.0475 31.4609 34.0094 31.5959 36.1356C31.4609 38.2788 31.8997 39.2744 32.8953 39.1394C33.8909 39.0044 34.2959 38.2113 34.2959 36.1356ZM34.5997 48.1338L42.5984 31.9506C43.1384 30.685 43.7628 30.1113 44.5053 30.2631C44.7738 30.312 45.0251 30.4293 45.235 30.6037C45.4449 30.7782 45.6062 31.0038 45.7034 31.2588C45.6751 31.6408 45.5719 32.0135 45.3997 32.3556L37.4009 48.5556C36.7259 49.6188 36.1016 50.125 35.4941 50.0575C35.2391 50.0105 34.9983 49.9054 34.7905 49.7503C34.5828 49.5951 34.4135 49.3942 34.2959 49.1631C34.336 48.8048 34.4388 48.4564 34.5997 48.1338Z" fill="#425BB5"/>
</svg>
