<svg width="80" height="80" viewBox="0 0 80 80" fill="none" xmlns="http://www.w3.org/2000/svg">
<path d="M38.779 30.3369H24.6084C23.9174 30.3369 23.3526 29.7026 23.3526 28.9229C23.3526 28.1494 23.9174 27.5135 24.6084 27.5135H38.779C39.4659 27.5135 40.0301 28.1485 40.0301 28.9229C40.0301 29.7019 39.4659 30.3369 38.779 30.3369ZM25.0687 41.0816C23.8351 41.0816 23.3526 40.448 23.3526 39.6647C23.3526 38.888 23.7824 38.2582 25.0161 38.2582H51.5265C52.753 38.2582 53.1291 38.8879 53.1291 39.6647C53.1291 40.448 52.6478 41.0816 51.4213 41.0816H25.0687ZM41.5142 20.1222H23.4534C21.53 20.1222 19.9667 21.7297 19.9667 23.6398V45.3631H28.5789C32.1279 45.3631 35.0131 48.2441 35.0131 51.7807V60.0433H53.2157C55.1362 60.0433 56.6999 58.4855 56.6999 56.5754V40.6653C56.6999 39.8446 57.3602 39.2903 58.1782 39.2903C59.0024 39.2903 59.7156 39.949 59.7156 40.7702V56.5754C59.7156 60.1217 56.7749 63 53.2161 63H33.1253C32.7329 63 32.3599 62.8432 32.0787 62.5695L17.4348 48.0354C17.1537 47.7612 17 47.3836 17 46.9893L17 23.0631C17 19.52 19.8913 17.0055 23.4534 17.0055H41.4089C42.2302 17.0055 42.7392 17.8239 42.7392 18.6423C42.7392 19.4578 41.5142 20.1222 41.5142 20.1222ZM32.2417 58.3437V51.6571C32.2417 49.7096 30.6542 48.1276 28.7064 48.1276H21.9504L32.2417 58.3437ZM52.4648 17C57.3973 17 61.4103 20.9991 61.4103 25.9138C61.4103 28.3037 61.0318 30.0121 59.2296 31.7242L63 35.4536L61.0244 37.4217L57.0871 33.4986C55.6518 34.3585 54.0249 34.8281 52.4648 34.8281C47.5316 34.8281 43.5189 30.8296 43.5189 25.9138M43.5189 25.8918C43.5189 20.9888 47.5217 17.0001 52.4421 17.0001L43.5189 25.8918ZM52.4421 19.7626C49.0501 19.7626 46.2912 22.5116 46.2912 25.8913C46.2912 29.271 49.0503 32.0206 52.4421 32.0206C55.8335 32.0206 58.5924 29.271 58.5924 25.8913C58.5924 22.5116 55.8332 19.7626 52.4421 19.7626ZM52.2679 51.6188H39.2378C38.6025 51.6188 38.0831 50.9851 38.0831 50.2018C38.0831 49.4251 38.6025 48.7953 39.2378 48.7953H52.2679C52.8996 48.7953 53.4184 49.4251 53.4184 50.2018C53.4184 50.9851 52.8996 51.6188 52.2679 51.6188Z" fill="#425BB5"/>
<path d="M38.924 30.333H24.6591C23.9635 30.333 23.3949 29.6986 23.3949 28.9188C23.3949 28.1452 23.9635 27.5093 24.6591 27.5093H38.924C39.6155 27.5093 40.1835 28.1443 40.1835 28.9188C40.1835 29.6979 39.6155 30.333 38.924 30.333ZM25.1224 41.079C23.8806 41.079 23.3949 40.4453 23.3949 39.6619C23.3949 38.8851 23.8276 38.2552 25.0694 38.2552H51.7564C52.9911 38.2552 53.3697 38.885 53.3697 39.6619C53.3697 40.4453 52.8851 41.079 51.6505 41.079H25.1224ZM41.6774 20.1171H23.4963C21.5602 20.1171 19.9864 21.7248 19.9864 23.6351V45.361H28.656C32.2287 45.361 35.1331 48.2423 35.1331 51.7794V60.043H53.4568C55.3901 60.043 56.9643 58.4849 56.9643 56.5746V40.6627C56.9643 39.8419 57.6289 39.2874 58.4524 39.2874C59.282 39.2874 60 39.9463 60 40.7675V56.5746C60 60.1214 57.0398 63 53.4573 63H33.2327C32.8377 63 32.4622 62.8432 32.1791 62.5695L17.4377 48.0336C17.1547 47.7594 17 47.3817 17 46.9873L17 23.0583C17 19.5148 19.9105 17 23.4963 17H41.5715C42.3982 17 42.9106 17.8185 42.9106 18.637C42.9106 19.4526 41.6774 20.1171 41.6774 20.1171ZM32.3432 58.3431V51.6557C32.3432 49.708 30.7451 48.1258 28.7843 48.1258H21.9834L32.3432 58.3431ZM52.5028 51.6174H39.3859C38.7463 51.6174 38.2234 50.9837 38.2234 50.2003C38.2234 49.4235 38.7463 48.7936 39.3859 48.7936H52.5028C53.1386 48.7936 53.6609 49.4235 53.6609 50.2003C53.6609 50.9837 53.1386 51.6174 52.5028 51.6174Z" fill="#555555"/>
</svg>
