<svg width="80" height="80" viewBox="0 0 80 80" fill="none" xmlns="http://www.w3.org/2000/svg">
<path d="M19.8506 30.4863C20.9229 30.4863 21.79 29.6191 21.79 28.5469V21.5156C21.79 21.1406 22.0947 20.8359 22.4697 20.8359H26.5186C26.7647 20.8359 26.9932 20.9707 27.1104 21.1875L28.6807 24C29.4834 25.4414 31.0127 26.3379 32.665 26.3379H61.5283C61.9033 26.3379 62.208 26.6426 62.208 27.0176V28.5469C62.208 29.6191 63.0752 30.4863 64.1475 30.4863C65.2197 30.4863 66.0869 29.6191 66.0869 28.5469V27.0176C66.0869 24.5039 64.042 22.459 61.5283 22.459H32.665C32.4189 22.459 32.1904 22.3242 32.0732 22.1074L30.5029 19.2949C29.7002 17.8535 28.1709 16.957 26.5186 16.957H22.4697C19.9561 16.957 17.9111 19.002 17.9111 21.5156V28.5469C17.9111 29.6191 18.7783 30.4863 19.8506 30.4863ZM67.1475 32.8477C66.2979 31.8633 65.0674 31.3008 63.7666 31.3008H20.2256C18.9248 31.3008 17.6943 31.8633 16.8447 32.8477C15.9951 33.832 15.6201 35.1328 15.8135 36.416L18.9365 57.2461C19.2647 59.4492 21.1221 61.043 23.3428 61.043H60.6377C62.8291 61.043 64.7217 59.4082 65.0439 57.2461L68.167 36.416C68.3721 35.1328 67.9971 33.832 67.1475 32.8477ZM64.3408 35.8418L61.2178 56.6719C61.1768 56.9531 60.9307 57.1641 60.6436 57.1641H23.3545C23.0674 57.1641 22.8272 56.959 22.7803 56.6719L19.6572 35.8418C19.6221 35.6133 19.7275 35.4551 19.792 35.3789C19.8564 35.3027 19.9971 35.1797 20.2314 35.1797H63.7725C64.001 35.1797 64.1475 35.3027 64.2119 35.3789C64.2705 35.4551 64.376 35.6133 64.3408 35.8418Z" fill="#555555" stroke="white" stroke-width="0.5"/>
<path d="M50.4492 39.9199H33.5508C32.4785 39.9199 31.6113 40.7871 31.6113 41.8594C31.6113 42.9316 32.4785 43.7988 33.5508 43.7988H50.4434C51.5156 43.7988 52.3828 42.9316 52.3828 41.8594C52.3828 40.7871 51.5215 39.9199 50.4492 39.9199Z" fill="#425BB5" stroke="white" stroke-width="0.5"/>
</svg>
