<svg width="80" height="80" viewBox="0 0 80 80" fill="none" xmlns="http://www.w3.org/2000/svg">
<path d="M54.8438 18.125H50.9375V21.25H54.8438C56.1377 21.25 57.1875 22.2998 57.1875 23.5938V56.4062C57.1875 57.7002 56.1377 58.75 54.8438 58.75H25.1562C23.8623 58.75 22.8125 57.7002 22.8125 56.4062V23.5938C22.8125 22.2998 23.8623 21.25 25.1562 21.25H29.0625V18.125H25.1562C22.1387 18.125 19.6875 20.5762 19.6875 23.5938V56.4062C19.6875 59.4238 22.1387 61.875 25.1562 61.875H54.8438C57.8613 61.875 60.3125 59.4238 60.3125 56.4062V23.5938C60.3125 20.5762 57.8613 18.125 54.8438 18.125Z" fill="#555555" stroke="#555555" stroke-width="0.5"/>
<path d="M33.75 18.125H46.25V21.25H33.75V18.125ZM29.0625 33.75H50.9375V36.875H29.0625V33.75ZM29.0625 44.6875H43.125V47.8125H29.0625V44.6875Z" fill="#425BB5"/>
</svg>
