<svg width="80" height="80" viewBox="0 0 80 80" fill="none" xmlns="http://www.w3.org/2000/svg">
<path d="M51.8125 44.5V41.6875H28.1875V44.5H24.8125V40C24.8125 39.5524 24.9903 39.1232 25.3068 38.8068C25.6232 38.4903 26.0524 38.3125 26.5 38.3125H38.3125V35.5H41.6875V38.3125H53.5C53.9476 38.3125 54.3768 38.4903 54.6932 38.8068C55.0097 39.1232 55.1875 39.5524 55.1875 40V44.5H51.8125Z" fill="#425BB5"/>
<path d="M44.5 35.5H35.5C34.9091 35.5 34.3239 35.3836 33.7779 35.1575C33.232 34.9313 32.7359 34.5998 32.318 34.182C31.9002 33.7641 31.5687 33.268 31.3425 32.7221C31.1164 32.1761 31 31.5909 31 31V22C31 21.4091 31.1164 20.8239 31.3425 20.2779C31.5687 19.732 31.9002 19.2359 32.318 18.818C32.7359 18.4002 33.232 18.0687 33.7779 17.8425C34.3239 17.6164 34.9091 17.5 35.5 17.5H44.5C45.0909 17.5 45.6761 17.6164 46.2221 17.8425C46.768 18.0687 47.2641 18.4002 47.682 18.818C48.0998 19.2359 48.4313 19.732 48.6575 20.2779C48.8836 20.8239 49 21.4091 49 22V31C49 31.5909 48.8836 32.1761 48.6575 32.7221C48.4313 33.268 48.0998 33.7641 47.682 34.182C47.2641 34.5998 46.768 34.9313 46.2221 35.1575C45.6761 35.3836 45.0909 35.5 44.5 35.5ZM45.925 21.7C45.925 21.5523 45.8959 21.406 45.8394 21.2695C45.7828 21.133 45.7 21.009 45.5955 20.9045C45.491 20.8 45.367 20.7172 45.2305 20.6606C45.094 20.6041 44.9477 20.575 44.8 20.575H35.2C35.0523 20.575 34.906 20.6041 34.7695 20.6606C34.633 20.7172 34.509 20.8 34.4045 20.9045C34.3 21.009 34.2172 21.133 34.1606 21.2695C34.1041 21.406 34.075 21.5523 34.075 21.7V31.3C34.075 31.4477 34.1041 31.594 34.1606 31.7305C34.2172 31.867 34.3 31.991 34.4045 32.0955C34.509 32.2 34.633 32.2828 34.7695 32.3394C34.906 32.3959 35.0523 32.425 35.2 32.425H44.8C44.9477 32.425 45.094 32.3959 45.2305 32.3394C45.367 32.2828 45.491 32.2 45.5955 32.0955C45.7 31.991 45.7828 31.867 45.8394 31.7305C45.8959 31.594 45.925 31.4477 45.925 31.3V21.7Z" fill="#555555"/>
<path d="M31.5 62H22.5C21.9091 62 21.3239 61.8836 20.7779 61.6575C20.232 61.4313 19.7359 61.0998 19.318 60.682C18.9002 60.2641 18.5687 59.768 18.3425 59.2221C18.1164 58.6761 18 58.0909 18 57.5V48.5C18 47.9091 18.1164 47.3239 18.3425 46.7779C18.5687 46.232 18.9002 45.7359 19.318 45.318C19.7359 44.9002 20.232 44.5687 20.7779 44.3425C21.3239 44.1164 21.9091 44 22.5 44H31.5C32.0909 44 32.6761 44.1164 33.2221 44.3425C33.768 44.5687 34.2641 44.9002 34.682 45.318C35.0998 45.7359 35.4313 46.232 35.6575 46.7779C35.8836 47.3239 36 47.9091 36 48.5V57.5C36 58.0909 35.8836 58.6761 35.6575 59.2221C35.4313 59.768 35.0998 60.2641 34.682 60.682C34.2641 61.0998 33.768 61.4313 33.2221 61.6575C32.6761 61.8836 32.0909 62 31.5 62ZM32.925 48.2C32.925 48.0523 32.8959 47.906 32.8394 47.7695C32.7828 47.633 32.7 47.509 32.5955 47.4045C32.491 47.3 32.367 47.2172 32.2305 47.1606C32.094 47.1041 31.9477 47.075 31.8 47.075H22.2C22.0523 47.075 21.906 47.1041 21.7695 47.1606C21.633 47.2172 21.509 47.3 21.4045 47.4045C21.3 47.509 21.2172 47.633 21.1606 47.7695C21.1041 47.906 21.075 48.0523 21.075 48.2V57.8C21.075 57.9477 21.1041 58.094 21.1606 58.2305C21.2172 58.367 21.3 58.491 21.4045 58.5955C21.509 58.7 21.633 58.7828 21.7695 58.8394C21.906 58.8959 22.0523 58.925 22.2 58.925H31.8C31.9477 58.925 32.094 58.8959 32.2305 58.8394C32.367 58.7828 32.491 58.7 32.5955 58.5955C32.7 58.491 32.7828 58.367 32.8394 58.2305C32.8959 58.094 32.925 57.9477 32.925 57.8V48.2Z" fill="#555555"/>
<path d="M57.902 62H48.902C48.311 62 47.7259 61.8836 47.1799 61.6575C46.6339 61.4313 46.1379 61.0998 45.72 60.682C45.3021 60.2641 44.9707 59.768 44.7445 59.2221C44.5184 58.6761 44.402 58.0909 44.402 57.5V48.5C44.402 47.9091 44.5184 47.3239 44.7445 46.7779C44.9707 46.232 45.3021 45.7359 45.72 45.318C46.1379 44.9002 46.6339 44.5687 47.1799 44.3425C47.7259 44.1164 48.311 44 48.902 44H57.902C58.4929 44 59.0781 44.1164 59.6241 44.3425C60.17 44.5687 60.6661 44.9002 61.084 45.318C61.5018 45.7359 61.8333 46.232 62.0594 46.7779C62.2856 47.3239 62.402 47.9091 62.402 48.5V57.5C62.402 58.0909 62.2856 58.6761 62.0594 59.2221C61.8333 59.768 61.5018 60.2641 61.084 60.682C60.6661 61.0998 60.17 61.4313 59.6241 61.6575C59.0781 61.8836 58.4929 62 57.902 62ZM59.327 48.2C59.327 48.0523 59.2979 47.906 59.2413 47.7695C59.1848 47.633 59.1019 47.509 58.9975 47.4045C58.893 47.3 58.769 47.2172 58.6325 47.1606C58.496 47.1041 58.3497 47.075 58.202 47.075H48.602C48.4542 47.075 48.3079 47.1041 48.1715 47.1606C48.035 47.2172 47.9109 47.3 47.8065 47.4045C47.702 47.509 47.6191 47.633 47.5626 47.7695C47.5061 47.906 47.477 48.0523 47.477 48.2V57.8C47.477 57.9477 47.5061 58.094 47.5626 58.2305C47.6191 58.367 47.702 58.491 47.8065 58.5955C47.9109 58.7 48.035 58.7828 48.1715 58.8394C48.3079 58.8959 48.4542 58.925 48.602 58.925H58.202C58.3497 58.925 58.496 58.8959 58.6325 58.8394C58.769 58.7828 58.893 58.7 58.9975 58.5955C59.1019 58.491 59.1848 58.367 59.2413 58.2305C59.2979 58.094 59.327 57.9477 59.327 57.8V48.2Z" fill="#555555"/>
</svg>
