<svg width="80" height="80" viewBox="0 0 80 80" fill="none" xmlns="http://www.w3.org/2000/svg">
<path d="M30.5184 19.9795C37.899 19.9795 44.1558 23.2422 44.378 28.0085L44.3818 28.2707V52.554C44.3818 57.4624 38.0333 60.8452 30.5171 60.8452C23.0022 60.8452 16.6523 57.4624 16.6523 52.554V44.4953V36.3837V28.2707V28.272C16.6523 23.3637 23.0022 19.9808 30.5171 19.9808L30.5184 19.9795ZM40.5094 50.3375C38.9233 51.2998 36.9367 52.0141 34.706 52.4184C33.3639 52.6612 31.9547 52.7865 30.5171 52.7865C29.1131 52.7888 27.7116 52.6657 26.3295 52.4184C24.0988 52.0141 22.1122 51.2998 20.5273 50.3388V52.554L20.5338 52.6987C20.725 54.7667 24.9875 56.9702 30.5184 56.9702C36.1759 56.9702 40.5081 54.6633 40.5081 52.554L40.5094 50.3375ZM40.5094 42.2259C38.9233 43.1869 36.9367 43.9025 34.706 44.3055C33.3639 44.5496 31.9547 44.6736 30.5171 44.6736C29.1131 44.6759 27.7116 44.5527 26.3295 44.3055C24.0988 43.9025 22.1122 43.1869 20.5273 42.2259V44.4953L20.5351 44.6465C20.6901 46.1667 23.1623 47.9066 27.0193 48.6054C28.1314 48.8069 29.3107 48.9115 30.5171 48.9115C31.7248 48.9115 32.9028 48.8082 34.0149 48.6054C38.001 47.8821 40.5081 46.0492 40.5081 44.4953V44.4424L40.5094 42.2259ZM20.5273 34.1129V36.3824L20.5351 36.5348C20.6901 38.0551 23.1623 39.7937 27.0193 40.4937C28.1314 40.6952 29.3107 40.7986 30.5171 40.7986C31.7248 40.7986 32.9028 40.6952 34.0149 40.4937C38.001 39.7704 40.5081 37.9362 40.5081 36.3837V34.1129C38.9233 35.0739 36.9367 35.7895 34.706 36.1925C33.3639 36.4379 31.9547 36.5619 30.5171 36.5619C29.1131 36.5642 27.7116 36.441 26.3295 36.1938C24.0988 35.7895 22.1122 35.0752 20.5273 34.1129ZM30.5171 23.8545C24.8596 23.8545 20.5273 26.1614 20.5273 28.2707C20.5273 29.8246 23.0332 31.6587 27.0206 32.3808C28.1314 32.5823 29.3107 32.6869 30.5171 32.6869C31.7248 32.6869 32.9028 32.5823 34.0149 32.3808C38.001 31.6575 40.5081 29.8246 40.5081 28.2707C40.5081 26.1614 36.1759 23.8545 30.5171 23.8545Z" fill="#555555"/>
<path d="M49.3775 33.9072C56.7581 33.9072 63.0149 37.17 63.2371 41.9375L63.2409 42.1984V50.2584C63.2409 55.1668 56.8924 58.5484 49.3762 58.5484C48.379 58.5484 47.4025 58.4889 46.457 58.374V54.4628C47.3741 54.5984 48.3545 54.6734 49.3762 54.6734C54.9058 54.6734 59.1696 52.4698 59.3608 50.4018L59.3672 50.2572V48.0406C57.7824 49.0029 55.7958 49.7172 53.5651 50.1215C52.223 50.3644 50.8138 50.4897 49.3762 50.4897C48.3855 50.4897 47.4077 50.4302 46.457 50.314V46.4041C47.3948 46.5436 48.3764 46.6146 49.3762 46.6146C50.5839 46.6146 51.7619 46.5113 52.874 46.3085C56.8601 45.5865 59.3672 43.7523 59.3672 42.1984C59.3672 40.0904 55.035 37.7822 49.3762 37.7822C48.3545 37.7822 47.3741 37.8584 46.457 37.9941V34.0816C47.4257 33.9647 48.4005 33.9065 49.3762 33.9072H49.3775Z" fill="#425BB5"/>
</svg>
