<svg width="80" height="80" viewBox="0 0 80 80" fill="none" xmlns="http://www.w3.org/2000/svg">
<path d="M40.5 16.3125H33.875C32.5572 16.3125 31.2934 16.836 30.3616 17.7678C29.4297 18.6996 28.9062 19.9635 28.9062 21.2812H31.3906C31.3906 20.6224 31.6524 19.9904 32.1183 19.5245C32.5842 19.0586 33.2161 18.7969 33.875 18.7969H40.5C41.1589 18.7969 41.7908 19.0586 42.2567 19.5245C42.7226 19.9904 42.9844 20.6224 42.9844 21.2812V23.7656H45.4688V21.2812C45.4688 19.9635 44.9453 18.6996 44.0134 17.7678C43.0816 16.836 41.8178 16.3125 40.5 16.3125Z" fill="#555555" stroke="#555555" stroke-width="0.5"/>
<path d="M24.3522 34.53H35.1179C35.2865 34.5066 35.4582 34.5226 35.6195 34.5768C35.7809 34.6309 35.9275 34.7218 36.0479 34.8421C36.1682 34.9625 36.2591 35.1091 36.3132 35.2705C36.3674 35.4318 36.3834 35.6035 36.36 35.7721C36.3834 35.9407 36.3674 36.1125 36.3132 36.2738C36.2591 36.4352 36.1682 36.5818 36.0479 36.7022C35.9275 36.8225 35.7809 36.9134 35.6195 36.9675C35.4582 37.0217 35.2865 37.0377 35.1179 37.0143H24.3522C24.1836 37.0377 24.0119 37.0217 23.8505 36.9675C23.6892 36.9134 23.5426 36.8225 23.4222 36.7022C23.3018 36.5818 23.211 36.4352 23.1569 36.2738C23.1027 36.1125 23.0867 35.9407 23.11 35.7721C23.0867 35.6035 23.1027 35.4318 23.1569 35.2705C23.211 35.1091 23.3018 34.9625 23.4222 34.8421C23.5426 34.7218 23.6892 34.6309 23.8505 34.5768C24.0119 34.5226 24.1836 34.5066 24.3522 34.53ZM24.3522 41.9831H35.1179C35.2865 41.9597 35.4582 41.9757 35.6195 42.0299C35.7809 42.0841 35.9275 42.1749 36.0479 42.2953C36.1682 42.4156 36.2591 42.5622 36.3132 42.7236C36.3674 42.885 36.3834 43.0567 36.36 43.2253C36.3834 43.3939 36.3674 43.5656 36.3132 43.727C36.2591 43.8883 36.1682 44.0349 36.0479 44.1553C35.9275 44.2757 35.7809 44.3665 35.6195 44.4206C35.4582 44.4748 35.2865 44.4908 35.1179 44.4675H24.3522C24.1836 44.4908 24.0119 44.4748 23.8505 44.4206C23.6892 44.3665 23.5426 44.2757 23.4222 44.1553C23.3018 44.0349 23.211 43.8883 23.1569 43.727C23.1027 43.5656 23.0867 43.3939 23.11 43.2253C23.0867 43.0567 23.1027 42.885 23.1569 42.7236C23.211 42.5622 23.3018 42.4156 23.4222 42.2953C23.5426 42.1749 23.6892 42.0841 23.8505 42.0299C24.0119 41.9757 24.1836 41.9597 24.3522 41.9831ZM24.3522 49.4362H35.1179C35.4473 49.4362 35.7633 49.5671 35.9962 49.8C36.2292 50.033 36.36 50.349 36.36 50.6784C36.36 51.0078 36.2292 51.3238 35.9962 51.5568C35.7633 51.7897 35.4473 51.9206 35.1179 51.9206H24.3522C24.0228 51.9206 23.7068 51.7897 23.4739 51.5568C23.2409 51.3238 23.11 51.0078 23.11 50.6784C23.11 50.349 23.2409 50.033 23.4739 49.8C23.7068 49.5671 24.0228 49.4362 24.3522 49.4362Z" fill="#555555" stroke="#555555" stroke-width="0.5"/>
<path d="M53.75 44.4687C55.3879 44.4687 56.989 44.9544 58.3508 45.8644C59.7127 46.7743 60.7741 48.0677 61.4009 49.5809C62.0277 51.0941 62.1917 52.7592 61.8721 54.3656C61.5526 55.972 60.7639 57.4476 59.6057 58.6057C58.4476 59.7639 56.972 60.5526 55.3656 60.8721C53.7592 61.1917 52.0941 61.0277 50.5809 60.4009C49.0677 59.7741 47.7744 58.7127 46.8644 57.3508C45.9544 55.989 45.4688 54.3879 45.4688 52.75C45.4688 50.5537 46.3412 48.4473 47.8943 46.8943C49.4473 45.3412 51.5537 44.4687 53.75 44.4687ZM53.75 42.8125C51.7846 42.8125 49.8632 43.3953 48.229 44.4873C46.5948 45.5792 45.3211 47.1312 44.569 48.9471C43.8168 50.7629 43.62 52.761 44.0035 54.6887C44.3869 56.6164 45.3333 58.3871 46.7231 59.7769C48.1129 61.1667 49.8836 62.1131 51.8113 62.4966C53.739 62.88 55.7371 62.6832 57.5529 61.9311C59.3688 61.1789 60.9208 59.9052 62.0127 58.271C63.1047 56.6368 63.6875 54.7155 63.6875 52.75C63.6875 50.1144 62.6405 47.5868 60.7769 45.7231C58.9132 43.8595 56.3856 42.8125 53.75 42.8125Z" fill="#425BB5" stroke="#425BB5" stroke-width="0.5"/>
<path d="M51.6057 51.9221L53.7505 49.8187C53.8272 49.7415 53.8879 49.6499 53.9292 49.5492C53.9705 49.4485 53.9915 49.3407 53.9911 49.2319C53.9907 49.1231 53.9689 49.0154 53.9269 48.915C53.8849 48.8147 53.8236 48.7235 53.7464 48.6469C53.6692 48.5702 53.5776 48.5095 53.4769 48.4682C53.3762 48.4269 53.2684 48.4059 53.1596 48.4063C53.0508 48.4066 52.9431 48.4285 52.8427 48.4704C52.7424 48.5124 52.6512 48.5738 52.5746 48.651L49.0633 52.1623C48.9857 52.2392 48.9241 52.3308 48.882 52.4318C48.84 52.5327 48.8184 52.6409 48.8184 52.7502C48.8184 52.8596 48.84 52.9678 48.882 53.0687C48.9241 53.1696 48.9857 53.2612 49.0633 53.3382L52.5332 56.8909C52.6107 56.9749 52.7048 57.042 52.8096 57.0879C52.9143 57.1338 53.0275 57.1575 53.1418 57.1575C53.2562 57.1575 53.3693 57.1338 53.4741 57.0879C53.5788 57.042 53.673 56.9749 53.7505 56.8909C53.9047 56.7357 53.9913 56.5258 53.9913 56.307C53.9913 56.0882 53.9047 55.8784 53.7505 55.7232L51.6057 53.5784H59.7461C59.9658 53.5784 60.1764 53.4911 60.3317 53.3358C60.487 53.1805 60.5743 52.9699 60.5743 52.7502C60.5743 52.5306 60.487 52.32 60.3317 52.1647C60.1764 52.0094 59.9658 51.9221 59.7461 51.9221H51.6057Z" fill="#425BB5" stroke="#425BB5" stroke-width="0.5"/>
<path d="M51.7457 33.4224C51.5117 33.1918 51.1964 33.0625 50.8679 33.0625C50.5393 33.0625 50.224 33.1918 49.99 33.4224L44.425 38.9874L41.7916 36.354C41.6779 36.2319 41.5408 36.134 41.3884 36.0661C41.236 35.9982 41.0715 35.9617 40.9047 35.9588C40.7379 35.9558 40.5723 35.9865 40.4176 36.049C40.2629 36.1115 40.1224 36.2045 40.0045 36.3224C39.8865 36.4404 39.7935 36.5809 39.731 36.7356C39.6686 36.8902 39.6379 37.0559 39.6408 37.2227C39.6438 37.3895 39.6803 37.554 39.7482 37.7064C39.8161 37.8587 39.9139 37.9959 40.036 38.1096L43.5472 41.6208C43.7801 41.8535 44.0959 41.9841 44.425 41.9841C44.7542 41.9841 45.0699 41.8535 45.3029 41.6208L51.7457 35.178C51.9783 34.9451 52.109 34.6294 52.109 34.3002C52.109 33.971 51.9783 33.6553 51.7457 33.4224Z" fill="#555555" stroke="#555555" stroke-width="0.5"/>
<path d="M54.5781 39.9141C54.5781 40.1597 54.651 40.3999 54.7875 40.6042C54.924 40.8085 55.118 40.9677 55.3449 41.0617C55.5719 41.1557 55.8217 41.1803 56.0627 41.1324C56.3036 41.0844 56.5249 40.9661 56.6987 40.7924C56.8724 40.6187 56.9907 40.3974 57.0386 40.1564C57.0866 39.9154 57.062 39.6657 56.9679 39.4387C56.8739 39.2117 56.7147 39.0177 56.5104 38.8812C56.3062 38.7447 56.066 38.6719 55.8203 38.6719C55.4909 38.6719 55.1749 38.8027 54.942 39.0357C54.709 39.2687 54.5781 39.5846 54.5781 39.9141ZM19.7969 24.5938V59.375C19.7969 59.5946 19.8841 59.8053 20.0394 59.9606C20.1947 60.1159 20.4054 60.2031 20.625 60.2031H40.9141C41.2435 60.2031 41.5595 60.334 41.7924 60.567C42.0254 60.7999 42.1562 61.1159 42.1562 61.4453C42.1562 61.7748 42.0254 62.0907 41.7924 62.3237C41.5595 62.5566 41.2435 62.6875 40.9141 62.6875H20.625C19.7465 62.6875 18.9039 62.3385 18.2827 61.7173C17.6615 61.0961 17.3125 60.2535 17.3125 59.375V24.5938C17.3125 23.7152 17.6615 22.8727 18.2827 22.2515C18.9039 21.6302 19.7465 21.2812 20.625 21.2812H31.3906V23.7656C31.3906 24.4245 31.6524 25.0564 32.1183 25.5223C32.5842 25.9883 33.2161 26.25 33.875 26.25H40.5C41.1589 26.25 41.7908 25.9883 42.2567 25.5223C42.7226 25.0564 42.9844 24.4245 42.9844 23.7656H45.4688C45.4688 25.0834 44.9453 26.3472 44.0134 27.2791C43.0816 28.2109 41.8178 28.7344 40.5 28.7344H33.875C32.5572 28.7344 31.2934 28.2109 30.3616 27.2791C29.4297 26.3472 28.9062 25.0834 28.9062 23.7656H20.625C20.4054 23.7656 20.1947 23.8529 20.0394 24.0082C19.8841 24.1635 19.7969 24.3741 19.7969 24.5938Z" fill="#555555" stroke="#555555" stroke-width="0.5"/>
<path d="M57.0625 24.5938V39.9141C57.0625 40.2435 56.9316 40.5595 56.6987 40.7924C56.4657 41.0254 56.1498 41.1562 55.8203 41.1562C55.4909 41.1562 55.1749 41.0254 54.942 40.7924C54.709 40.5595 54.5781 40.2435 54.5781 39.9141V24.5938C54.5781 24.3741 54.4909 24.1635 54.3356 24.0082C54.1803 23.8529 53.9696 23.7656 53.75 23.7656H42.9844V21.2812H53.75C54.6285 21.2812 55.4711 21.6302 56.0923 22.2515C56.7135 22.8727 57.0625 23.7152 57.0625 24.5938Z" fill="#555555" stroke="#555555" stroke-width="0.5"/>
</svg>
