<svg width="80" height="80" viewBox="0 0 80 80" fill="none" xmlns="http://www.w3.org/2000/svg">
<path d="M43.3109 39.9993C43.3109 38.1069 41.8916 36.6875 39.9991 36.6875C38.1066 36.6875 36.6873 38.1069 36.6873 39.9993C36.6873 41.8918 38.1066 43.3112 39.9991 43.3112C41.8916 43.3112 43.3109 41.8918 43.3109 39.9993Z" fill="#425BB5"/>
<path d="M51.828 42.3656H53.957V37.6344H51.828C50.8817 32.9032 47.0968 29.1183 42.3656 28.172V26.2796H37.6344V28.172C32.9032 29.1183 29.1183 32.9032 28.172 37.6344H26.2796V42.3656H28.4086C29.3548 47.0968 33.1398 50.8817 37.871 51.828V53.7204H42.6022V51.828C47.0968 50.8817 50.8817 47.0968 51.828 42.3656ZM31.7204 40C31.7204 35.5054 35.5054 31.7204 40 31.7204C44.4946 31.7204 48.2796 35.5054 48.2796 40C48.2796 44.4946 44.4946 48.2796 40 48.2796C35.5054 48.2796 31.7204 44.4946 31.7204 40ZM22.7312 22.7312H32.9032V18H18V32.6667H22.7312V22.7312ZM22.7312 47.3333H18V62H32.9032V57.2688H22.7312V47.3333ZM57.2688 57.2688H47.3333V62H62V47.3333H57.2688V57.2688ZM47.3333 18V22.7312H57.2688V32.6667H62V18H47.3333Z" fill="#555555" stroke="white"/>
</svg>
