<svg width="80" height="80" viewBox="0 0 80 80" fill="none" xmlns="http://www.w3.org/2000/svg">
<g clip-path="url(#clip0_11888_47962)">
<path d="M32.1171 37.9434H25.2309C24.5746 37.9434 24.0059 38.4859 24.0059 39.1684C24.0059 39.8246 24.5484 40.3934 25.2309 40.3934H32.1171C32.7734 40.3934 33.3421 39.8509 33.3421 39.1684C33.3334 38.4859 32.7734 37.9434 32.1171 37.9434Z" fill="#425BB5"/>
<path d="M51.76 53.335L51.5237 53.4313V54.63C51.5237 56.3188 50.1412 57.71 48.4437 57.71H26.0962C24.4075 57.71 23.0162 56.3275 23.0162 54.63V25.3963C23.0162 23.7075 24.3987 22.3163 26.0962 22.3162H48.4437C50.1325 22.3162 51.5237 23.6988 51.5237 25.3963V26.595L51.76 26.6913C52.6525 27.0238 53.5012 27.4438 54.2712 27.9338L54.8137 28.2662V24.5212C54.8137 21.485 52.3462 19 49.2925 19H25.23C22.1937 19 19.7087 21.4675 19.7087 24.5212V55.4787C19.7087 58.515 22.1762 61 25.23 61H49.3012C52.3287 61 54.8225 58.5325 54.8225 55.4787V51.7687L54.28 52.1012C53.5012 52.5825 52.6525 53.0112 51.76 53.335Z" fill="#555555"/>
<path d="M32.1171 31.9238H25.2309C24.5746 31.9238 24.0059 32.4663 24.0059 33.1488C24.0059 33.8313 24.5484 34.3738 25.2309 34.3738H32.1171C32.7734 34.3738 33.3421 33.8313 33.3421 33.1488C33.3334 32.4663 32.7734 31.9238 32.1171 31.9238ZM32.1171 43.9638H25.2309C24.5746 43.9638 24.0059 44.5063 24.0059 45.1888C24.0059 45.8713 24.5484 46.4138 25.2309 46.4138H32.1171C32.7734 46.4138 33.3421 45.8713 33.3421 45.1888C33.3421 44.5063 32.7734 43.9638 32.1171 43.9638ZM44.3409 39.3788H46.5284V39.1426C46.5261 38.396 46.2285 37.6807 45.7006 37.1529C45.1727 36.625 44.4574 36.3274 43.7109 36.3251C42.9643 36.3274 42.249 36.625 41.7211 37.1529C41.1933 37.6807 40.8957 38.396 40.8934 39.1426V39.3788H43.0809V39.1426C43.0809 38.7926 43.3609 38.5038 43.7196 38.5038C44.0696 38.5038 44.3584 38.7838 44.3584 39.1426V39.3788H44.3409Z" fill="#425BB5"/>
<path d="M48.0234 27.7422C41.2509 27.7422 35.7559 33.2459 35.7559 40.0097C35.7559 46.7822 41.2596 52.2772 48.0234 52.2772C54.7959 52.2772 60.2909 46.7734 60.2909 40.0097C60.2909 33.2459 54.7959 27.7422 48.0234 27.7422ZM48.0234 49.2234C42.9484 49.2234 38.7834 45.0847 38.7834 40.0097C38.7834 34.9347 42.9221 30.7697 48.0234 30.7697C53.1246 30.7697 57.2634 34.9084 57.2634 40.0097C57.2371 45.0934 53.0984 49.2234 48.0234 49.2234Z" fill="#425BB5"/>
<path d="M49.5024 42.6C49.5024 43.4225 48.8462 44.0788 48.0237 44.0788C47.2012 44.0788 46.5449 43.4225 46.5449 42.6V42.3637H44.3574V42.6C44.3574 44.6212 46.0024 46.2662 48.0237 46.2662C50.0449 46.2662 51.6899 44.6212 51.6899 42.6V42.3637H49.5024V42.6ZM52.3287 36.3438C51.5821 36.3461 50.8668 36.6436 50.3389 37.1715C49.8111 37.6994 49.5135 38.4147 49.5112 39.1612V39.3975H51.6987V39.1612C51.6987 38.8112 51.9787 38.5225 52.3374 38.5225C52.6874 38.5225 52.9762 38.8025 52.9762 39.1612V39.3975H55.1637V39.1612C55.1199 37.595 53.8774 36.3438 52.3287 36.3438Z" fill="#425BB5"/>
</g>
<defs>
<clipPath id="clip0_11888_47962">
<rect width="42" height="42" fill="white" transform="translate(19 19)"/>
</clipPath>
</defs>
</svg>
