<svg width="80" height="80" viewBox="0 0 80 80" fill="none" xmlns="http://www.w3.org/2000/svg">
<path d="M27.1893 32.7285H37.6623V35.1812H27.1893V32.7285ZM27.1893 40.8396H47.3222V43.2923H27.1893V40.8396ZM27.1893 48.9507H47.3222V51.4033H27.1893V48.9507Z" fill="#555555"/>
<path d="M51.5517 62.0548H22.8721C20.8434 62.0548 19.1934 60.4047 19.1934 58.376V25.753C19.1934 23.7243 20.8434 22.0742 22.8721 22.0742H44.8523L43.939 23.8593C43.2666 25.1724 42.9259 26.5788 42.9259 28.0401C42.9259 33.1136 47.0535 37.2417 52.127 37.2417C52.657 37.2417 53.1996 37.19 53.785 37.0835L55.2304 36.8209V58.3766C55.2304 60.4047 53.5804 62.0548 51.5517 62.0548ZM22.8721 24.5264C22.1955 24.5264 21.646 25.0769 21.646 25.7524V58.3755C21.646 59.0516 22.1961 59.6016 22.8721 59.6016H51.5512C52.2278 59.6016 52.7772 59.051 52.7772 58.3755V39.6738C52.5589 39.687 52.3422 39.6933 52.1265 39.6933C45.7008 39.6933 40.4727 34.4652 40.4727 28.039C40.4727 26.8335 40.6552 25.658 41.017 24.5258H22.8721V24.5264Z" fill="#555555" stroke="#555555" stroke-width="0.7"/>
<path d="M57.1101 33.7973H54.6574V32.2664C54.6574 31.2465 53.8279 30.4175 52.8085 30.4175H51.3372C50.3173 30.4175 49.4878 31.247 49.4878 32.2664V33.7973H47.0352V32.2664C47.0352 29.8944 48.9652 27.9648 51.3372 27.9648H52.8085C55.1805 27.9648 57.1101 29.8949 57.1101 32.2664V33.7973Z" fill="#425BB5"/>
<path d="M52.0736 30.4181C49.7306 30.4181 47.8242 28.5122 47.8242 26.1693C47.8242 23.8263 49.7306 21.9199 52.0736 21.9199C54.4171 21.9199 56.3229 23.8263 56.3229 26.1693C56.3229 28.5122 54.4171 30.4181 52.0736 30.4181ZM52.0736 24.3721C51.0827 24.3721 50.2769 25.1779 50.2769 26.1693C50.2769 27.1596 51.0827 27.9654 52.0736 27.9654C53.0644 27.9654 53.8707 27.1596 53.8707 26.1693C53.8707 25.1779 53.065 24.3721 52.0736 24.3721Z" fill="#425BB5"/>
<path d="M52.1245 39.6948C45.6988 39.6948 40.4707 34.4667 40.4707 28.0405C40.4707 21.6148 45.6988 16.3867 52.1245 16.3867C58.5502 16.3867 63.7782 21.6148 63.7782 28.0405C63.7782 34.4667 58.5507 39.6948 52.1245 39.6948ZM52.1245 18.8394C47.0509 18.8394 42.9234 22.9669 42.9234 28.0405C42.9234 33.1141 47.0514 37.2421 52.1245 37.2421C57.1975 37.2421 61.3256 33.1141 61.3256 28.0405C61.3256 22.9669 57.198 18.8394 52.1245 18.8394Z" fill="#425BB5"/>
</svg>
