<svg width="80" height="80" viewBox="0 0 80 80" fill="none" xmlns="http://www.w3.org/2000/svg">
<path d="M57.2694 19.5137C58.5176 19.5132 59.721 19.9796 60.6429 20.8211C61.5648 21.6627 62.1387 22.8185 62.2518 24.0617L62.2706 24.5149V58.8983C62.2709 59.3693 62.0939 59.8231 61.7749 60.1696C61.4559 60.5161 61.0182 60.7299 60.5488 60.7685C60.0794 60.8071 59.6127 60.6677 59.2414 60.3779C58.87 60.0882 58.6213 59.6693 58.5447 59.2046L58.5197 58.8983V53.722H21.6357V58.9014C21.636 59.3724 21.459 59.8263 21.14 60.1728C20.821 60.5193 20.3833 60.7331 19.9139 60.7717C19.4445 60.8102 18.9778 60.6708 18.6064 60.3811C18.2351 60.0913 17.9864 59.6724 17.9098 59.2077L17.8848 58.9014V24.518C17.8843 23.2698 18.3507 22.0665 19.1922 21.1445C20.0337 20.2226 21.1896 19.6487 22.4328 19.5356L22.886 19.5137H57.2694ZM58.5197 32.9138H21.6357V49.968H58.5197V32.9138ZM57.2663 23.2677H22.8829C22.5951 23.2675 22.316 23.3666 22.0928 23.5482C21.8696 23.7299 21.7158 23.983 21.6576 24.2648L21.6326 24.5149V29.1629H58.5166V24.5149C58.5168 24.2271 58.4177 23.948 58.236 23.7248C58.0544 23.5016 57.8013 23.3479 57.5194 23.2896L57.2694 23.2646L57.2663 23.2677Z" fill="#555555"/>
<path d="M31.4133 36.7402L34.664 38.6157L29.9754 46.7364L26.7246 44.861L31.4133 36.7402ZM40.7905 36.7402L44.0413 38.6157L39.3527 46.7364L36.1019 44.861L40.7905 36.7402ZM50.1678 36.7402L53.4186 38.6157L48.73 46.7364L45.4792 44.861L50.1678 36.7402Z" fill="#425BB5"/>
</svg>
