<svg width="80" height="80" viewBox="0 0 80 80" fill="none" xmlns="http://www.w3.org/2000/svg">
<path fill-rule="evenodd" clip-rule="evenodd" d="M28.4452 54.9762H55.1071C56.181 54.9762 57.0714 55.8667 57.0714 56.9405C57.0714 58.0143 56.181 58.9048 55.1071 58.9048H28.4452C27.6333 61.1833 25.4595 62.8333 22.8929 62.8333C19.6452 62.8333 17 60.1881 17 56.9405C17 53.6929 19.6452 51.0476 22.8929 51.0476C25.4595 51.0476 27.6333 52.6976 28.4452 54.9762ZM28.4452 24.8571C27.6333 27.1357 25.4595 28.7857 22.8929 28.7857C19.6452 28.7857 17 26.1405 17 22.8929C17 19.6452 19.6452 17 22.8929 17C25.4595 17 27.6333 18.65 28.4452 20.9286H55.1071C56.181 20.9286 57.0714 21.819 57.0714 22.8929C57.0714 23.9667 56.181 24.8571 55.1071 24.8571H28.4452ZM49.5548 37.6905C50.3667 35.4119 52.5405 33.7619 55.1071 33.7619C58.3548 33.7619 61 36.4071 61 39.6548C61 42.9024 58.3548 45.5476 55.1071 45.5476C52.5405 45.5476 50.3667 43.8976 49.5548 41.619H22.8929C21.819 41.619 20.9286 40.7286 20.9286 39.6548C20.9286 38.581 21.819 37.6905 22.8929 37.6905H49.5548ZM23 26C24.6569 26 26 24.6569 26 23C26 21.3431 24.6569 20 23 20C21.3431 20 20 21.3431 20 23C20 24.6569 21.3431 26 23 26ZM26 57C26 58.6569 24.6569 60 23 60C21.3431 60 20 58.6569 20 57C20 55.3431 21.3431 54 23 54C24.6569 54 26 55.3431 26 57ZM55 43C56.6569 43 58 41.6569 58 40C58 38.3431 56.6569 37 55 37C53.3431 37 52 38.3431 52 40C52 41.6569 53.3431 43 55 43Z" fill="#555555"/>
<path fill-rule="evenodd" clip-rule="evenodd" d="M55 45.6992C58.3137 45.6992 61 43.0129 61 39.6992C61 36.3855 58.3137 33.6992 55 33.6992C51.6863 33.6992 49 36.3855 49 39.6992C49 43.0129 51.6863 45.6992 55 45.6992ZM55 43C56.6569 43 58 41.6569 58 40C58 38.3431 56.6569 37 55 37C53.3431 37 52 38.3431 52 40C52 41.6569 53.3431 43 55 43Z" fill="#425BB5"/>
</svg>
