<svg width="80" height="80" viewBox="0 0 80 80" fill="none" xmlns="http://www.w3.org/2000/svg">
<path d="M50.4137 41.3223C51.1177 41.3223 51.7551 41.7329 52.0484 42.3729L54.2511 47.1996L59.5204 47.8023C59.8624 47.842 60.1858 47.9792 60.4521 48.1974C60.7184 48.4156 60.9165 48.7058 61.0227 49.0333C61.1288 49.3608 61.1387 49.712 61.0511 50.045C60.9635 50.3779 60.782 50.6787 60.5284 50.9116L56.6217 54.4956L57.6751 59.6956C57.743 60.0331 57.7126 60.3831 57.5874 60.7039C57.4622 61.0246 57.2475 61.3027 56.9688 61.5049C56.6902 61.7072 56.3593 61.8251 56.0155 61.8447C55.6718 61.8644 55.3296 61.7848 55.0297 61.6156L50.4137 59.0076L45.7951 61.6156C45.4952 61.7848 45.153 61.8644 44.8093 61.8447C44.4655 61.8251 44.1346 61.7072 43.856 61.5049C43.5773 61.3027 43.3626 61.0246 43.2374 60.7039C43.1122 60.3831 43.0818 60.0331 43.1497 59.6956L44.2031 54.4956L40.2964 50.9116C40.0427 50.6786 39.8613 50.3776 39.7738 50.0444C39.6863 49.7112 39.6964 49.3599 39.8029 49.0323C39.9094 48.7046 40.1078 48.4145 40.3744 48.1965C40.6411 47.9784 40.9648 47.8416 41.3071 47.8023L46.5764 47.1969L48.7791 42.3729C49.0724 41.7329 49.7097 41.3223 50.4137 41.3223ZM50.4137 47.4449L49.4244 49.6129C49.2957 49.8951 49.0962 50.1392 48.8453 50.3214C48.5943 50.5036 48.3005 50.6179 47.9924 50.6529L45.6271 50.9249L47.3817 52.5356C47.8457 52.9623 48.0537 53.5996 47.9284 54.2156L47.4537 56.5516L49.5284 55.3783C49.7981 55.2259 50.1026 55.1458 50.4124 55.1458C50.7222 55.1458 51.0267 55.2259 51.2964 55.3783L53.3711 56.5516L52.8991 54.2156C52.8375 53.9124 52.8552 53.5985 52.9505 53.3042C53.0458 53.0099 53.2155 52.7451 53.4431 52.5356L55.2004 50.9249L52.8324 50.6529C52.5247 50.6174 52.2315 50.503 51.981 50.3208C51.7306 50.1386 51.5315 49.8947 51.4031 49.6129L50.4137 47.4449Z" fill="#425BB5"/>
<path d="M25.4508 17.4023C23.3122 17.4023 21.5762 19.1383 21.5762 21.2797V58.7197C21.5762 60.861 23.3095 62.597 25.4508 62.597H37.9308C38.4075 62.597 38.8647 62.4076 39.2017 62.0706C39.5388 61.7335 39.7282 61.2764 39.7282 60.7997C39.7282 60.323 39.5388 59.8658 39.2017 59.5288C38.8647 59.1917 38.4075 59.0023 37.9308 59.0023H25.4508C25.3759 59.0023 25.304 58.9726 25.251 58.9196C25.198 58.8665 25.1682 58.7946 25.1682 58.7197V21.2797C25.1682 21.125 25.2962 20.997 25.4508 20.997H44.4562V29.5997C44.4562 30.5917 45.2588 31.397 46.2535 31.397H54.8562V38.9597C54.8469 39.2014 54.8864 39.4424 54.9725 39.6684C55.0585 39.8945 55.1893 40.1008 55.357 40.2751C55.5247 40.4494 55.7259 40.588 55.9484 40.6827C56.1709 40.7774 56.4103 40.8262 56.6522 40.8262C56.894 40.8262 57.1334 40.7774 57.3559 40.6827C57.5785 40.588 57.7796 40.4494 57.9473 40.2751C58.115 40.1008 58.2458 39.8945 58.3319 39.6684C58.4179 39.4424 58.4575 39.2014 58.4482 38.9597V29.5997C58.4488 29.1516 58.2814 28.7196 57.9788 28.389L48.6268 17.997C48.4586 17.8101 48.2529 17.6606 48.0233 17.5582C47.7936 17.4558 47.545 17.4027 47.2935 17.4023H25.4535H25.4508ZM48.0482 22.7277L52.6162 27.8023H48.0482V22.7277Z" fill="#555555"/>
</svg>
