<svg width="80" height="80" viewBox="0 0 80 80" fill="none" xmlns="http://www.w3.org/2000/svg">
<path d="M61.9482 49.2041H58.4082V40C58.4082 38.8281 57.4561 37.876 56.2842 37.876H41.416V30.7959H44.9561C46.1279 30.7959 47.0801 29.8438 47.0801 28.6719V18.7598C47.0801 17.5879 46.1279 16.6357 44.9561 16.6357H35.0439C33.8721 16.6357 32.9199 17.5879 32.9199 18.7598V28.6719C32.9199 29.8438 33.8721 30.7959 35.0439 30.7959H38.584V37.876H23.7158C22.5439 37.876 21.5918 38.8281 21.5918 40V49.2041H18.0518C16.8799 49.2041 15.9277 50.1562 15.9277 51.3281V61.2402C15.9277 62.4121 16.8799 63.3643 18.0518 63.3643H27.9639C29.1357 63.3643 30.0879 62.4121 30.0879 61.2402V51.3281C30.0879 50.1562 29.1357 49.2041 27.9639 49.2041H24.4238V40.708H38.584V49.2041H35.0439C33.8721 49.2041 32.9199 50.1562 32.9199 51.3281V61.2402C32.9199 62.4121 33.8721 63.3643 35.0439 63.3643H44.9561C46.1279 63.3643 47.0801 62.4121 47.0801 61.2402V51.3281C47.0801 50.1562 46.1279 49.2041 44.9561 49.2041H41.416V40.708H55.5762V49.2041H52.0361C50.8643 49.2041 49.9121 50.1562 49.9121 51.3281V61.2402C49.9121 62.4121 50.8643 63.3643 52.0361 63.3643H61.9482C63.1201 63.3643 64.0723 62.4121 64.0723 61.2402V51.3281C64.0723 50.1562 63.1201 49.2041 61.9482 49.2041ZM35.752 19.4678H44.248V27.9639H35.752V19.4678ZM27.2559 52.0361V60.5322H18.7598V52.0361H27.2559ZM44.248 60.5322H35.752V52.0361H44.248V60.5322ZM61.2402 60.5322H52.7441V52.0361H61.2402V60.5322Z" fill="#555555"/>
<path d="M58.4082 40V49.2041H55.5762V40.708H41.416V49.2041H38.584V40.708H24.4238V49.2041H21.5918V40C21.5918 38.8281 22.5439 37.876 23.7158 37.876H38.584V30.7959H41.416V37.876H56.2842C57.4561 37.876 58.4082 38.8281 58.4082 40Z" fill="#425BB5"/>
</svg>
