<svg width="80" height="80" viewBox="0 0 80 80" fill="none" xmlns="http://www.w3.org/2000/svg">
<g clip-path="url(#clip0_11888_47950)">
<path d="M57.0231 37.0548C56.5415 37.2433 56.286 37.7673 56.4051 38.2705C56.7282 39.6362 56.8994 41.0606 56.8994 42.5251C56.8994 52.6943 48.6555 60.9381 38.4865 60.9381C28.3169 60.9381 20.073 52.6943 20.073 42.5251C20.073 32.3561 28.3169 24.1121 38.4865 24.1121C39.7896 24.1121 41.061 24.2477 42.2875 24.5052C42.7987 24.6125 43.3206 24.3373 43.4922 23.844L43.6637 23.351C43.8539 22.8042 43.5416 22.2083 42.976 22.0846C41.5298 21.7683 40.0276 21.6016 38.4865 21.6016C26.9302 21.6016 17.5625 30.9694 17.5625 42.5251C17.5625 54.0811 26.9302 63.449 38.4865 63.449C50.0422 63.449 59.4102 54.0811 59.4102 42.5251C59.4102 40.7977 59.2007 39.1193 58.8059 37.5136C58.6665 36.9468 58.0549 36.6511 57.5113 36.8638L57.0231 37.0548ZM38.4865 34.9925C38.5794 34.9925 38.6719 34.9942 38.7639 34.9976C39.2433 35.0152 39.7006 34.7451 39.8582 34.292L40.044 33.758C40.2439 33.1832 39.8877 32.5609 39.281 32.5131C39.0189 32.4924 38.754 32.4818 38.4865 32.4818C32.9397 32.4818 28.4429 36.9785 28.4429 42.5251C28.4429 48.0721 32.9397 52.5686 38.4865 52.5686C44.0336 52.5686 48.5302 48.0721 48.5302 42.5251C48.5302 42.2237 48.5168 41.9254 48.4907 41.6308C48.4362 41.0145 47.7922 40.667 47.216 40.8925L46.6778 41.1031C46.243 41.2732 45.9909 41.7216 46.0116 42.1881C46.0165 42.2998 46.019 42.4122 46.019 42.5251C46.019 46.6854 42.6466 50.0575 38.4866 50.0575C34.3264 50.0575 30.9535 46.6854 30.9535 42.5251C30.9535 38.365 34.3264 34.9925 38.4865 34.9925Z" fill="#555555" stroke="#555555"/>
<path d="M64.4489 25.7868H55.2256V16.5488L52.7148 19.091V19.1019L46.0364 25.7868H46.0193V33.2291L36.8125 42.4353L38.5771 44.1995L47.7841 34.9931H55.2256V34.9833L55.2348 34.9931L61.9211 28.3064L61.9115 28.2974H61.9211L64.4489 25.7868ZM54.269 32.4825H48.5305V26.7429L52.7148 22.5583V28.2973H58.4542L54.269 32.4825Z" fill="#425BB5" stroke="#425BB5" stroke-width="0.5"/>
</g>
<defs>
<clipPath id="clip0_11888_47950">
<rect width="48" height="48" fill="white" transform="translate(17 16)"/>
</clipPath>
</defs>
</svg>
