<svg width="80" height="80" viewBox="0 0 80 80" fill="none" xmlns="http://www.w3.org/2000/svg">
<path d="M61.6044 40.064L49.5526 33.7857C49.0868 33.5432 48.525 33.5822 48.0973 33.887L46.3405 35.1383V23.5526C46.3405 23.0978 46.1209 22.6714 45.7514 22.4082L39.3316 17.8354C38.9038 17.5307 38.3419 17.4916 37.8762 17.7341L18.3697 27.8959C17.9061 28.1374 17.6152 28.6176 17.6152 29.1415V48.4087C17.6152 49.1839 18.2418 49.8123 19.0147 49.8123C19.7876 49.8123 20.4141 49.1839 20.4141 48.4087V29.9942L38.4077 20.6205L43.5416 24.2773V37.8566V59.5781H20.4141V56.0583C20.4141 55.2831 19.7875 54.6547 19.0147 54.6547C18.2418 54.6547 17.6152 55.2831 17.6152 56.0583V60.9817C17.6152 61.7569 18.2418 62.3853 19.0147 62.3853H44.9411H60.9594C61.7323 62.3853 62.3588 61.7569 62.3588 60.9817V41.3096C62.3588 40.7858 62.0679 40.3055 61.6044 40.064ZM59.56 59.5781H46.3405V38.5813L49.0209 36.6721L59.56 42.1622V59.5781Z" fill="#555555" stroke="#555555" stroke-width="0.8"/>
<path d="M25.6162 35.6477H26.3159C27.0888 35.6477 27.7153 35.0193 27.7153 34.2441V33.5423C27.7153 32.7671 27.0888 32.1387 26.3159 32.1387H25.6162C24.8432 32.1387 24.2167 32.7671 24.2167 33.5423V34.2441C24.2167 35.0193 24.8432 35.6477 25.6162 35.6477Z" fill="#425BB5"/>
<path d="M31.7393 35.6477H32.439C33.2119 35.6477 33.8384 35.0193 33.8384 34.2441V33.5423C33.8384 32.7671 33.2119 32.1387 32.439 32.1387H31.7393C30.9664 32.1387 30.3398 32.7671 30.3398 33.5423V34.2441C30.3398 35.0193 30.9663 35.6477 31.7393 35.6477Z" fill="#425BB5"/>
<path d="M38.56 35.6477C39.333 35.6477 39.9595 35.0193 39.9595 34.2441V33.5423C39.9595 32.7671 39.3329 32.1387 38.56 32.1387H37.8604C37.0874 32.1387 36.4609 32.7671 36.4609 33.5423V34.2441C36.4609 35.0193 37.0875 35.6477 37.8604 35.6477H38.56Z" fill="#425BB5"/>
<path d="M24.2168 40.2148C24.2168 40.99 24.8433 41.6184 25.6163 41.6184H26.316C27.0889 41.6184 27.7155 40.99 27.7155 40.2148V39.513C27.7155 38.7378 27.0889 38.1094 26.316 38.1094H25.6163C24.8433 38.1094 24.2168 38.7377 24.2168 39.513V40.2148Z" fill="#425BB5"/>
<path d="M30.3398 40.2148C30.3398 40.99 30.9664 41.6184 31.7393 41.6184H32.439C33.2119 41.6184 33.8384 40.99 33.8384 40.2148V39.513C33.8384 38.7378 33.2119 38.1094 32.439 38.1094H31.7393C30.9664 38.1094 30.3398 38.7377 30.3398 39.513V40.2148Z" fill="#425BB5"/>
<path d="M24.2168 46.1854C24.2168 46.9607 24.8433 47.589 25.6163 47.589H26.316C27.0889 47.589 27.7155 46.9607 27.7155 46.1854V45.4836C27.7155 44.7084 27.0889 44.0801 26.316 44.0801H25.6163C24.8433 44.0801 24.2168 44.7084 24.2168 45.4836V46.1854Z" fill="#425BB5"/>
</svg>
