<svg width="80" height="80" viewBox="0 0 80 80" fill="none" xmlns="http://www.w3.org/2000/svg">
<path d="M59.5755 30.0878H47.3611V20.4085C47.3611 20.0336 47.2081 19.6673 46.9423 19.4052C46.6757 19.1403 46.3279 19 45.9378 19H35.12C34.3686 19 33.7546 19.5845 33.7209 20.3408C33.7209 21.1193 34.348 21.7608 35.1224 21.771H44.5355V39.4463H41.8986C41.1251 39.4582 40.4963 40.0997 40.4963 40.8765C40.4963 41.253 40.6423 41.6078 40.9073 41.8728C41.1681 42.1345 41.5295 42.2829 41.8978 42.2829H49.1149C49.8885 42.2829 50.5275 41.6566 50.5386 40.8781C50.5283 40.0878 49.9045 39.4582 49.1149 39.4463H47.3615V32.9043H58.174V58.1629H46.9197L46.9206 49.8261C46.9858 49.2806 46.7298 48.7388 46.2664 48.4414C46.0391 48.2979 45.7766 48.2236 45.5063 48.2236C45.2369 48.2236 44.9744 48.2979 44.7455 48.4431C44.2771 48.7421 44.0277 49.2855 44.0938 49.8343V58.1625H21.826L21.8157 42.406L21.8571 42.2657L22.0352 42.2825H29.2523C30.0258 42.2825 30.664 41.6562 30.6759 40.8777C30.6648 40.0857 30.041 39.4578 29.2523 39.4459L21.9425 39.4697L21.826 39.4816V21.8506L29.057 21.8588C29.5492 21.8588 30 21.6106 30.2608 21.1935C30.5529 20.7292 30.5529 20.1296 30.2608 19.6636C29.9996 19.2481 29.55 19 29.0599 19C29.0066 19 28.9529 19.0016 28.8766 19.0103H20.4245C20.0438 19.0103 19.6866 19.1571 19.4179 19.4274C19.1522 19.694 19 20.0639 19 20.4405V59.5698C19.0127 60.3618 19.6366 60.9897 20.4245 61H59.5776C60.3634 60.9881 60.9893 60.3618 61 59.5698V31.4979C60.9889 30.7194 60.3499 30.0878 59.5755 30.0878Z" fill="#555555" stroke="#555555" stroke-width="0.5"/>
<rect x="39.0879" y="38.1738" width="12.7826" height="5.47826" rx="2.73913" fill="#425BB5"/>
</svg>
