<svg width="80" height="80" viewBox="0 0 80 80" fill="none" xmlns="http://www.w3.org/2000/svg">
<path d="M59.4089 42.8172V40.5176L58.7692 40.5905L50.4699 42.0317V27.6191L48.1379 27.8864V41.8374L40.9155 39.6107C40.6202 39.5207 40.3013 39.551 40.0282 39.6951C39.7552 39.8392 39.5502 40.0854 39.458 40.38C39.369 40.6715 39.4013 40.9953 39.539 41.2706C39.6766 41.5459 39.9276 41.7484 40.2272 41.8374L48.1379 44.2746V57.9503L49.6602 58.3633L50.4618 58.2742V44.3961L58.2672 43.0358L58.9312 42.9143V42.8981L59.4089 42.8172Z" fill="#555555" stroke="#555555" stroke-width="0.5"/>
<path d="M58.2832 43.035L58.9472 42.9216V42.9136L58.2832 43.035ZM59.4087 42.8164L58.9391 42.8974V42.9135L59.4087 42.8245V42.8164H59.4087Z" fill="#555555" stroke="#555555" stroke-width="0.5"/>
<path d="M63.2792 42.1046V40.0723L59.4089 40.5095V42.8091L60.2672 42.6552L63.2792 42.1046ZM58.7774 40.5905L59.417 40.5176V40.4771L58.7773 40.5905H58.7774ZM59.4089 42.8253L58.9393 42.9143V42.9224L59.4089 42.8415V42.8253ZM58.9798 46.5013V46.5984L59.0283 46.5903V46.4932L58.9798 46.5013ZM60.2672 42.6633L59.4089 42.8172V42.8252L60.2672 42.6633Z" fill="#555555" stroke="#555555" stroke-width="0.5"/>
<path d="M33.0136 53.8925L32.7302 53.8196L33.0136 53.8925ZM33.0136 48.0627C33.0136 47.6498 32.7949 47.2611 32.4306 47.0506C32.0743 46.8401 31.629 46.8401 31.2646 47.0506C30.9002 47.2611 30.6816 47.6417 30.6816 48.0627V53.269L32.7302 53.8196L33.0136 53.8925V48.0627V48.0627ZM50.4786 58.2649L49.677 58.354L50.4786 58.5726V58.2649ZM62.8508 39.8281L59.361 40.484V42.8321L62.8508 42.2167V39.8281Z" fill="#555555" stroke="#555555" stroke-width="0.5"/>
<path d="M29.2324 28.2657C29.2324 29.0367 29.5386 29.776 30.0837 30.3211C30.6289 30.8663 31.3682 31.1725 32.1392 31.1725C32.9101 31.1725 33.6494 30.8663 34.1946 30.3211C34.7397 29.776 35.046 29.0367 35.046 28.2657C35.046 27.4948 34.7397 26.7554 34.1946 26.2103C33.6494 25.6652 32.9101 25.3589 32.1392 25.3589C31.3682 25.3589 30.6289 25.6652 30.0837 26.2103C29.5386 26.7554 29.2324 27.4948 29.2324 28.2657ZM18.9735 57.5848C18.9735 58.4673 18.4067 59.188 17.7104 59.188C17.014 59.188 16.4473 58.4673 16.4473 57.5848V22.6384C16.4473 21.7558 17.014 21.0352 17.7104 21.0352C18.4067 21.0352 18.9735 21.7477 18.9735 22.6384V57.5848ZM50.4706 59.3499C50.4706 60.2082 49.9524 60.9045 49.3047 60.9045C48.665 60.9045 48.1387 60.2082 48.1387 59.3499V25.3589C48.1387 24.5007 48.6569 23.8043 49.3047 23.8043C49.9443 23.8043 50.4706 24.5007 50.4706 25.3589V59.3499ZM33.0136 55.5201C33.0136 55.6577 32.4954 55.7711 31.8477 55.7711C31.208 55.7711 30.6817 55.6577 30.6817 55.5201V50.0627C30.6817 49.9251 31.1999 49.8117 31.8477 49.8117C32.4873 49.8117 33.0136 49.9251 33.0136 50.0627V55.5201H33.0136ZM63.28 57.5848C63.28 58.4673 62.7132 59.188 62.0169 59.188C61.3205 59.188 60.7538 58.4754 60.7538 57.5848V22.6384C60.7538 21.7558 61.3205 21.0352 62.0169 21.0352C62.7132 21.0352 63.28 21.7477 63.28 22.6384V57.5848V57.5848Z" fill="#555555" stroke="#555555" stroke-width="0.5"/>
<path d="M17.7253 59.1803C17.4014 59.237 17.0289 58.735 16.9075 58.0468C16.7861 57.3585 16.948 56.7594 17.2719 56.6946L30.2512 54.3303C30.5832 54.2736 30.9475 54.7757 31.069 55.4639C31.1905 56.1521 31.0285 56.7513 30.7046 56.8161L17.7253 59.1803ZM49.3358 61.6094C49.0119 61.6661 48.6394 61.1641 48.5179 60.4758C48.3965 59.7876 48.5585 59.1884 48.8823 59.1237L61.8617 56.7594C62.1937 56.7027 62.5581 57.2047 62.6795 57.8929C62.801 58.5812 62.639 59.1803 62.3152 59.2451L49.3358 61.6095V61.6094ZM49.3358 25.8857C49.0119 25.9424 48.6394 25.4403 48.5179 24.7521C48.3965 24.0639 48.5585 23.4647 48.8823 23.3999L61.8617 21.0356C62.1937 20.9789 62.5581 21.481 62.6795 22.1692C62.801 22.8574 62.639 23.4566 62.3152 23.5214L49.3358 25.8857Z" fill="#555555" stroke="#555555" stroke-width="0.5"/>
<path d="M43.0933 24.049C42.9394 24.0004 42.9719 23.4174 43.1824 22.7535C43.3848 22.0895 43.6844 21.5875 43.8382 21.6361L50.0729 23.5632C50.2267 23.6117 50.1943 24.1947 49.9838 24.8586C49.7814 25.5226 49.4818 26.0246 49.328 25.976L43.0933 24.049ZM30.1625 56.8011C29.6929 56.6796 29.4419 56.0319 29.62 55.3599C29.79 54.6797 30.3163 54.2344 30.7859 54.3558L49.5223 59.1411C49.9919 59.2626 50.2429 59.9104 50.0648 60.5824C49.8947 61.2626 49.3684 61.7079 48.8907 61.5864L30.1625 56.8011V56.8011Z" fill="#555555" stroke="#555555" stroke-width="0.5"/>
<path d="M29.2324 28.2681C29.2324 29.0391 29.5387 29.7784 30.0838 30.3235C30.6289 30.8687 31.3683 31.1749 32.1392 31.1749C32.9102 31.1749 33.6495 30.8687 34.1946 30.3235C34.7398 29.7784 35.046 29.0391 35.046 28.2681C35.046 27.4972 34.7398 26.7578 34.1946 26.2127C33.6495 25.6676 32.9102 25.3613 32.1392 25.3613C31.3683 25.3613 30.6289 25.6676 30.0838 26.2127C29.5387 26.7578 29.2324 27.4972 29.2324 28.2681Z" fill="#425BB5"/>
<path d="M32.7297 53.8133L30.6812 53.2628V53.9672L32.2358 53.6838L32.7297 53.8133ZM32.1386 21.8628C35.6689 21.8628 38.5433 24.7372 38.5433 28.2675C38.5433 29.2148 38.2923 30.2512 37.8469 31.1014C37.5392 31.6682 34.8997 35.4981 32.1548 39.417C29.6367 35.8543 26.7784 31.7492 26.4464 31.1176C25.9768 30.1784 25.7339 29.2229 25.7339 28.2594C25.7339 24.7372 28.6083 21.8628 32.1386 21.8628ZM23.3291 32.6965C23.8959 33.8301 29.1427 41.2226 30.7378 43.4655C31.0617 43.927 31.5961 44.2023 32.1629 44.2023H32.171C32.7378 44.2023 33.2722 43.927 33.5961 43.4574C35.1831 41.1983 40.4137 33.7491 40.9481 32.7208C41.6525 31.3605 42.0412 29.7816 42.0412 28.2756C42.033 22.8102 37.596 18.373 32.1386 18.373C26.6813 18.373 22.2441 22.8102 22.2441 28.2675C22.2441 29.7816 22.6085 31.2634 23.3291 32.6965Z" fill="#425BB5"/>
</svg>
