<svg width="80" height="80" viewBox="0 0 80 80" fill="none" xmlns="http://www.w3.org/2000/svg">
<g clip-path="url(#clip0_11888_47967)">
<path d="M42.3201 45.162C43.092 45.162 43.7678 45.8369 43.7678 46.6078C43.7678 47.3797 42.9959 48.0546 42.3201 48.0546H37.8828V50.2723C37.8828 51.1402 37.2079 51.7191 36.436 51.7191C35.6641 51.7191 34.9892 51.0442 34.9892 50.2723V48.0546H30.648C29.8761 48.0546 29.2012 47.3797 29.2012 46.6078C29.2012 45.8369 29.8761 45.162 30.648 45.162H34.9892V43.5222H30.648C29.8761 43.5222 29.2012 42.8473 29.2012 42.0754C29.2012 41.3045 29.8761 40.6296 30.648 40.6296H34.3254L31.4198 37.158C30.9379 36.5792 30.9379 35.6152 31.6128 35.1324C32.1917 34.6504 33.1565 34.6504 33.6385 35.3253L36.533 38.7009L39.4265 35.3253C39.9085 34.7474 40.8733 34.6504 41.4522 35.1324C42.0311 35.6152 42.128 36.5792 41.6452 37.158L38.6685 40.6296H42.3201C43.092 40.6296 43.7678 41.3045 43.7678 42.0754C43.7678 42.8473 42.9959 43.5222 42.3201 43.5222H37.8828V45.162H42.3201Z" fill="#425BB5"/>
<path d="M61.8068 43.7156C61.2279 45.0655 60.553 46.3193 59.6842 47.4762C59.4912 47.8621 59.1053 48.0551 58.6233 48.0551C58.3343 48.0551 58.0444 47.959 57.7554 47.7661C57.0796 47.2832 56.9836 46.4153 57.4655 45.7404C58.2374 44.7765 58.8163 43.6196 59.2982 42.5588C60.167 40.5331 60.553 38.4123 60.553 36.1937C60.553 27.1289 53.2212 19.8008 44.1536 19.8008C43.2848 19.8008 42.417 19.8968 41.6451 19.9938C39.4264 20.3797 37.4008 21.0546 35.4711 22.3084C34.6992 22.6934 33.8314 22.5005 33.3494 21.8255C32.9635 21.1506 33.1564 20.2827 33.8314 19.8008C36.05 18.451 38.4616 17.4861 41.0662 17.1002C42.031 16.9072 42.9959 16.9072 44.0567 16.9072C54.7649 16.9072 63.3505 25.587 63.3505 36.1937C63.3505 38.7973 62.8676 41.305 61.8068 43.7156ZM56.3077 43.2337C56.3077 54.1303 47.4331 63.0981 36.4359 63.0981C25.5347 63.0981 16.6602 54.1303 16.6602 43.2337C16.6602 32.3362 25.4387 23.4653 36.4359 23.4653C47.4331 23.4653 56.3077 32.3362 56.3077 43.2337ZM19.8547 43.2337C19.8547 52.3742 27.1902 59.8075 36.4341 59.8075C45.678 59.8075 53.1141 52.3742 53.1141 43.2337C53.1141 34.0932 45.678 26.6608 36.4341 26.6608C27.2908 26.6608 19.8547 34.0932 19.8547 43.2337Z" fill="#555555" stroke="#555555"/>
</g>
<defs>
<clipPath id="clip0_11888_47967">
<rect width="48" height="48" fill="white" transform="translate(16 16)"/>
</clipPath>
</defs>
</svg>
