<svg width="80" height="80" viewBox="0 0 80 80" fill="none" xmlns="http://www.w3.org/2000/svg">
<path d="M40 16C35.2533 16 30.6131 17.4076 26.6663 20.0447C22.7195 22.6819 19.6434 26.4302 17.8269 30.8156C16.0104 35.201 15.5351 40.0266 16.4612 44.6822C17.3872 49.3377 19.673 53.6141 23.0294 56.9706C26.3859 60.327 30.6623 62.6128 35.3178 63.5388C39.9734 64.4649 44.799 63.9896 49.1844 62.1731C53.5698 60.3566 57.3181 57.2805 59.9553 53.3337C62.5924 49.3869 64 44.7467 64 40C64 33.6348 61.4714 27.5303 56.9706 23.0294C52.4697 18.5286 46.3652 16 40 16ZM40 60.5575C35.9341 60.5575 31.9595 59.3518 28.5789 57.0929C25.1982 54.834 22.5633 51.6234 21.0074 47.867C19.4514 44.1106 19.0443 39.9772 19.8375 35.9894C20.6307 32.0017 22.5886 28.3387 25.4637 25.4636C28.3387 22.5886 32.0017 20.6307 35.9894 19.8375C39.9772 19.0443 44.1106 19.4514 47.867 21.0073C51.6234 22.5633 54.834 25.1982 57.0929 28.5789C59.3518 31.9595 60.5575 35.9341 60.5575 40C60.5496 45.4497 58.3811 50.674 54.5276 54.5276C50.674 58.3811 45.4498 60.5496 40 60.5575Z" fill="#555555"/>
<path d="M50.4483 27.6329C50.2682 27.4974 50.0632 27.3988 49.845 27.3427C49.6267 27.2867 49.3996 27.2744 49.1765 27.3065C48.9535 27.3385 48.739 27.4143 48.5454 27.5296C48.3518 27.6448 48.1828 27.7971 48.0483 27.9779L40.2183 38.4254H39.7833L31.9458 28.0004C31.6611 27.6703 31.2615 27.4608 30.8281 27.4144C30.3947 27.368 29.9599 27.4881 29.6117 27.7504C29.2636 28.0127 29.0282 28.3976 28.9533 28.827C28.8784 29.2564 28.9695 29.6982 29.2083 30.0629L35.5008 38.4254H32.2908C31.8372 38.4254 31.4023 38.6055 31.0816 38.9262C30.7609 39.2469 30.5808 39.6818 30.5808 40.1354C30.5808 40.5889 30.7609 41.0238 31.0816 41.3445C31.4023 41.6652 31.8372 41.8454 32.2908 41.8454H38.0733L38.2908 42.1304V44.3804H32.2908C31.8558 44.4092 31.4481 44.6022 31.1503 44.9205C30.8524 45.2387 30.6867 45.6582 30.6867 46.0941C30.6867 46.53 30.8524 46.9496 31.1503 47.2678C31.4481 47.586 31.8558 47.7791 32.2908 47.8079H38.2908V53.8079C38.2908 54.2614 38.4709 54.6963 38.7916 55.017C39.1123 55.3377 39.5472 55.5179 40.0008 55.5179C40.4543 55.5179 40.8892 55.3377 41.2099 55.017C41.5306 54.6963 41.7108 54.2614 41.7108 53.8079V47.8079H47.7108C48.1457 47.7791 48.5534 47.586 48.8512 47.2678C49.1491 46.9496 49.3148 46.53 49.3148 46.0941C49.3148 45.6582 49.1491 45.2387 48.8512 44.9205C48.5534 44.6022 48.1457 44.4092 47.7108 44.3804H41.7108V42.1304L41.9283 41.8454H47.7108C48.1643 41.8454 48.5992 41.6652 48.9199 41.3445C49.2406 41.0238 49.4208 40.5889 49.4208 40.1354C49.4208 39.6818 49.2406 39.2469 48.9199 38.9262C48.5992 38.6055 48.1643 38.4254 47.7108 38.4254H44.5008L50.8008 30.0329C51.0717 29.6677 51.1867 29.2099 51.1207 28.76C51.0546 28.3101 50.8128 27.9048 50.4483 27.6329Z" fill="#425BB5"/>
</svg>
