<svg width="80" height="80" viewBox="0 0 80 80" fill="none" xmlns="http://www.w3.org/2000/svg">
<g clip-path="url(#clip0_11888_47958)">
<path d="M36.8516 32.379C36.8516 31.9745 37.1795 31.6465 37.5841 31.6465H42.7871C43.1917 31.6465 43.5197 31.9745 43.5197 32.379C43.5197 32.7836 43.1917 33.1116 42.7871 33.1116H37.5841C37.1795 33.1116 36.8516 32.7836 36.8516 32.379Z" fill="#425BB5" stroke="#425BB5"/>
<path d="M25.1133 55.8771C25.1133 55.4725 25.4413 55.1445 25.8458 55.1445H31.0488C31.4534 55.1445 31.7814 55.4725 31.7814 55.8771C31.7814 56.2817 31.4534 56.6096 31.0488 56.6096H25.8458C25.4413 56.6096 25.1133 56.2817 25.1133 55.8771ZM48.2282 55.8771C48.2282 55.4725 48.5562 55.1445 48.9608 55.1445H54.1638C54.5683 55.1445 54.8963 55.4725 54.8963 55.8771C54.8963 56.2817 54.5683 56.6096 54.1638 56.6096H48.9608C48.5562 56.6096 48.2282 56.2817 48.2282 55.8771Z" fill="#425BB5" stroke="#425BB5"/>
<rect x="31.5" y="19.5" width="17" height="17" rx="1.5" stroke="#555555" stroke-width="3"/>
<rect x="19.5" y="43.5" width="17" height="17" rx="1.5" stroke="#555555" stroke-width="3"/>
<rect x="43.5" y="43.5" width="17" height="17" rx="1.5" stroke="#555555" stroke-width="3"/>
</g>
<defs>
<clipPath id="clip0_11888_47958">
<rect width="44" height="44" fill="white" transform="translate(18 18)"/>
</clipPath>
</defs>
</svg>
