<svg width="80" height="80" viewBox="0 0 80 80" fill="none" xmlns="http://www.w3.org/2000/svg">
<path d="M38.5022 35.6219C38.5022 34.3689 39.1602 33.9944 40.5042 33.9944C41.6627 33.9944 42.6322 34.4949 43.7592 35.4959L46.4157 32.4299C45.1771 31.0581 43.5127 30.1433 41.6907 29.8329V26.6094H38.1872V29.9029C35.1737 30.5574 33.3677 32.7064 33.3677 35.8704C33.3677 41.3479 41.4422 41.6909 41.4422 44.1969C41.4422 45.4184 40.8157 45.9469 39.2512 45.9469C37.9387 45.9469 36.6227 45.4464 34.9322 44.1969L32.6152 47.8264C34.1727 49.2264 36.3917 49.9509 38.1837 50.1679V53.3319H41.6872V49.9684C44.9562 49.1914 46.5697 46.8324 46.5697 43.8189C46.5732 38.1244 38.5022 37.9984 38.5022 35.6219Z" fill="#425BB5"/>
<path d="M39.9992 17.0752C27.3572 17.0752 17.0742 27.3617 17.0742 40.0002C17.0742 52.6387 27.3572 62.9252 39.9992 62.9252C52.6412 62.9252 62.9242 52.6422 62.9242 40.0002C62.9242 27.3582 52.6412 17.0752 39.9992 17.0752ZM39.9992 59.4252C34.8488 59.4206 29.9107 57.3725 26.2688 53.7306C22.6269 50.0887 20.5789 45.1506 20.5742 40.0002C20.5742 29.2902 29.2892 20.5752 39.9992 20.5752C50.7092 20.5752 59.4242 29.2902 59.4242 40.0002C59.4242 50.7137 50.7092 59.4252 39.9992 59.4252Z" fill="#555555"/>
</svg>
