<svg width="80" height="80" viewBox="0 0 80 80" fill="none" xmlns="http://www.w3.org/2000/svg">
<path d="M29.8147 41.577H40.5918V45.257H29.8147V41.577ZM33.3304 28.0727H43.9761C44.9494 28.0641 45.8805 27.6736 46.5688 26.9854C47.2571 26.2971 47.6475 25.366 47.6561 24.3927V21.9612C47.6561 19.9241 46.0132 18.2812 43.9761 18.2812H33.3304C31.2932 18.2812 29.6504 19.9241 29.6504 21.9612V24.4255C29.6504 26.4298 31.2932 28.0727 33.3304 28.0727ZM33.3304 21.9612H43.9761V24.4255H33.3304V21.9612ZM29.8147 34.217H47.689V37.897H29.8147V34.217Z" fill="#555555"/>
<path d="M23.6702 57.0852V25.6409H27.2845V21.9609H23.6702C21.6331 21.9609 19.9902 23.6038 19.9902 25.6409V57.1181C19.9902 59.1552 21.6331 60.7981 23.6702 60.7981H38.7517V57.0852H23.6702ZM57.3488 25.6409C57.3488 23.6038 55.706 21.9609 53.6688 21.9609H50.2517V25.6409H53.6688V42.2995H57.3488V25.6409Z" fill="#555555"/>
<path d="M51.3354 44.4023L60.0096 53.0766L51.3354 61.7181L48.7396 59.1223L52.9782 54.8838H42.5625V51.2038H52.9454L48.7396 46.9981L51.3354 44.4023Z" fill="#425BB5"/>
</svg>
