<svg width="63" height="63" fill="none" xmlns="http://www.w3.org/2000/svg"><path opacity=".6" fill-rule="evenodd" clip-rule="evenodd" d="M29.583 31.287c0 .437-.391.842-.8.82C3.958 31.313-.28 46.43.3 50.776c.219 1.289.43 2.358 1.174 3.262 1.48 1.481 3.54 1.481 5.302.591l2.059-.89-.591 2.366c-.288 1.774-.588 4.149.89 5.633.875.887 2.346 1.478 3.528 1.186 5.19 0 18.816-5.122 18.022-28.93-.054-.554.415-.881.828-.893.479.012.87.38.81.896-.787 23.805 13.117 28.927 18.02 28.927 1.61-.018 2.645-.3 3.527-1.186 1.473-1.484 1.18-3.858.885-5.633l-.585-2.366 2.056.89c1.775.89 3.84.89 5.304-.59.625-.78.973-1.988 1.176-3.263.575-4.353-3.52-19.511-28.405-18.695-.433.047-.812-.37-.812-.802 0-.42.304-.903.955-.841C57.947 31.146 63 17.401 63 12.492c0-1.194-.295-2.672-1.182-3.565-1.99-2.002-5.041-.58-7.734-.081 1.014-2.381 2.356-5.343.085-7.615C53.293.339 52.108.05 50.93.05 46.618-.532 31.69 3.683 32.341 28.4c-.053.629-.55.823-.815.823-.274 0-.808-.153-.857-.823C31.315 3.683 16.386-.532 12.07.05c-1.187 0-2.349.29-3.236 1.18-2.23 2.235-.657 5.11.113 7.59-2.43-.2-5.447-1.83-7.474.107C.3 9.82 0 11.297 0 12.493.287 17.4 5.133 31.15 28.618 30.445a.865.865 0 0 1 .965.842Z" fill="url(#a)"/><defs><linearGradient id="a" x1="0" y1="6.632" x2="63" y2="6.632" gradientUnits="userSpaceOnUse"><stop stop-color="#316BD8" stop-opacity=".08"/><stop offset="1" stop-color="#316BD8" stop-opacity="0"/></linearGradient></defs></svg>