<svg width="18" height="18" fill="none" xmlns="http://www.w3.org/2000/svg"><path d="M8.998 16.287a7.283 7.283 0 0 1-7.28-7.286 7.283 7.283 0 0 1 7.28-7.286A7.284 7.284 0 0 1 16.28 9 7.284 7.284 0 0 1 9 16.287Zm2.94-8.74L9.423 5.022a.472.472 0 0 0-.239-.186.445.445 0 0 0-.174-.03l-.012-.002-.016.003a.475.475 0 0 0-.41.218L6.06 7.547c-.177.177-.163.477.03.67.194.194.486.2.663.022.014-.014.028-.023.04-.04l1.712-1.706.004 6.545c-.002.018 0 .034 0 .053 0 .236.21.426.484.426.273 0 .496-.19.496-.426l.006-6.599L11.207 8.2c.011.016.025.025.039.04.177.177.47.171.662-.022.194-.194.208-.494.03-.671Z" fill="#316BD8"/></svg>