<svg version="1.1" id="图层_1" xmlns="http://www.w3.org/2000/svg" x="0" y="0" viewBox="0 0 128 41" style="enable-background:new 0 0 128 41" xml:space="preserve"><style>.st0{fill-rule:evenodd;clip-rule:evenodd;fill:#fff}</style><path class="st0" d="M59.5 28.7c.8 0 1.7.5 1.8 1.6h.2v-2.2c-.6-.3-1.3-.5-1.9-.5-2.1 0-3.5 1.6-3.5 4.2 0 2.1 1.2 3.8 3 3.8.7 0 1.3-.3 2-1l.2.8h.6v-2.6c0-.6.2-.7.5-.7v-.2h-2.5v.3c.5 0 .7 0 .7.5v.9c0 .5-.4.9-1.1.9-1.2 0-1.8-1.6-1.8-3-.2-1.5.3-2.8 1.8-2.8zM63.1 35.5v.2h2.6v-.2c-.6-.1-.7-.3-.7-.7v-5.9h.7c.9 0 1.5.3 1.5 1.3 0 1.1-.6 1.4-2 1.7.6 1.2 1.4 2.5 2 3.9h2.1v-.3c-.3.1-.5-.1-.7-.4l-1.6-3c1.4-.5 1.7-1.4 1.7-2.4 0-1.4-.9-2.1-2-2.1h-3.6v.2c.3 0 .4.2.4.5v6.2c0 .6-.1.8-.4 1z"/><path class="st0" d="M69.3 35.4v.2h6.1l.1-2.4h-.2c-.2 1.2-.5 1.4-1 1.4h-2.7v-2.5h1.6c.5 0 .6.2.7.6h.2v-2.4h-.2c-.1.4-.2.6-.7.6h-1.6v-2.1h2.5c.6 0 .8.2.9.8h.2l-.1-2h-5.9v.2c.5 0 .6.2.6.5v6.6c.1.3 0 .5-.5.5zM76.4 35.4v.2h6.1l.1-2.4h-.2c-.2 1.2-.5 1.4-1 1.4h-2.6v-2.5h1.6c.5 0 .6.2.7.6h.1v-2.4H81c-.1.4-.2.6-.7.6h-1.6v-2.1h2.5c.6 0 .8.2.9.8h.2l-.1-2h-5.9v.2c.5 0 .6.2.6.5v6.6c.1.3 0 .5-.5.5zM83.5 35.5v.2h1.9v-.2c-.3 0-.6-.1-.6-.7v-5.3l3.4 6.3h1.1v-7.2c0-.4.1-.5.4-.5v-.3h-1.9v.3c.2 0 .6 0 .6.6V33l-2.8-5.4h-2.1v.3c.3 0 .4.1.4.5v6.5c0 .3-.1.6-.4.6zM94.7 28.8c.7 0 .9.4 1 1.3h.3l-.1-2.5h-6.1v2.5h.2c.1-.9.3-1.3.9-1.3H92v5.9c0 .5-.3.7-.7.7v.2h3.1v-.2c-.3 0-.8-.2-.8-.7v-5.9h1.1zM98.4 31.1c0-1 .3-2.3 1.5-2.3h.1c1.3.2 1.7 2.1 1.7 3.3 0 1.3-.5 2.3-1.5 2.3h-.2c-1.3-.1-1.6-2-1.6-3.3zm4.7.5c0-2.1-1.1-4-3.1-4-1.7 0-3.1 1.7-3.1 3.9 0 2.1 1.2 4.1 3.1 4.1 1.7 0 3.1-1.5 3.1-4zM105.6 27.9v-.3h-2.5v.2c.4.1.5.2.7.9l1.6 6.9h1.2l.9-4.3 1 4.3h1.1l1.7-7c.1-.5.3-.7.6-.7v-.3h-2v.3c.2 0 .5 0 .5.4 0 .2-.1.5-.2.8l-.9 4.4-.9-4.6c0-.2-.1-.4-.1-.6 0-.3.2-.4.6-.4v-.3h-2.8v.3c.4 0 .6.1.7.6l.3 1.3-.8 3.6-.9-4.1c-.1-.4-.2-.8-.2-1.1 0-.3.2-.3.4-.3zM112.8 35.5v.2h1.9v-.2c-.3 0-.6-.1-.6-.7v-5.3l3.4 6.3h1.1v-7.2c0-.4.1-.5.5-.5v-.3h-2v.3c.2 0 .6 0 .6.6V33l-2.8-5.4h-2.1v.3c.3 0 .4.1.4.5v6.5c0 .3-.1.6-.4.6zM47.1 25.8H127V24H47.1v1.8zM47.1 40.1H127v-1.8H47.1v1.8zM28 33.7c-9.5 0-17.3-7.7-17.3-17.2 0-7.6 5.1-14.1 12-16.4-.7-.1-1.3-.1-2-.1C9.4 0 .1 9.2.1 20.5S9.4 41 20.7 41c8.1 0 15-4.6 18.4-11.4-3 2.5-6.9 4.1-11.1 4.1z"/><path class="st0" d="M32.6 16c-.2 0-.3-.2-.3-.3 0-.2.1-.3.3-.3 8.8.3 10.2-5.1 10-6.6-.1-.5-.2-.8-.4-1.2-.5-.5-1.2-.5-1.9-.2l-.7.3.2-.8c.1-.6.2-1.5-.3-2-.3-.3-.8-.5-1.2-.4-1.8 0-6.6 1.8-6.4 10.2 0 .2-.1.3-.3.3-.2 0-.3-.1-.3-.3.3-8.4-4.6-10.2-6.4-10.2-.6 0-.9.1-1.2.4-.5.5-.4 1.4-.3 2l.2.8-.7-.3c-.6-.3-1.4-.3-1.9.2-.2.3-.3.7-.4 1.2-.2 1.5 1.2 6.9 10 6.6.2 0 .3.1.3.3 0 .1-.1.3-.3.3-8.3-.2-10.1 4.6-10.1 6.3 0 .4.1.9.4 1.3.7.7 1.8.2 2.7 0-.4.8-.8 1.9 0 2.7.3.3.7.4 1.1.4 1.5.2 6.8-1.3 6.6-10 0-.2.2-.3.3-.3.1 0 .3.1.3.3-.2 8.7 5 10.2 6.6 10 .4 0 .8-.1 1.1-.4.8-.8.2-1.8 0-2.7.9.1 1.9.6 2.6 0 .4-.3.5-.8.5-1.3-.1-1.7-1.8-6.6-10.1-6.3zM56.7 15.4c-.5-.8-1-1.7-1.8-2.6.7-.4 1.3-.8 1.7-1.1l1.2 1.5.6.8c-.4.4-.7.6-.8.6-.2.1-.3.2-.4.3 0 0-.1.1-.2.1-.1.2-.2.3-.3.4zm4.9-5.9.2-1c-3.1 0-5.1 0-6 .1v-2H62l.1-1.1-6.7.1V3.4c3.3.1 6.4.1 9.1 0-.1.7-.4 2.7-.8 6.1l2.4-.1v2.1l-4.8-.1c0 .3.1.8.3 1.6.1.3.3.7.4 1.2.6-.7 1.1-1.4 1.6-2.3l1.8 1.5-2 2.6c.9 1.1 2 1.9 3.3 2.3-.1.1-.1.2-.2.4l-.8 1.3c-.2.2-.3.4-.3.5-1.7-.9-3-2.1-4-3.6v3c0 .4-.1.6-.2.8-.2.3-1.2.5-2.8.6-.1-.5-.4-1.3-.8-2.3.8.1 1.3.1 1.5 0 .1-.1.2-.3.2-.6v-7l-4.9.1V9.4l7.2.1zm-7.2 8.9c-1.5.6-3.2 1.3-5.2 2.2-.3-.7-.6-1.5-1-2.2 1.2-.2 3.3-1 6.4-2.2-.1.5-.1 1.1-.2 1.6 1.1-.6 2.4-1.5 3.7-2.8.2.6.4 1.2.7 2-.9.7-2 1.8-3.5 3.2-.3-.9-.7-1.6-1-2.1.1 0 .1.1.1.3zm-5.7-2.8c-.2-.8-.3-1.5-.5-2 .7-.7 1.6-1.7 2.5-3.2l-2.3.1c-.1-.9-.2-1.6-.4-2.1 1.3-1.2 2.4-3.1 3.4-5.6.6.2 1.3.6 2.2 1-1.1 1.8-2.1 3.3-3.1 4.8H52c.6-1.1 1.1-2 1.5-2.8l2 1.3c-.2.3-.5.6-.7 1-1.3 1.9-2.5 3.6-3.7 5.1.8-.1 1.9-.2 3.6-.5-.2.4-.3.8-.4 1.4 0 .2 0 .4-.1.7-.5.1-.8.1-1.1.1l-1.7.3-2.7.4zM81.9 4c.7-.5 1.3-.9 1.6-1.2.9.8 1.6 1.6 2.1 2.2-.7.5-1.3 1-1.7 1.5-.7-1-1.3-1.9-2-2.5zm-5.4 8.6c-.1 1.3-.2 2.3-.3 3-.4 2.1-1.5 4-3.4 5.7-.4-.6-1-1.1-1.9-1.5 1.7-1 2.7-2.6 3.1-4.5.1-.7.2-2.5.2-5.2L74 6.4l5.2.1c0-.9-.1-2.2-.2-3.8.9.2 1.8.2 2.5.1-.1 1-.1 2.3-.1 3.7l4.6-.1v2.2c-1.6-.1-3.1-.1-4.5 0 0 .9.2 2 .4 3.4.1.8.3 1.4.4 1.7.5-1.4.8-2.7.9-4 .8.3 1.6.6 2.4.8-.6 2-1.3 4-2.4 6.2.1.3.2.5.2.5.4.6.7.9.8.9.1 0 .2-.1.4-.3.2-.2.3-.6.5-1 .5.5 1.1.9 1.8 1.3-.1.2-.1.3-.2.4-.5 1.4-1.1 2.4-1.8 2.8h-.2c-.9-.2-1.9-1.1-3-2.6-1.5 1.4-2.6 2.2-3.4 2.7-.3-.6-.9-1.2-1.6-1.9 1.4-.5 2.7-1.5 3.9-3-.7-2.4-1.2-5.1-1.5-7.9h-2.9v2.1h3l-.1 1.9c0 1.8 0 3.1-.1 3.8-.1.7-.5 1.3-1 1.6-.5.3-1 .5-1.5.6-.1-.7-.4-1.4-.7-2.1.3 0 .5 0 .6-.1.4-.1.6-.3.7-.7.1-.4.1-1.4.1-3h-.7zm-6.6-3.5h-2V7c.8 0 1.4.1 2 .1l-.1-4.2h2.4c-.1.8-.1 2.2-.1 4.2.3 0 .8 0 1.5-.1v2.2h-1.5v4.6l1.1-.3c.1-.1.3-.1.4-.2-.1.4-.1 1.1-.1 2.2-.5.1-.7.2-.8.2-2.4.7-3.8 1.2-4 1.4-.2.1-.3.1-.5.2-.1-.2-.3-1.1-.8-2.5.9-.1 1.6-.3 2.3-.4V9.1zM100.3 12.4h4.5V8.8h-4.5v3.6zm-7 0h4.4V8.8h-4.4v3.6zm-2.6.4V8.4l-.1-2.1 2.1.1h4.9l-.1-3.7h2.9c-.1 1.1-.1 2.3-.1 3.7h5l2.1-.1-.1 2.1v4.5l.1 2.4h-2.7V15h-4.5v4l.1 2.4h-2.9l.1-2.4v-4h-4.4v.3h-2.7l.3-2.5zM122.6 15.6c-.3-.5-.9-1.1-1.7-1.8.4-.3.7-.6 1.1-.9h-1.3v2.6h1.9zm-4.3 0V13h-3.8v-2.2c1.1 0 2.4.1 3.8.1V9c-1.7 0-3.1 0-4.3.1V6.9c3.5.1 7.1.1 10.9 0v2.2c-.7-.1-2.1-.1-4.2-.1v1.9c1.6 0 2.9 0 3.7-.1V13l-1.5-.1.6.6 1.1 1.1-.9 1h1.5v2.1c-3.4-.1-7.2-.1-11.4 0v-2.1h4.5zm-4.8 3.3h12V5.8h-12v13.1zm-2-15.3H128c-.1.6-.1 1.2-.1 1.8l.1 16h-2.5V21h-12v.3h-2.4V3.6h.4z"/></svg>