<svg width="80" height="80" fill="none" xmlns="http://www.w3.org/2000/svg"><rect width="80" height="80" rx="8" fill="#007144"/><path fill-rule="evenodd" clip-rule="evenodd" d="M47.739 55.508c-11.157 0-20.248-9.061-20.248-20.175 0-8.942 5.94-16.554 14.066-19.212C40.706 16 39.98 16 39.252 16 25.915 16 15 26.753 15 40.042 15 53.334 25.915 64.09 39.252 64.09c9.454 0 17.582-5.437 21.582-13.413a20.09 20.09 0 0 1-13.095 4.831Z" fill="#fff"/><path fill-rule="evenodd" clip-rule="evenodd" d="M53.17 34.728a.358.358 0 0 1-.398-.348c0-.18.16-.35.329-.34 10.264.328 12.015-5.941 11.775-7.745-.093-.534-.177-.978-.485-1.353-.613-.614-1.463-.614-2.192-.247l-.85.37.242-.983c.121-.735.244-1.72-.366-2.334-.363-.368-.973-.614-1.459-.493-2.143 0-7.779 2.126-7.451 12 .023.231-.173.367-.342.372-.197-.005-.358-.158-.335-.372.325-9.875-5.423-12-7.45-12-.663.009-1.09.125-1.458.493-.61.614-.486 1.599-.363 2.334l.24.984-.85-.37c-.733-.368-1.586-.368-2.193.246-.257.323-.401.825-.485 1.353-.24 1.805 1.456 8.093 11.741 7.756.18-.02.338.151.338.333a.345.345 0 0 1-.396.348c-9.717-.293-11.804 5.41-11.804 7.445 0 .494.12 1.107.486 1.477.823.832 2.086.242 3.198.034-.418.988-.971 2.217-.035 3.159.364.37.854.492 1.34.492 1.782.24 7.955-1.51 7.684-11.762a.348.348 0 0 1 .337-.341c.113 0 .334.063.355.34-.268 10.252 5.904 12.003 7.686 11.763.49 0 .973-.122 1.34-.492.919-.928.27-2.119-.047-3.148 1.003.083 2.25.758 3.09-.045.484-.37.608-.983.608-1.477-.12-2.036-2.12-7.741-11.83-7.449Z" fill="#fff"/></svg>