<svg xmlns="http://www.w3.org/2000/svg" viewBox="0 0 158 159" style="enable-background:new 0 0 158 159" xml:space="preserve">
    <linearGradient id="a" gradientUnits="userSpaceOnUse" x1="63.195" y1="64.85" x2="157.673" y2="159.327">
        <stop offset="0" style="stop-color:#316bd8;stop-opacity:0.06" />
        <stop offset="1" style="stop-color:#316bd8;stop-opacity:0" />
    </linearGradient>
    <path d="M158 159V22.7c-6.4-8-10.7-21.3-22.3-21.6-6.2-.8-11.5 2.7-15.1 6.3-13.9 15.6-40.6 71.4 32 139.8 2 1.7 1.6 4.2.4 5.4-1.3 1.3-3.7 1.4-4.9.1C76 75.8 17.9 108.5 6.6 123.3c-3.2 4.5-5.8 8.4-6.3 13.3 0 8.9 6.2 15.1 14.1 17.7l8.8 3.5-2 1.2H158z"
          style="fill-rule:evenodd;clip-rule:evenodd;fill:url(#a)" />
</svg>