<svg width="23" height="34" viewBox="0 0 23 34" fill="none" xmlns="http://www.w3.org/2000/svg">
<path d="M11.8127 8.39844H13.9056C14.5773 8.39844 14.8259 8.39844 15.1636 9.65645L16.2547 13.5938C16.4216 14.2654 15.5013 14.8518 14.5773 14.8518H11.7273V14.2654H14.158C14.9113 14.2654 15.6646 13.7645 15.4976 13.2598L14.5773 10.0758C14.325 9.07012 14.0763 9.07012 13.5716 9.07012H11.8943V8.39844H11.8127ZM9.71969 8.39844H11.8127V8.98477H10.1353C9.382 8.98477 9.29664 9.31875 9.12965 9.99043L8.20934 13.1744C8.04235 13.6754 8.79567 14.1801 9.54899 14.1801H11.8127V14.7664H8.96266C8.04235 14.7664 7.11832 14.1801 7.28532 13.5084L8.37633 9.57109C8.71403 8.81777 8.79567 8.39844 9.71969 8.39844Z" fill="#BDBDBD"/>
<path d="M11.8135 33.6191C17.7621 33.6191 22.7051 28.7578 22.7051 22.7275C22.7051 16.7789 17.8438 11.8359 11.8135 11.8359C5.86484 11.8359 0.921875 16.6973 0.921875 22.7275C1.00352 28.7578 5.86484 33.6191 11.8135 33.6191Z" fill="#CACACA"/>
<path d="M11.8168 31.1883C16.4258 31.1883 20.1961 27.418 20.1961 22.809C20.1961 18.2 16.4258 14.4297 11.8168 14.4297C7.20781 14.4297 3.4375 18.2 3.4375 22.809C3.4375 27.418 7.20781 31.1883 11.8168 31.1883Z" fill="#DFDFDF"/>
<path d="M11.8168 14.4297C14.1621 14.4297 16.3404 15.4354 17.8508 16.942C17.8508 21.551 14.0805 25.3213 9.47148 25.3213C7.12617 25.3213 4.94785 24.3156 3.4375 22.809C3.4375 18.2 7.20781 14.4297 11.8168 14.4297Z" fill="#F7F7F7"/>
<path d="M5.19531 0.382812H18.5213V6.22012L13.9123 9.65273H9.8043L5.19531 6.22012V0.382812Z" fill="#D7CEB8"/>
<path d="M6.70312 0.382812H9.13379V9.15176L6.70312 7.39277V0.382812ZM10.6404 0.382812H13.0711V9.65273H10.6404V0.382812ZM14.5777 0.382812H17.0084V7.39277L14.5777 9.15176V0.382812Z" fill="#F2EEDD"/>
<path d="M11.7134 17.8705C10.6494 17.8705 9.78138 18.2205 9.13738 18.9485C8.50738 19.6205 8.18538 20.5165 8.17138 21.6365H9.69738C9.72538 20.8245 9.89338 20.2225 10.2294 19.8025C10.5514 19.3685 11.0274 19.1585 11.6574 19.1585C12.2454 19.1585 12.7074 19.2985 13.0154 19.5785C13.3234 19.8585 13.4774 20.2785 13.4774 20.8385C13.4774 21.4265 13.2394 21.9725 12.7914 22.4765C12.5114 22.7705 12.0354 23.1485 11.3634 23.6245C10.2294 24.4085 9.47338 25.0105 9.10938 25.4445C8.43738 26.2005 8.11538 27.0685 8.11538 28.0625H15.0034V26.7185H10.0054C10.2154 26.1725 10.8594 25.5425 11.9374 24.8285C12.9314 24.1565 13.6174 23.6245 14.0094 23.2185C14.6534 22.5045 14.9894 21.7205 14.9894 20.8525C14.9894 19.9705 14.6814 19.2565 14.0794 18.6965C13.4634 18.1365 12.6654 17.8705 11.7134 17.8705Z" fill="#7C7C7C"/>
</svg>
