<svg width="23" height="34" viewBox="0 0 23 34" fill="none" xmlns="http://www.w3.org/2000/svg">
<path d="M11.8127 8.39844H13.9056C14.5773 8.39844 14.8259 8.39844 15.1636 9.65645L16.2547 13.5938C16.4216 14.2654 15.5013 14.8518 14.5773 14.8518H11.7273V14.2654H14.158C14.9113 14.2654 15.6646 13.7645 15.4976 13.2598L14.5773 10.0758C14.325 9.07012 14.0763 9.07012 13.5716 9.07012H11.8943V8.39844H11.8127ZM9.71969 8.39844H11.8127V8.98477H10.1353C9.382 8.98477 9.29664 9.31875 9.12965 9.99043L8.20934 13.1744C8.04235 13.6754 8.79567 14.1801 9.54899 14.1801H11.8127V14.7664H8.96266C8.04235 14.7664 7.11832 14.1801 7.28532 13.5084L8.37633 9.57109C8.71403 8.81777 8.79567 8.39844 9.71969 8.39844Z" fill="#FFD96B"/>
<path d="M11.8135 33.6191C17.7621 33.6191 22.7051 28.7578 22.7051 22.7275C22.7051 16.7789 17.8438 11.8359 11.8135 11.8359C5.86484 11.8359 0.921875 16.6973 0.921875 22.7275C1.00352 28.7578 5.86484 33.6191 11.8135 33.6191Z" fill="#B18652"/>
<path d="M11.8168 31.1883C16.4258 31.1883 20.1961 27.418 20.1961 22.809C20.1961 18.2 16.4258 14.4297 11.8168 14.4297C7.20781 14.4297 3.4375 18.2 3.4375 22.809C3.4375 27.418 7.20781 31.1883 11.8168 31.1883Z" fill="#E1B57F"/>
<path d="M11.8168 14.4297C14.1621 14.4297 16.3404 15.4354 17.8508 16.942C17.8508 21.551 14.0805 25.3213 9.47148 25.3213C7.12617 25.3213 4.94785 24.3156 3.4375 22.809C3.4375 18.2 7.20781 14.4297 11.8168 14.4297Z" fill="#FCDFBD"/>
<path d="M5.19531 0.382812H18.5213V6.22012L13.9123 9.65273H9.8043L5.19531 6.22012V0.382812Z" fill="#D8996B"/>
<path d="M6.70312 0.382812H9.13379V9.15176L6.70312 7.39277V0.382812ZM10.6404 0.382812H13.0711V9.65273H10.6404V0.382812ZM14.5777 0.382812H17.0084V7.39277L14.5777 9.15176V0.382812Z" fill="#F7DBD2"/>
<path d="M11.6574 17.8705C10.6774 17.8705 9.87938 18.1365 9.26338 18.6965C8.60538 19.2565 8.24138 20.0265 8.15738 21.0205H9.65538C9.71138 20.4045 9.92138 19.9425 10.2574 19.6345C10.5934 19.3265 11.0694 19.1725 11.6714 19.1725C12.2594 19.1725 12.7214 19.2985 13.0294 19.5785C13.3094 19.8445 13.4634 20.2225 13.4634 20.7265C13.4634 21.2305 13.2954 21.6225 12.9874 21.8885C12.6794 22.1545 12.2174 22.2945 11.6014 22.2945H10.8874V23.4425H11.6154C12.2734 23.4425 12.7774 23.5825 13.1134 23.8625C13.4774 24.1425 13.6594 24.5765 13.6594 25.1645C13.6594 25.6685 13.4774 26.0745 13.1414 26.4105C12.7494 26.7745 12.2314 26.9705 11.5874 26.9705C10.9994 26.9705 10.5234 26.8025 10.1594 26.4665C9.73938 26.1025 9.52938 25.5845 9.50138 24.9125H7.96138C8.04538 26.0325 8.43738 26.8865 9.13738 27.4745C9.75338 27.9925 10.5794 28.2585 11.6014 28.2585C12.6654 28.2585 13.5474 27.9505 14.2194 27.3625C14.8494 26.7745 15.1714 26.0185 15.1714 25.0945C15.1714 24.5065 15.0034 24.0165 14.6674 23.6385C14.3594 23.2745 13.9114 22.9945 13.3234 22.8125C14.4154 22.4485 14.9754 21.7065 14.9754 20.6145C14.9754 19.7605 14.6674 19.0885 14.0794 18.5985C13.4634 18.1085 12.6654 17.8705 11.6574 17.8705Z" fill="#8E693D"/>
</svg>
