<svg width="23" height="34" viewBox="0 0 23 34" fill="none" xmlns="http://www.w3.org/2000/svg">
<path d="M11.8127 8.28906H13.9056C14.5773 8.28906 14.8259 8.28906 15.1636 9.54707L16.2547 13.4844C16.4216 14.1561 15.5013 14.7424 14.5773 14.7424H11.7273V14.1561H14.158C14.9113 14.1561 15.6646 13.6551 15.4976 13.1504L14.5773 9.96641C14.325 8.96074 14.0763 8.96074 13.5716 8.96074H11.8943V8.28906H11.8127ZM9.71969 8.28906H11.8127V8.87539H10.1353C9.382 8.87539 9.29664 9.20937 9.12965 9.88105L8.20934 13.065C8.04235 13.566 8.79567 14.0707 9.54899 14.0707H11.8127V14.657H8.96266C8.04235 14.657 7.11832 14.0707 7.28532 13.399L8.37633 9.46172C8.71403 8.7084 8.79567 8.28906 9.71969 8.28906Z" fill="#FFD96B"/>
<path d="M11.8135 33.5098C17.7621 33.5098 22.7051 28.6484 22.7051 22.6182C22.7051 16.6695 17.8438 11.7266 11.8135 11.7266C5.86484 11.7266 0.921875 16.5879 0.921875 22.6182C1.00352 28.6484 5.86484 33.5098 11.8135 33.5098Z" fill="#FFB103"/>
<path d="M11.8168 31.0789C16.4258 31.0789 20.1961 27.3086 20.1961 22.6996C20.1961 18.0906 16.4258 14.3203 11.8168 14.3203C7.20781 14.3203 3.4375 18.0906 3.4375 22.6996C3.4375 27.3086 7.20781 31.0789 11.8168 31.0789Z" fill="#FFD96B"/>
<path d="M11.8168 14.3203C14.1621 14.3203 16.3404 15.326 17.8508 16.8326C17.8508 21.4416 14.0805 25.2119 9.47148 25.2119C7.12617 25.2119 4.94785 24.2062 3.4375 22.6996C3.4375 18.0906 7.20781 14.3203 11.8168 14.3203Z" fill="#FFEFC1"/>
<path d="M5.19531 0.273438H18.5213V6.11074L13.9123 9.54336H9.8043L5.19531 6.11074V0.273438Z" fill="#429BCF"/>
<path d="M6.70312 0.273438H9.13379V9.04238L6.70312 7.2834V0.273438ZM10.6404 0.273438H13.0711V9.54336H10.6404V0.273438ZM14.5777 0.273438H17.0084V7.2834L14.5777 9.04238V0.273438Z" fill="#D2EDF7"/>
<path d="M12.248 17.9571C11.912 18.3211 11.492 18.6431 10.988 18.9511C10.484 19.2311 10.022 19.4271 9.574 19.5391V21.0511C10.498 20.7851 11.268 20.3651 11.87 19.7911V27.9531H13.396V17.9571H12.248Z" fill="#E3583F"/>
</svg>
