<svg width="234" height="34" fill="none" xmlns="http://www.w3.org/2000/svg"><path d="M.69 5.17H5.27V0h7.957v5.17h4.215v2.046h-4.215v7.324h4.942v2.046h-3.525v6.283h3.125v2.046h-3.125v6.821h19.694v2.047h-23.11c-1.186 0-2.216-.168-3.088-.503a7.635 7.635 0 0 1-2.253-1.364l-.4 2.046H0c.34-2.345.593-4.69.763-7.036.194-2.346.254-4.727.182-7.145h5.74c0 1.508-.036 3.004-.108 4.488a82.386 82.386 0 0 1-.255 4.308c.315.455.667.862 1.054 1.22v-13.21H0V14.54h5.269V7.216H.69V5.17zm18.277-4.021H31.14c.655 0 1.212.24 1.672.718.484.455.727 1.017.727 1.687v10.053c0 .67-.206 1.208-.618 1.615-.412.407-.945.61-1.599.61H28.56c-.364 0-.654.108-.872.323-.218.192-.327.48-.327.862v9.37c0 .383.133.706.4.97.266.263.593.394.98.394h5.56v2.047H21.838c-.679 0-1.248-.228-1.708-.682-.46-.455-.69-1.017-.69-1.688V16.155c0-.67.23-1.232.69-1.687.46-.455 1.03-.682 1.708-.682h2.58c.363 0 .653-.108.871-.323.218-.215.327-.515.327-.898V4.56a1.31 1.31 0 0 0-.4-.969 1.342 1.342 0 0 0-.98-.395h-5.269V1.15zM52.468 18.848h18.64c.412 0 .775.108 1.09.323.315.192.558.467.727.826.412.718.351 1.424-.181 2.118A29.3 29.3 0 0 1 66.93 27.5c-2.156 1.508-4.542 2.74-7.158 3.698-2.616.981-5.475 1.7-8.575 2.154-3.101.455-6.456.67-10.065.646v-4.81c2.713-.096 5.22-.312 7.521-.647-.339-.55-.666-1.113-.98-1.687a63.407 63.407 0 0 1-.873-1.795h-6.395a39.477 39.477 0 0 0 2.652-4.021 41.53 41.53 0 0 0 2.035-4.165h8.212l-.836 1.975zm5.305-16.443h4.433V0H69.8v2.405h4.506v2.047H69.8V15.76h-7.594V4.45h-4.433V2.406zm-17.622 0h4.396V0h7.594v2.405h4.542v2.047h-4.542V15.76h-7.594V4.45h-4.396V2.406zm11.336 18.49a22.39 22.39 0 0 1-.835 1.507c-.291.479-.594.958-.909 1.436h4.687c.243.527.497 1.053.764 1.58l.799 1.508c3.633-1.197 6.455-2.956 8.466-5.278.194-.215.242-.395.145-.538-.072-.144-.23-.216-.472-.216H51.487zM40.042 15.76c.339-1.221.508-2.525.508-3.914V5.53h2.907v6.318c0 .718-.036 1.4-.109 2.047a10.272 10.272 0 0 1-.4 1.867h-2.906zm31.43 0a10.28 10.28 0 0 1-.4-1.867 18.322 18.322 0 0 1-.109-2.047V5.53h2.907v6.318c0 1.389.17 2.693.509 3.914h-2.907zm-18.204 0V5.529h2.907V15.76h-2.907zm4.396 0c.364-1.173.545-2.478.545-3.914V5.53h2.87v6.318c0 .718-.035 1.4-.108 2.047a10.28 10.28 0 0 1-.4 1.867h-2.907zM81.028 23.336c0-.67.23-1.233.69-1.688a2.393 2.393 0 0 1 1.744-.718h27.325c.678 0 1.247.24 1.707.718a2.22 2.22 0 0 1 .727 1.688v8.041c0 .647-.242 1.197-.727 1.652a2.273 2.273 0 0 1-1.707.718H83.462c-.678 0-1.26-.24-1.744-.718a2.236 2.236 0 0 1-.69-1.652v-8.041zM98.868 4.02c0-.646.23-1.209.691-1.687.484-.48 1.054-.718 1.708-.718h10.573c.679 0 1.248.239 1.708.718.46.478.691 1.04.691 1.687v13.14c0 .646-.231 1.208-.691 1.687-.46.455-1.029.682-1.708.682h-10.573a2.414 2.414 0 0 1-1.708-.682 2.356 2.356 0 0 1-.69-1.687V4.02zm-18.93 5.852h5.886c.315-.886.582-1.795.8-2.729.218-.933.424-1.914.617-2.944h-1.199a19.693 19.693 0 0 1-1.199 3.662h-4.832a28.32 28.32 0 0 0 1.199-3.877A30.43 30.43 0 0 0 81.9 0h4.833a111.262 111.262 0 0 1-.29 2.154h10.936V4.2H94.18a35.69 35.69 0 0 1-1.162 5.673h5.014v2.046h-3.525a22.968 22.968 0 0 0 1.854 3.806c.75 1.244 1.683 2.513 2.797 3.805h-7.776c-.339-.335-.666-.694-.98-1.077-.291-.383-.57-.778-.836-1.185a16.78 16.78 0 0 1-1.926 2.262h-7.74c1.188-1.292 2.193-2.56 3.016-3.805a26.855 26.855 0 0 0 2.108-3.806h-5.087V9.873zm24.999 18.489h-15.66v1.974c0 .383.132.706.399.97.266.263.593.395.98.395h12.9c.387 0 .715-.132.981-.395.266-.264.4-.587.4-.97v-1.974zm-15.66-2.047h15.66v-1.974c0-.383-.134-.706-.4-.97a1.342 1.342 0 0 0-.981-.394h-12.9c-.387 0-.714.131-.98.395a1.31 1.31 0 0 0-.4.969v1.974zm18.239-21.971a.574.574 0 0 0-.218-.467.588.588 0 0 0-.472-.215h-.545a.703.703 0 0 0-.509.215.627.627 0 0 0-.181.467v12.458c0 .454.23.682.69.682h.545c.194 0 .351-.06.472-.18a.683.683 0 0 0 .218-.502V4.344zM121.687 18.274h23.437v-.754c0-.383-.073-.647-.218-.79-.146-.144-.412-.216-.8-.216H121.07v-2.046h29.94c.678 0 1.247.24 1.708.718.46.455.69 1.005.69 1.651v4.919c0 .646-.23 1.209-.69 1.687-.461.455-1.03.682-1.708.682h-29.94V22.08h23.036c.388 0 .654-.072.8-.215.145-.144.218-.407.218-.79v-.754h-23.437v-2.046zm-.908-16.73h3.924V0h7.594v1.544h3.888V3.59h-3.888v2.19h3.706v2.046h-3.706v2.226h4.179V12.1h-4.179v1.615h-7.594V12.1h-4.178v-2.047h4.178V7.826h-3.742V5.78h3.742V3.59h-3.924V1.544zm17.368 0h3.888V0h7.594v1.544h3.888V3.59h-3.888v2.19h3.706v2.046h-3.706v2.226h4.179V12.1h-4.179v1.615h-7.594V12.1h-4.178v-2.047h4.178V7.826h-3.706V5.78h3.706V3.59h-3.888V1.544zm7.631 32.382h-14.535c-.678 0-1.247-.239-1.707-.718a2.234 2.234 0 0 1-.691-1.651v-6.175h8.285v5.134c0 .383.133.706.4.97.266.262.593.394.981.394h7.267v2.046zm7.085-8.508c.291 2.896.727 5.66 1.308 8.293h-6.431a51.849 51.849 0 0 1-.981-3.95 39.89 39.89 0 0 1-.582-4.343h6.686zm-25.035.323c-.145 2.776-.581 5.421-1.308 7.934h-6.431a31.42 31.42 0 0 0 .763-3.877 70.89 70.89 0 0 0 .472-4.021l6.504-.036zm17.041-.79c.121.982.255 1.95.4 2.908.17.934.351 1.855.545 2.764h-6.686a29.495 29.495 0 0 1-.654-2.8 38.773 38.773 0 0 1-.399-2.872h6.794zM160.675 3.41c0-.646.23-1.208.691-1.687a2.273 2.273 0 0 1 1.707-.718h27.942c.654 0 1.211.24 1.672.718.484.479.726 1.041.726 1.688v28.074c0 .67-.242 1.233-.726 1.688a2.236 2.236 0 0 1-1.672.718h-27.942c-.678 0-1.247-.24-1.707-.718-.461-.455-.691-1.018-.691-1.688V3.411zm25.144 1.006c0-.383-.133-.706-.399-.97a1.344 1.344 0 0 0-.981-.394H169.65a1.34 1.34 0 0 0-.981.394c-.267.264-.4.587-.4.97V30.48c0 .383.133.706.4.97.266.262.593.394.981.394h14.789c.387 0 .714-.132.981-.395a1.31 1.31 0 0 0 .399-.97V4.417zm-16.75 9.334h15.987v2.01h-1.708v10.986c0 .383.073.658.218.826.146.143.412.215.8.215h.945v2.047h-5.778c-.654 0-1.211-.24-1.671-.718a2.357 2.357 0 0 1-.691-1.688V15.76h-.363c-.145 2.37-.351 4.716-.618 7.037a68.356 68.356 0 0 1-1.09 6.678h-6.286a75.406 75.406 0 0 0 1.163-6.75c.315-2.297.533-4.619.654-6.965h-1.562v-2.01zm.726-6.821h14.498v2.01h-14.498V6.93zM200.789 3.16c0-.67.231-1.233.691-1.688.46-.479 1.041-.718 1.744-.718H234V2.8h-23.872a1.34 1.34 0 0 0-.981.395c-.267.263-.4.587-.4.97v26.207c0 .383.133.706.4.97.266.263.593.394.981.394H234v2.047h-30.776c-.703 0-1.284-.24-1.744-.718a2.357 2.357 0 0 1-.691-1.688V3.16zm25.217 25.56-3.633-5.169a71.91 71.91 0 0 1-2.108 2.62 55.676 55.676 0 0 1-2.289 2.55h-8.43a208.805 208.805 0 0 0 4.76-5.673 100.985 100.985 0 0 0 4.033-5.241l-8.902-12.78h8.067l4.832 7.036c.727-1.15 1.43-2.286 2.108-3.41a155.407 155.407 0 0 0 2.107-3.555h7.267a400.378 400.378 0 0 1-3.633 6.534 125.538 125.538 0 0 1-3.815 6.319l7.412 10.77h-7.776z" fill="#fff"/></svg>