<svg width="34" height="29" viewBox="0 0 34 29" fill="none" xmlns="http://www.w3.org/2000/svg">
<path d="M6.91536 3.89453C6.91536 2.9497 7.2907 2.04356 7.9588 1.37546C8.62689 0.707365 9.53303 0.332031 10.4779 0.332031H23.9362C24.881 0.332031 25.7872 0.707365 26.4553 1.37546C27.1234 2.04356 27.4987 2.9497 27.4987 3.89453V16.1654H33.0404V21.3112C33.0404 22.676 32.4982 23.9848 31.5332 24.9499C30.5682 25.9149 29.2593 26.457 27.8945 26.457H19.582V20.1237H21.5612C21.8761 20.1237 22.1782 19.9986 22.4009 19.7759C22.6236 19.5532 22.7487 19.2511 22.7487 18.9362C22.7487 18.6213 22.6236 18.3192 22.4009 18.0965C22.1782 17.8738 21.8761 17.7487 21.5612 17.7487H18.7904C18.422 17.2567 17.944 16.8574 17.3943 16.5826C16.8445 16.3077 16.2383 16.1649 15.6237 16.1654H6.91536V3.89453ZM27.4987 24.082H27.8945C28.6294 24.082 29.3342 23.7901 29.8538 23.2705C30.3734 22.7508 30.6654 22.0461 30.6654 21.3112V18.5404H27.4987V24.082ZM12.8529 6.66536C12.5379 6.66536 12.2359 6.79048 12.0132 7.01318C11.7905 7.23588 11.6654 7.53792 11.6654 7.85286C11.6654 8.16781 11.7905 8.46985 12.0132 8.69255C12.2359 8.91525 12.5379 9.04037 12.8529 9.04037H21.5612C21.8761 9.04037 22.1782 8.91525 22.4009 8.69255C22.6236 8.46985 22.7487 8.16781 22.7487 7.85286C22.7487 7.53792 22.6236 7.23588 22.4009 7.01318C22.1782 6.79048 21.8761 6.66536 21.5612 6.66536H12.8529ZM12.8529 12.207C12.5379 12.207 12.2359 12.3321 12.0132 12.5548C11.7905 12.7775 11.6654 13.0796 11.6654 13.3945C11.6654 13.7095 11.7905 14.0115 12.0132 14.2342C12.2359 14.4569 12.5379 14.582 12.8529 14.582H21.5612C21.8761 14.582 22.1782 14.4569 22.4009 14.2342C22.6236 14.0115 22.7487 13.7095 22.7487 13.3945C22.7487 13.0796 22.6236 12.7775 22.4009 12.5548C22.1782 12.3321 21.8761 12.207 21.5612 12.207H12.8529ZM0.582031 20.1237C0.582031 19.4938 0.832254 18.8897 1.27765 18.4443C1.72305 17.9989 2.32714 17.7487 2.95703 17.7487H15.6237C16.2536 17.7487 16.8577 17.9989 17.3031 18.4443C17.7485 18.8897 17.9987 19.4938 17.9987 20.1237V26.457C17.9987 27.0869 17.7485 27.691 17.3031 28.1364C16.8577 28.5818 16.2536 28.832 15.6237 28.832H2.95703C2.32714 28.832 1.72305 28.5818 1.27765 28.1364C0.832254 27.691 0.582031 27.0869 0.582031 26.457V20.1237ZM16.4154 20.9154C15.9954 20.9154 15.5927 20.7486 15.2958 20.4516C14.9988 20.1547 14.832 19.752 14.832 19.332H13.2487C13.2487 20.1719 13.5823 20.9773 14.1762 21.5712C14.7701 22.1651 15.5755 22.4987 16.4154 22.4987V20.9154ZM16.4154 24.082C15.5755 24.082 14.7701 24.4157 14.1762 25.0095C13.5823 25.6034 13.2487 26.4088 13.2487 27.2487H14.832C14.832 26.8288 14.9988 26.426 15.2958 26.1291C15.5927 25.8322 15.9954 25.6654 16.4154 25.6654V24.082ZM3.7487 19.332C3.7487 19.752 3.58188 20.1547 3.28495 20.4516C2.98802 20.7486 2.58529 20.9154 2.16536 20.9154V22.4987C3.00522 22.4987 3.81067 22.1651 4.40454 21.5712C4.9984 20.9773 5.33203 20.1719 5.33203 19.332H3.7487ZM5.33203 27.2487C5.33203 26.4088 4.9984 25.6034 4.40454 25.0095C3.81067 24.4157 3.00522 24.082 2.16536 24.082V25.6654C2.58529 25.6654 2.98802 25.8322 3.28495 26.1291C3.58188 26.426 3.7487 26.8288 3.7487 27.2487H5.33203ZM12.0612 23.2904C12.0612 22.5555 11.7693 21.8507 11.2496 21.3311C10.73 20.8115 10.0252 20.5195 9.29036 20.5195C8.55549 20.5195 7.85072 20.8115 7.33109 21.3311C6.81146 21.8507 6.51953 22.5555 6.51953 23.2904C6.51953 24.0252 6.81146 24.73 7.33109 25.2496C7.85072 25.7693 8.55549 26.0612 9.29036 26.0612C10.0252 26.0612 10.73 25.7693 11.2496 25.2496C11.7693 24.73 12.0612 24.0252 12.0612 23.2904Z" fill="#316BD8"/>
</svg>
