<svg width="30" height="28" viewBox="0 0 30 28" fill="none" xmlns="http://www.w3.org/2000/svg">
<path d="M28.2634 2.956C28.2634 1.54181 27.1499 0.3125 25.7293 0.3125H2.65924C1.23548 0.3125 0.123047 1.48125 0.123047 2.956V5.90656H28.2634V2.956ZM22.6969 11.8693C24.8623 11.8693 26.7791 12.6683 28.325 14.0814V9.77831H0.123047V20.7826C0.123047 22.1958 1.23655 23.3645 2.65924 23.3645H14.5943C14.3467 22.5039 14.1608 21.5816 14.1608 20.6594C14.2235 15.8038 17.9964 11.8693 22.6959 11.8693H22.6969ZM29.2515 17.8321C28.8807 16.9714 28.3866 16.1724 27.7056 15.4956C27.0872 14.8199 26.2839 14.3279 25.418 13.8976C24.557 13.5321 23.6312 13.3442 22.6959 13.3451C21.7067 13.3451 20.7791 13.5289 19.9121 13.8976C19.0472 14.2663 18.3056 14.8199 17.6246 15.4956C17.0062 16.1724 16.4494 16.9088 16.0786 17.8321C15.7067 18.6927 15.5219 19.6755 15.5219 20.6594C15.5219 21.7049 15.7078 22.6261 16.0786 23.4867C16.4505 24.3473 16.9446 25.1463 17.6246 25.8231C18.2429 26.4989 19.0472 26.9908 19.9132 27.3595C20.7791 27.7282 21.7067 27.912 22.6969 27.912C23.6851 27.912 24.5521 27.7282 25.4169 27.3595C26.2829 26.9908 27.0256 26.4373 27.7056 25.8231C28.3239 25.1463 28.8807 24.4089 29.2526 23.4867C29.6234 22.6261 29.8082 21.6433 29.8082 20.6594C29.8082 19.6755 29.6234 18.6927 29.2526 17.8321H29.2515ZM26.9023 24.2857C26.4688 23.0564 25.2937 22.1341 23.9326 22.1341V25.3928C23.9326 25.8231 23.5618 26.1918 23.1294 26.1918C22.8818 26.1918 22.6342 26.0686 22.4494 25.8231L18.0581 21.2735C17.9613 21.2031 17.8828 21.1107 17.8288 21.0039C17.7749 20.8971 17.7471 20.779 17.7478 20.6594C17.7478 20.4139 17.8105 20.2291 17.9954 20.1069L22.5726 15.3724C22.7076 15.2492 22.8851 15.1833 23.0677 15.1886C23.5002 15.1886 23.871 15.5573 23.871 15.9876V18.4462C25.8504 18.4462 27.458 20.1058 27.458 22.1968C27.5207 22.9342 27.2731 23.6716 26.9023 24.2857Z" fill="#316BD8"/>
</svg>
