<svg width="92" height="92" viewBox="0 0 92 92" fill="none" xmlns="http://www.w3.org/2000/svg">
<path opacity="0.6" fill-rule="evenodd" clip-rule="evenodd" d="M43.2011 45.6886C43.2011 46.3273 42.629 46.918 42.0332 46.8855C5.77831 45.728 -0.408594 67.8039 0.437552 74.1512C0.75762 76.033 1.06577 77.5945 2.15197 78.9147C4.31245 81.0772 7.32078 81.0772 9.89497 79.7776L12.9016 78.478L12.0384 81.9333C11.6179 84.524 11.1804 87.9913 13.3391 90.159C14.616 91.4534 16.7646 92.3164 18.4909 91.89C26.0705 91.89 45.9677 84.411 44.8082 49.6439C44.7299 48.834 45.4143 48.3563 46.017 48.3391C46.7168 48.3563 47.2888 48.8939 47.2003 49.6473C46.0511 84.411 66.3552 91.89 73.5142 91.89C75.8671 91.8643 77.3772 91.4534 78.666 90.1589C80.8162 87.9913 80.3889 84.524 79.9582 81.9333L79.1035 78.478L82.1067 79.7776C84.698 81.0772 87.7131 81.0772 89.8514 78.9147C90.764 77.7777 91.273 76.0124 91.5693 74.1512C92.4086 67.7936 86.4277 45.6578 50.0894 46.8495C49.4561 46.918 48.9028 46.3084 48.9028 45.6783C48.9028 45.0653 49.3471 44.3599 50.2971 44.4506C84.6213 45.4831 92 25.4105 92 18.2431C92 16.4983 91.5693 14.3409 90.2737 13.0361C87.3692 10.1133 82.912 12.1886 78.9792 12.918C80.4604 9.44042 82.42 5.1153 79.1035 1.79698C77.8249 0.495668 76.0935 0.0727477 74.3757 0.0727478C68.0764 -0.776525 46.2758 5.37899 47.2275 41.4731C47.1509 42.3908 46.4256 42.675 46.0375 42.675C45.6374 42.675 44.8576 42.4507 44.7861 41.4731C45.7293 5.37899 23.9287 -0.776521 17.6277 0.0727528C15.8946 0.0727529 14.1972 0.495673 12.9016 1.79698C9.6464 5.06052 11.9431 9.25722 13.0667 12.8786C9.51701 12.5892 5.11263 10.2075 2.15196 13.0361C0.437547 14.3409 1.02882e-06 16.4983 1.18136e-06 18.2431C0.418817 25.4105 7.49614 45.49 41.7914 44.4592C42.692 44.3685 43.2011 45.1116 43.2011 45.6886Z" fill="url(#paint0_linear_1412_43684)"/>
<defs>
<linearGradient id="paint0_linear_1412_43684" x1="4.33117e-07" y1="9.68422" x2="92" y2="9.68421" gradientUnits="userSpaceOnUse">
<stop stop-opacity="0.05"/>
<stop offset="1" stop-opacity="0"/>
</linearGradient>
</defs>
</svg>
