<svg width="20" height="20" viewBox="0 0 20 20" fill="none" xmlns="http://www.w3.org/2000/svg">
<path d="M0 4C0 2.93913 0.421427 1.92172 1.17157 1.17157C1.92172 0.421427 2.93913 0 4 0H16C17.0609 0 18.0783 0.421427 18.8284 1.17157C19.5786 1.92172 20 2.93913 20 4V14C18.234 14 17.11 13.46 16.308 12.708C15.474 11.924 14.914 10.842 14.428 9.628C14.262 9.214 14.114 8.808 13.964 8.4L13.75 7.814C13.5402 7.22454 13.2924 6.64933 13.008 6.092C12.44 5.028 11.55 4 10 4C8.45 4 7.56 5.028 6.992 6.092C6.71 6.624 6.472 7.224 6.252 7.814L6.036 8.4C5.886 8.808 5.736 9.214 5.572 9.628C5.086 10.842 4.526 11.924 3.692 12.708C2.888 13.46 1.762 14 0 14V4ZM0 16C0 17.0609 0.421427 18.0783 1.17157 18.8284C1.92172 19.5786 2.93913 20 4 20H16C17.0609 20 18.0783 19.5786 18.8284 18.8284C19.5786 18.0783 20 17.0609 20 16C17.764 16 16.14 15.29 14.94 14.168C13.776 13.076 13.086 11.658 12.572 10.372C12.3988 9.93451 12.2321 9.49446 12.072 9.052L11.876 8.512C11.6965 8.00562 11.4847 7.51128 11.242 7.032C10.81 6.224 10.45 6 10 6C9.55 6 9.19 6.22 8.758 7.034C8.54 7.44 8.342 7.934 8.124 8.514L7.926 9.052C7.772 9.474 7.606 9.928 7.428 10.372C6.914 11.658 6.224 13.076 5.058 14.168C3.86 15.29 2.236 16 0 16Z" fill="#316BD8"/>
</svg>
