<svg width="24" height="19" viewBox="0 0 24 19" fill="none" xmlns="http://www.w3.org/2000/svg">
<path d="M23.868 18.6817L22.6436 11.3396C22.6254 11.2241 22.5218 11.1412 22.403 11.1412H14.4355C14.3168 11.1412 14.2132 11.2241 14.1949 11.3396L12.9706 18.6817C12.9675 18.6935 12.9675 18.7083 12.9675 18.7202C12.9675 18.8505 13.0772 18.957 13.2112 18.957H23.6274C23.6396 18.957 23.6548 18.957 23.667 18.9541C23.798 18.9333 23.8893 18.812 23.868 18.6817ZM9.54722 11.3396C9.52894 11.2241 9.42539 11.1412 9.30661 11.1412H1.33911C1.22033 11.1412 1.11678 11.2241 1.0985 11.3396L-0.125861 18.6817C-0.128906 18.6935 -0.128906 18.7083 -0.128906 18.7202C-0.128906 18.8505 -0.0192618 18.957 0.114748 18.957H10.531C10.5432 18.957 10.5584 18.957 10.5706 18.9541C10.7046 18.9333 10.7929 18.812 10.7716 18.6817L9.54722 11.3396ZM6.69342 8.77282H17.1096C17.1218 8.77282 17.1371 8.77282 17.1492 8.76986C17.2832 8.74914 17.3716 8.62776 17.3503 8.49749L16.1259 1.15539C16.1076 1.03993 16.0041 0.957031 15.8853 0.957031H7.91778C7.799 0.957031 7.69544 1.03993 7.67717 1.15539L6.45281 8.49749C6.44976 8.50933 6.44976 8.52414 6.44976 8.53598C6.44976 8.66624 6.55941 8.77282 6.69342 8.77282Z" fill="#316BD8"/>
</svg>
