<svg width="20" height="20" viewBox="0 0 20 20" fill="none" xmlns="http://www.w3.org/2000/svg">
<path d="M19.2638 14.2649C19.2555 14.2418 19.2427 14.2206 19.2262 14.2025C19.2097 14.1845 19.1898 14.1698 19.1676 14.1595C19.1454 14.1491 19.1213 14.1433 19.0969 14.1423C19.0724 14.1413 19.048 14.1451 19.025 14.1536L17.6061 14.6706V2.19361C17.6061 1.32194 16.9014 0.617188 16.0297 0.617188H3.97421C3.10251 0.617188 2.39773 1.32194 2.39773 2.19361V14.6706L0.97658 14.1536C0.955714 14.1466 0.934849 14.142 0.913984 14.142C0.811976 14.142 0.728516 14.2255 0.728516 14.3275V15.7092C0.728516 15.7857 0.777201 15.8552 0.851389 15.883L9.74692 19.1193C9.91152 19.1796 10.09 19.1796 10.2546 19.1193L19.1525 15.8853C19.2267 15.8575 19.2754 15.788 19.2754 15.7115V14.3298C19.2754 14.3066 19.2707 14.2857 19.2638 14.2649ZM13.6116 5.52497L11.2075 9.96679H12.5429C12.6449 9.96679 12.7283 10.0502 12.7283 10.1523V10.7805C12.7283 10.8825 12.6449 10.966 12.5429 10.966H10.774V11.8701H12.5429C12.6449 11.8701 12.7283 11.9536 12.7283 12.0556V12.6838C12.7283 12.7858 12.6449 12.8693 12.5429 12.8693H10.774V14.3414C10.774 14.4434 10.6905 14.5268 10.5885 14.5268H9.43162C9.32962 14.5268 9.24616 14.4434 9.24616 14.3414V12.8716H7.4842C7.3822 12.8716 7.29874 12.7881 7.29874 12.6861V12.0579C7.29874 11.9559 7.3822 11.8724 7.4842 11.8724H9.24616V10.9683H7.4842C7.3822 10.9683 7.29874 10.8848 7.29874 10.7828V10.1546C7.29874 10.0526 7.3822 9.96911 7.4842 9.96911H8.80567L6.3969 5.52729C6.34821 5.4392 6.38067 5.3256 6.47108 5.27692C6.4989 5.26069 6.52904 5.25374 6.55918 5.25374H7.85051C7.88468 5.25393 7.91813 5.26355 7.94718 5.28155C7.97622 5.29955 7.99973 5.32522 8.01511 5.35574L9.97876 9.26899H10.0553L12.0189 5.35574C12.049 5.29315 12.114 5.25374 12.1835 5.25374H13.447C13.549 5.25374 13.6325 5.33719 13.6348 5.43688C13.6348 5.46702 13.6255 5.49716 13.6116 5.52497Z" fill="#316BD8"/>
</svg>
