<svg width="18" height="18" viewBox="0 0 18 18" fill="none" xmlns="http://www.w3.org/2000/svg">
<path fill-rule="evenodd" clip-rule="evenodd" d="M8.58288 0C6.32438 0 4.26638 0.746 3.04888 1.3555C2.93888 1.4105 2.83638 1.4645 2.74088 1.5165C2.55188 1.6195 2.39088 1.7155 2.26288 1.8L3.64788 3.839L4.29988 4.0985C6.84788 5.384 10.2649 5.384 12.8134 4.0985L13.5534 3.7145L14.8634 1.8C14.592 1.623 14.3098 1.46318 14.0184 1.3215C12.8074 0.7185 10.7989 0 8.58288 0ZM5.36138 2.308C4.87093 2.21622 4.38654 2.09467 3.91088 1.944C5.05138 1.4375 6.75138 0.9 8.58238 0.9C9.85088 0.9 11.0504 1.158 12.0424 1.485C10.8799 1.6485 9.63938 1.926 8.45738 2.2675C7.52738 2.5365 6.44038 2.5075 5.36138 2.308ZM13.3414 4.84L13.2189 4.902C10.4154 6.316 6.69738 6.316 3.89388 4.902L3.77788 4.843C-0.433124 9.4635 -3.64812 17.9985 8.58288 17.9985C20.8129 17.9985 17.5194 9.304 13.3414 4.84ZM8.06288 9C7.79766 9 7.54331 9.10536 7.35577 9.29289C7.16823 9.48043 7.06288 9.73478 7.06288 10C7.06288 10.2652 7.16823 10.5196 7.35577 10.7071C7.54331 10.8946 7.79766 11 8.06288 11V9ZM9.06288 8V7.5H8.06288V8C7.53244 8 7.02374 8.21071 6.64866 8.58579C6.27359 8.96086 6.06288 9.46957 6.06288 10C6.06288 10.5304 6.27359 11.0391 6.64866 11.4142C7.02374 11.7893 7.53244 12 8.06288 12V14C7.85607 14.0001 7.65433 13.936 7.48545 13.8166C7.31657 13.6973 7.18885 13.5285 7.11988 13.3335C7.07572 13.2085 6.98369 13.1061 6.86404 13.0489C6.7444 12.9917 6.60693 12.9843 6.48188 13.0285C6.35683 13.0727 6.25444 13.1647 6.19724 13.2843C6.14004 13.404 6.13272 13.5415 6.17688 13.6665C6.3148 14.0565 6.57022 14.3941 6.90798 14.6329C7.24574 14.8718 7.64922 15 8.06288 15V15.5H9.06288V15C9.59331 15 10.102 14.7893 10.4771 14.4142C10.8522 14.0391 11.0629 13.5304 11.0629 13C11.0629 12.4696 10.8522 11.9609 10.4771 11.5858C10.102 11.2107 9.59331 11 9.06288 11V9C9.49788 9 9.86838 9.2775 10.0064 9.6665C10.0268 9.73014 10.0599 9.78903 10.1035 9.83969C10.1471 9.89034 10.2005 9.93173 10.2604 9.96141C10.3203 9.99109 10.3856 10.0084 10.4523 10.0125C10.519 10.0165 10.5859 10.0071 10.6489 9.98481C10.712 9.96254 10.7699 9.92786 10.8193 9.8828C10.8687 9.83775 10.9085 9.78325 10.9365 9.72253C10.9645 9.66181 10.98 9.59609 10.9821 9.52927C10.9842 9.46245 10.9729 9.39588 10.9489 9.3335C10.811 8.94351 10.5555 8.60587 10.2178 8.36706C9.88002 8.12824 9.47653 8.00001 9.06288 8ZM9.06288 12V14C9.32809 14 9.58245 13.8946 9.76998 13.7071C9.95752 13.5196 10.0629 13.2652 10.0629 13C10.0629 12.7348 9.95752 12.4804 9.76998 12.2929C9.58245 12.1054 9.32809 12 9.06288 12Z" fill="#316BD8"/>
</svg>
