<svg width="23" height="20" viewBox="0 0 23 20" fill="none" xmlns="http://www.w3.org/2000/svg">
<path fill-rule="evenodd" clip-rule="evenodd" d="M22.0998 4.62989V17.9943C22.0998 17.9943 22.3374 19.598 20.793 19.598H2.26038C2.26038 19.598 0.775391 19.8356 0.775391 17.8755V2.1946C0.775391 2.1946 0.775391 0.472074 2.61677 0.472074H9.0913C9.0913 0.472074 9.86349 0.293883 10.4575 1.36303C11.1109 2.31339 11.4673 2.90736 11.4673 2.90736C11.4673 2.90736 11.7643 3.14495 12.2395 3.14495H20.6148C20.6148 3.14495 22.0998 3.02616 22.0998 4.62989ZM6.18132 10.3899C5.52793 10.3899 5.05273 9.91473 5.05273 9.26136C5.05273 8.66739 5.52793 8.13281 6.18132 8.13281C6.83472 8.13281 7.30991 8.66739 7.30991 9.26136C7.30991 9.85533 6.83472 10.3899 6.18132 10.3899ZM17.2303 10.3297H10.1024C9.5084 10.3297 9.0332 9.85453 9.0332 9.26056C9.0332 8.66658 9.5084 8.19141 10.1024 8.19141H17.2303C17.8243 8.19141 18.2995 8.66658 18.2995 9.26056C18.2995 9.85453 17.8243 10.3297 17.2303 10.3297ZM5.05273 13.4801C5.05273 14.1335 5.52793 14.6087 6.18132 14.6087C6.83472 14.6087 7.30991 14.0741 7.30991 13.4801C7.30991 12.8861 6.83472 12.3516 6.18132 12.3516C5.52793 12.3516 5.05273 12.8267 5.05273 13.4801ZM17.2303 14.5524H10.1024C9.5084 14.5524 9.0332 14.0772 9.0332 13.4832C9.0332 12.8892 9.5084 12.4141 10.1024 12.4141H17.2303C17.8243 12.4141 18.2995 12.8892 18.2995 13.4832C18.2995 14.0772 17.8243 14.5524 17.2303 14.5524Z" fill="#316BD8"/>
</svg>
