<svg width="20" height="21" viewBox="0 0 20 21" fill="none" xmlns="http://www.w3.org/2000/svg">
<path d="M0 5.4C-1.57653e-07 4.69056 0.139794 3.98807 0.411395 3.33268C0.682995 2.67729 1.08108 2.08183 1.5829 1.58035C2.08471 1.07887 2.68043 0.681182 3.336 0.410018C3.99158 0.138854 4.69416 -0.000471761 5.4036 1.20011e-06C6.47152 0.00047583 7.51532 0.317584 8.40303 0.911232C9.29074 1.50488 9.98249 2.34841 10.3908 3.33517C10.7992 4.32194 10.9058 5.40762 10.6971 6.45496C10.4885 7.5023 9.97403 8.46426 9.21873 9.21922C8.46343 9.97419 7.50124 10.4882 6.45381 10.6964C5.40637 10.9046 4.32074 10.7975 3.33416 10.3887C2.34757 9.97994 1.50435 9.2878 0.911098 8.39983C0.317844 7.51186 0.00120016 6.46792 0.00120006 5.4H0ZM7.6788 6.4752L6.6024 7.5516V5.7C6.6024 4.82499 6.25489 3.98581 5.63628 3.36697C5.01767 2.74814 4.17861 2.40032 3.3036 2.4H3.0024C2.84327 2.4 2.69066 2.46322 2.57814 2.57574C2.46561 2.68826 2.4024 2.84087 2.4024 3C2.4024 3.15913 2.46561 3.31174 2.57814 3.42426C2.69066 3.53679 2.84327 3.6 3.0024 3.6H3.3024C4.4628 3.6 5.4024 4.5408 5.4024 5.7V7.5516L4.3272 6.4752C4.21454 6.3627 4.06179 6.29955 3.90258 6.29967C3.74336 6.29978 3.59071 6.36314 3.4782 6.4758C3.3657 6.58846 3.30255 6.74121 3.30267 6.90042C3.30278 7.05964 3.36614 7.2123 3.4788 7.3248L5.5812 9.4272C5.63697 9.4827 5.70313 9.52667 5.7759 9.55659C5.84867 9.58651 5.92662 9.60179 6.0053 9.60157C6.08398 9.60135 6.16184 9.58562 6.23444 9.55529C6.30704 9.52496 6.37295 9.48062 6.4284 9.4248L8.5284 7.3248C8.64106 7.2123 8.70442 7.05964 8.70453 6.90042C8.70465 6.74121 8.64151 6.58846 8.529 6.4758C8.4165 6.36314 8.26384 6.29978 8.10462 6.29967C7.94541 6.29955 7.79266 6.3627 7.68 6.4752H7.6788ZM12.0012 5.4C12.0015 6.53048 11.7115 7.64209 11.1589 8.62832C10.6063 9.61455 9.80977 10.4424 8.8455 11.0324C7.88123 11.6225 6.78158 11.955 5.65193 11.9981C4.52227 12.0413 3.40047 11.7936 2.394 11.2788V18C2.394 18.6365 2.64686 19.247 3.09694 19.6971C3.54703 20.1471 4.15748 20.4 4.794 20.4H14.3988C15.0353 20.4 15.6458 20.1471 16.0959 19.6971C16.5459 19.247 16.7988 18.6365 16.7988 18V3.6C16.7988 2.96348 16.5459 2.35303 16.0959 1.90294C15.6458 1.45286 15.0353 1.2 14.3988 1.2H10.4916C11.4694 2.38101 12.0034 3.86676 12.0012 5.4ZM18 6H18.6C18.7591 6 18.9117 6.06322 19.0243 6.17574C19.1368 6.28826 19.2 6.44087 19.2 6.6V8.4C19.2 8.55913 19.1368 8.71174 19.0243 8.82427C18.9117 8.93679 18.7591 9 18.6 9H18V6ZM18 10.2H18.6C18.7591 10.2 18.9117 10.2632 19.0243 10.3757C19.1368 10.4883 19.2 10.6409 19.2 10.8V12.6C19.2 12.7591 19.1368 12.9117 19.0243 13.0243C18.9117 13.1368 18.7591 13.2 18.6 13.2H18V10.2ZM18 14.4H18.6C18.7591 14.4 18.9117 14.4632 19.0243 14.5757C19.1368 14.6883 19.2 14.8409 19.2 15V16.8C19.2 16.9591 19.1368 17.1117 19.0243 17.2243C18.9117 17.3368 18.7591 17.4 18.6 17.4H18V14.4Z" fill="#316BD8"/>
</svg>
