<svg width="16" height="16" viewBox="0 0 16 16" fill="none" xmlns="http://www.w3.org/2000/svg">
<path d="M7.99818 15.287C3.97767 15.287 0.71875 12.0244 0.71875 8.00079C0.71875 3.9769 3.97767 0.714844 7.99818 0.714844C12.0192 0.714844 15.2791 3.97691 15.2791 8.00079C15.2791 12.0244 12.0192 15.287 7.99818 15.287ZM10.9382 6.54667L8.42257 4.02237C8.36769 3.94004 8.28771 3.8721 8.18423 3.83603C8.12935 3.81409 8.07082 3.80466 8.01018 3.80571C8.006 3.80571 8.00286 3.80362 7.99818 3.80362C7.99295 3.80362 7.98823 3.80625 7.98249 3.80677C7.92445 3.80571 7.86698 3.81486 7.81364 3.83551C7.7091 3.8721 7.62706 3.9411 7.57218 4.025L5.05912 6.54667C4.88244 6.7236 4.89604 7.02441 5.0889 7.21781C5.28281 7.41145 5.57501 7.41694 5.75221 7.23924C5.76579 7.22512 5.77991 7.21571 5.79192 7.19952L7.50424 5.49269L7.50841 12.038C7.50632 12.0563 7.50841 12.0725 7.50841 12.0908C7.50841 12.3265 7.71852 12.5168 7.99241 12.5168C8.26528 12.5168 8.48792 12.3265 8.48792 12.0908L8.49367 5.49219L10.2065 7.19954C10.218 7.21573 10.2321 7.22515 10.2457 7.23925C10.4229 7.41696 10.7151 7.41147 10.9085 7.21783C11.1019 7.02441 11.116 6.7236 10.9382 6.54667Z" fill="#316BD8"/>
</svg>
