<svg width="80" height="80" viewBox="0 0 80 80" fill="none" xmlns="http://www.w3.org/2000/svg">
<path d="M58.4 63H21.6C20.9959 63 20.3978 62.881 19.8397 62.6498C19.2816 62.4187 18.7745 62.0798 18.3473 61.6527C17.9202 61.2255 17.5813 60.7184 17.3502 60.1603C17.119 59.6022 17 59.0041 17 58.4V21.6C17 20.9959 17.119 20.3978 17.3502 19.8397C17.5813 19.2816 17.9202 18.7745 18.3473 18.3473C18.7745 17.9202 19.2816 17.5813 19.8397 17.3502C20.3978 17.119 20.9959 17 21.6 17H58.4C59.0041 17 59.6022 17.119 60.1603 17.3502C60.7184 17.5813 61.2255 17.9202 61.6527 18.3473C62.0798 18.7745 62.4187 19.2816 62.6498 19.8397C62.881 20.3978 63 20.9959 63 21.6V58.4C63 59.0041 62.881 59.6022 62.6498 60.1603C62.4187 60.7184 62.0798 61.2255 61.6527 61.6527C61.2255 62.0798 60.7184 62.4187 60.1603 62.6498C59.6022 62.881 59.0041 63 58.4 63ZM59.55 21.6C59.55 21.449 59.5203 21.2994 59.4625 21.1599C59.4047 21.0204 59.32 20.8936 59.2132 20.7868C59.1064 20.68 58.9796 20.5953 58.8401 20.5375C58.7006 20.4797 58.551 20.45 58.4 20.45H21.6C21.449 20.45 21.2994 20.4797 21.1599 20.5375C21.0204 20.5953 20.8936 20.68 20.7868 20.7868C20.68 20.8936 20.5953 21.0204 20.5375 21.1599C20.4797 21.2994 20.45 21.449 20.45 21.6V58.4C20.45 58.551 20.4797 58.7006 20.5375 58.8401C20.5953 58.9796 20.68 59.1064 20.7868 59.2132C20.8936 59.32 21.0204 59.4047 21.1599 59.4625C21.2994 59.5203 21.449 59.55 21.6 59.55H58.4C58.551 59.55 58.7006 59.5203 58.8401 59.4625C58.9796 59.4047 59.1064 59.32 59.2132 59.2132C59.32 59.1064 59.4047 58.9796 59.4625 58.8401C59.5203 58.7006 59.55 58.551 59.55 58.4V21.6Z" fill="#555555"/>
<path d="M32 30V49.992H35.052V41.732H40.456C41.604 41.732 42.472 41.956 43.088 42.46C43.676 42.964 44.04 43.748 44.152 44.868L44.404 47.36C44.516 48.48 44.796 49.376 45.272 49.992H48.576C47.904 49.264 47.512 48.284 47.4 47.052L47.064 43.86C46.84 41.9 45.86 40.724 44.068 40.332V40.276C45.16 39.996 46.028 39.408 46.672 38.512C47.232 37.7 47.512 36.776 47.512 35.712C47.512 33.808 46.896 32.38 45.664 31.372C44.488 30.448 42.864 30 40.848 30H32ZM35.052 32.604H40.428C41.828 32.604 42.836 32.856 43.508 33.388C44.124 33.892 44.46 34.704 44.46 35.824C44.46 36.888 44.124 37.7 43.48 38.26C42.808 38.82 41.8 39.128 40.456 39.128H35.052V32.604Z" fill="#425BB5"/>
</svg>
