<svg width="80" height="80" viewBox="0 0 80 80" fill="none" xmlns="http://www.w3.org/2000/svg">
<path d="M60.2533 27.1895C59.5797 27.1881 58.9183 27.3686 58.3386 27.7118C57.759 28.055 57.2827 28.5482 56.96 29.1394C56.6372 29.7307 56.48 30.398 56.5048 31.0712C56.5296 31.7443 56.7356 32.3983 57.1011 32.9641L49.0282 45.243C48.196 45.0061 47.3149 44.9999 46.4794 45.225L36.6383 28.0301C37.4023 27.2807 37.9199 26.3164 38.1224 25.2655C38.3248 24.2146 38.2024 23.127 37.7715 22.1474C37.3407 21.1678 36.6217 20.3426 35.7103 19.7817C34.7989 19.2208 33.7382 18.9507 32.6696 19.0074C31.6009 19.0641 30.5748 19.4449 29.7278 20.0991C28.8809 20.7533 28.2533 21.6499 27.9284 22.6696C27.6036 23.6893 27.597 24.7838 27.9095 25.8073C28.222 26.8308 28.8388 27.735 29.6778 28.3993L19.5289 53.8397C18.6722 53.8877 17.858 54.2289 17.2231 54.8063C16.5882 55.3836 16.1713 56.1617 16.0424 57.0101C15.9135 57.8585 16.0804 58.7254 16.5152 59.4652C16.9499 60.205 17.626 60.7727 18.4298 61.073C19.2337 61.3733 20.1164 61.3878 20.9297 61.1141C21.743 60.8405 22.4373 60.2953 22.8962 59.5702C23.355 58.8451 23.5504 57.9841 23.4495 57.132C23.3485 56.2799 22.9575 55.4884 22.342 54.8905L32.4668 29.5117C32.6244 29.5267 32.7745 29.5597 32.9351 29.5597C33.2911 29.5594 33.6462 29.5232 33.9949 29.4516L43.8915 46.7441C43.191 47.4894 42.7232 48.4228 42.5453 49.43C42.3674 50.4372 42.4872 51.4744 42.89 52.4145C43.2927 53.3547 43.961 54.1569 44.8129 54.7229C45.6649 55.2889 46.6634 55.5941 47.6861 55.601C48.7089 55.608 49.7115 55.3165 50.571 54.7621C51.4306 54.2078 52.1097 53.4148 52.5253 52.4802C52.9409 51.5456 53.0748 50.5102 52.9106 49.5006C52.7464 48.4911 52.2914 47.5514 51.6011 46.7966L59.6004 34.6288C60.1122 34.7192 60.6372 34.7021 61.142 34.5786C61.6469 34.4552 62.1205 34.2281 62.5329 33.9118C62.9453 33.5955 63.2874 33.1969 63.5375 32.7413C63.7876 32.2858 63.9402 31.7831 63.9856 31.2654C64.0311 30.7477 63.9684 30.2262 63.8015 29.734C63.6346 29.2418 63.3671 28.7897 63.0161 28.4064C62.6652 28.0231 62.2383 27.717 61.7627 27.5075C61.2871 27.298 60.7731 27.1897 60.2533 27.1895Z" fill="#555555"/>
<circle cx="33" cy="24" r="6" fill="#425BB5"/>
<circle cx="33" cy="23.8574" r="3" fill="white"/>
<path d="M50.4795 50.3569C50.4795 51.8776 49.2467 53.1104 47.7261 53.1104C46.2054 53.1104 44.9727 51.8776 44.9727 50.3569C44.9727 48.8363 46.2054 47.6035 47.7261 47.6035C49.2467 47.6035 50.4795 48.8363 50.4795 50.3569Z" fill="white"/>
<path d="M62.1602 30.7949C62.1602 31.8644 61.2931 32.7314 60.2236 32.7314C59.1541 32.7314 58.2871 31.8644 58.2871 30.7949C58.2871 29.7254 59.1541 28.8584 60.2236 28.8584C61.2931 28.8584 62.1602 29.7254 62.1602 30.7949Z" fill="white"/>
<path d="M21.8857 57.4878C21.8857 58.6827 20.9171 59.6514 19.7222 59.6514C18.5273 59.6514 17.5586 58.6827 17.5586 57.4878C17.5586 56.2929 18.5273 55.3242 19.7222 55.3242C20.9171 55.3242 21.8857 56.2929 21.8857 57.4878Z" fill="white"/>
</svg>
