<svg width="80" height="80" viewBox="0 0 80 80" fill="none" xmlns="http://www.w3.org/2000/svg">
<path d="M58.4 63H21.6C20.9959 63 20.3978 62.881 19.8397 62.6498C19.2816 62.4187 18.7745 62.0798 18.3473 61.6527C17.9202 61.2255 17.5813 60.7184 17.3502 60.1603C17.119 59.6022 17 59.0041 17 58.4V21.6C17 20.9959 17.119 20.3978 17.3502 19.8397C17.5813 19.2816 17.9202 18.7745 18.3473 18.3473C18.7745 17.9202 19.2816 17.5813 19.8397 17.3502C20.3978 17.119 20.9959 17 21.6 17H58.4C59.0041 17 59.6022 17.119 60.1603 17.3502C60.7184 17.5813 61.2255 17.9202 61.6527 18.3473C62.0798 18.7745 62.4187 19.2816 62.6498 19.8397C62.881 20.3978 63 20.9959 63 21.6V58.4C63 59.0041 62.881 59.6022 62.6498 60.1603C62.4187 60.7184 62.0798 61.2255 61.6527 61.6527C61.2255 62.0798 60.7184 62.4187 60.1603 62.6498C59.6022 62.881 59.0041 63 58.4 63ZM59.55 21.6C59.55 21.449 59.5203 21.2994 59.4625 21.1599C59.4047 21.0204 59.32 20.8936 59.2132 20.7868C59.1064 20.68 58.9796 20.5953 58.8401 20.5375C58.7006 20.4797 58.551 20.45 58.4 20.45H21.6C21.449 20.45 21.2994 20.4797 21.1599 20.5375C21.0204 20.5953 20.8936 20.68 20.7868 20.7868C20.68 20.8936 20.5953 21.0204 20.5375 21.1599C20.4797 21.2994 20.45 21.449 20.45 21.6V58.4C20.45 58.551 20.4797 58.7006 20.5375 58.8401C20.5953 58.9796 20.68 59.1064 20.7868 59.2132C20.8936 59.32 21.0204 59.4047 21.1599 59.4625C21.2994 59.5203 21.449 59.55 21.6 59.55H58.4C58.551 59.55 58.7006 59.5203 58.8401 59.4625C58.9796 59.4047 59.1064 59.32 59.2132 59.2132C59.32 59.1064 59.4047 58.9796 59.4625 58.8401C59.5203 58.7006 59.55 58.551 59.55 58.4V21.6ZM53.225 50.35H41.725C41.2675 50.35 40.8287 50.1683 40.5052 49.8448C40.1817 49.5213 40 49.0825 40 48.625C40 48.1675 40.1817 47.7287 40.5052 47.4052C40.8287 47.0817 41.2675 46.9 41.725 46.9H53.225C53.6825 46.9 54.1213 47.0817 54.4448 47.4052C54.7683 47.7287 54.95 48.1675 54.95 48.625C54.95 49.0825 54.7683 49.5213 54.4448 49.8448C54.1213 50.1683 53.6825 50.35 53.225 50.35ZM53.225 33.1H41.725C41.2675 33.1 40.8287 32.9183 40.5052 32.5948C40.1817 32.2713 40 31.8325 40 31.375C40 30.9175 40.1817 30.4787 40.5052 30.1552C40.8287 29.8317 41.2675 29.65 41.725 29.65H53.225C53.6825 29.65 54.1213 29.8317 54.4448 30.1552C54.7683 30.4787 54.95 30.9175 54.95 31.375C54.95 31.8325 54.7683 32.2713 54.4448 32.5948C54.1213 32.9183 53.6825 33.1 53.225 33.1ZM30.225 53.8C29.2015 53.8 28.2009 53.4965 27.3499 52.9279C26.4989 52.3592 25.8356 51.551 25.4439 50.6054C25.0522 49.6598 24.9498 48.6193 25.1494 47.6154C25.3491 46.6116 25.842 45.6895 26.5657 44.9657C27.2895 44.242 28.2116 43.7491 29.2154 43.5494C30.2193 43.3498 31.2598 43.4522 32.2054 43.8439C33.151 44.2356 33.9592 44.8989 34.5279 45.7499C35.0965 46.6009 35.4 47.6015 35.4 48.625C35.4 49.9975 34.8548 51.3138 33.8843 52.2843C32.9138 53.2548 31.5975 53.8 30.225 53.8ZM30.225 46.9C29.8838 46.9 29.5503 47.0012 29.2666 47.1907C28.983 47.3803 28.7619 47.6497 28.6313 47.9649C28.5007 48.2801 28.4666 48.6269 28.5331 48.9615C28.5997 49.2962 28.764 49.6035 29.0052 49.8448C29.2465 50.086 29.5539 50.2503 29.8885 50.3169C30.2231 50.3834 30.5699 50.3493 30.8851 50.2187C31.2003 50.0881 31.4697 49.867 31.6593 49.5834C31.8488 49.2997 31.95 48.9662 31.95 48.625C31.95 48.1675 31.7683 47.7287 31.4448 47.4052C31.1213 47.0817 30.6825 46.9 30.225 46.9Z" fill="#555555"/>
<path d="M34.876 29.0337L30.2081 33.7234C30.0552 33.8773 29.8733 33.9994 29.673 34.0827C29.4727 34.1661 29.2578 34.209 29.0409 34.209C28.8239 34.209 28.6091 34.1661 28.4088 34.0827C28.2084 33.9994 28.0266 33.8773 27.8736 33.7234L25.5403 31.3785C25.2305 31.0669 25.0566 30.6454 25.0566 30.2061C25.0566 29.7667 25.2305 29.3452 25.5403 29.0337C25.693 28.8795 25.8747 28.7572 26.0749 28.6737C26.2752 28.5902 26.49 28.5472 26.707 28.5472C26.9239 28.5472 27.1387 28.5902 27.339 28.6737C27.5392 28.7572 27.7209 28.8795 27.8736 29.0337L29.0409 30.2055L32.5426 26.6877C32.6955 26.5338 32.8772 26.4117 33.0775 26.3284C33.2777 26.245 33.4924 26.2021 33.7093 26.2021C33.9262 26.2021 34.1409 26.245 34.3411 26.3284C34.5414 26.4117 34.7231 26.5338 34.876 26.6877C35.1858 26.9994 35.3597 27.4211 35.3597 27.8607C35.3597 28.3002 35.1858 28.7219 34.876 29.0337Z" fill="#425BB5"/>
</svg>
