<svg width="80" height="80" viewBox="0 0 80 80" fill="none" xmlns="http://www.w3.org/2000/svg">
<path d="M56.3757 60.1781H43.1644C42.2125 60.1781 41.4389 59.4045 41.4389 58.4526V40.2489C41.4389 39.297 42.2125 38.5234 43.1644 38.5234H60.9079C61.785 38.5234 62.5241 39.182 62.6219 40.0534L63.9505 51.6916C64.1978 53.8485 63.5105 56.0111 62.064 57.6301C60.6175 59.2492 58.5469 60.1781 56.3757 60.1781ZM44.8898 56.7271H56.3757C57.5807 56.7271 58.685 56.2325 59.4873 55.3324C60.2896 54.4323 60.6549 53.2791 60.5197 52.0827L59.3665 41.9744H44.8898V56.7271ZM36.714 60.1781H23.6234C21.4551 60.1781 19.3817 59.2492 17.9351 57.6301C16.4886 56.0111 15.8042 53.8456 16.0486 51.6916L17.3772 40.0534C17.4254 39.6325 17.6267 39.244 17.9428 38.9619C18.2588 38.6798 18.6676 38.5237 19.0912 38.5234H36.7111C37.663 38.5234 38.4366 39.297 38.4366 40.2489V58.4526C38.4395 59.4045 37.6687 60.1781 36.714 60.1781ZM20.6326 41.9744L19.4794 52.0827C19.3443 53.2791 19.7095 54.4351 20.5118 55.3324C21.3142 56.2325 22.4185 56.7271 23.6234 56.7271H34.9885V41.9744H20.6326Z" fill="#555555"/>
<path d="M60.3189 35.6939H43.1649C42.213 35.6939 41.4395 34.9203 41.4395 33.9684V20.7255C41.4395 19.7736 42.213 19 43.1649 19H53.5465C57.423 19 60.6813 21.9045 61.1184 25.7581L62.0329 33.7729C62.0876 34.2618 61.9323 34.7506 61.6073 35.1187C61.2795 35.484 60.8107 35.6939 60.3189 35.6939ZM44.8904 32.243H58.3864L57.6905 26.1492C57.4489 24.0412 55.6688 22.4509 53.5465 22.4509H44.8904V32.243Z" fill="#425BB5"/>
<path d="M36.7139 35.6939H19.6807C19.1889 35.6939 18.7202 35.484 18.3923 35.1187C18.2303 34.9373 18.1085 34.7235 18.0351 34.4915C17.9618 34.2595 17.9385 34.0146 17.9667 33.7729L18.8812 25.7581C19.3212 21.9045 22.5766 19 26.4532 19H36.7111C37.6629 19 38.4365 19.7736 38.4365 20.7255V33.9684C38.4394 34.9232 37.6687 35.6939 36.7139 35.6939ZM21.6161 32.243H34.9913V22.4509H26.456C24.3337 22.4509 22.5507 24.0412 22.312 26.1492L21.6161 32.243Z" fill="#555555"/>
</svg>
