<svg width="80" height="80" viewBox="0 0 80 80" fill="none" xmlns="http://www.w3.org/2000/svg">
<path d="M36.7533 57.3137H22.3856C20.6296 57.3137 19.1928 55.877 19.1928 54.1209V25.3856C19.1928 23.6296 20.6296 22.1928 22.3856 22.1928H47.9281C49.6842 22.1928 51.1209 23.6296 51.1209 25.3856V42.9461C51.1209 43.8401 51.8233 44.5425 52.7173 44.5425C53.6113 44.5425 54.3137 43.8401 54.3137 42.9461V25.3856C54.3137 21.8735 51.4402 19 47.9281 19H22.3856C18.8735 19 16 21.8735 16 25.3856V54.1209C16 57.633 18.8735 60.5065 22.3856 60.5065H36.7533C37.6473 60.5065 38.3497 59.8041 38.3497 58.9101C38.3497 58.0162 37.6473 57.3137 36.7533 57.3137ZM43.1389 28.5784H27.1748C26.2809 28.5784 25.5784 29.2809 25.5784 30.1748C25.5784 31.0688 26.2809 31.7712 27.1748 31.7712H43.1389C44.0329 31.7712 44.7353 31.0688 44.7353 30.1748C44.7353 29.2809 44.0329 28.5784 43.1389 28.5784ZM44.7353 39.7533C44.7353 38.8593 44.0329 38.1569 43.1389 38.1569H27.1748C26.2809 38.1569 25.5784 38.8593 25.5784 39.7533C25.5784 40.6473 26.2809 41.3497 27.1748 41.3497H43.1389C44.0329 41.3497 44.7353 40.6473 44.7353 39.7533ZM27.1748 47.7353C26.2809 47.7353 25.5784 48.4377 25.5784 49.3317C25.5784 50.2257 26.2809 50.9281 27.1748 50.9281H33.5605C34.4544 50.9281 35.1569 50.2257 35.1569 49.3317C35.1569 48.4377 34.4544 47.7353 33.5605 47.7353H27.1748ZM63.541 44.8937C62.9343 44.2871 61.9445 44.2871 61.3379 44.8937L49.4926 56.739L44.1287 51.3751C43.522 50.7685 42.5642 50.7685 41.9895 51.3751C41.3828 51.9817 41.3828 52.9396 41.9895 53.5143L48.1197 59.6445C48.1835 59.8041 48.2793 59.9318 48.407 60.0595C49.0137 60.6662 50.0034 60.6662 50.6101 60.0595L63.5729 47.0967C64.1476 46.4901 64.1476 45.5003 63.541 44.8937Z" fill="#555555" stroke="#555555" stroke-width="0.5"/>
<rect x="25" y="28" width="20" height="4" rx="2" fill="#425BB5"/>
<rect x="25" y="38" width="20" height="4" rx="2" fill="#425BB5"/>
<rect x="25" y="47" width="11" height="4" rx="2" fill="#425BB5"/>
</svg>
