<svg width="80" height="80" viewBox="0 0 80 80" fill="none" xmlns="http://www.w3.org/2000/svg">
<path d="M37.8556 38.1722C31.4667 38.1722 26.2695 32.975 26.2695 26.5861C26.2695 20.1972 31.4696 15 37.8556 15C44.2416 15 49.4417 20.1977 49.4417 26.5861C49.4417 32.9744 44.244 38.1722 37.8556 38.1722ZM37.8556 18.554C33.4267 18.554 29.8235 22.1572 29.8235 26.5861C29.8235 31.015 33.4267 34.6182 37.8556 34.6182C42.2845 34.6182 45.8877 31.015 45.8877 26.5861C45.8877 22.1572 42.2845 18.554 37.8556 18.554Z" fill="#555555"/>
<path d="M43.2318 60.2832H15.777C15.3057 60.2832 14.8537 60.096 14.5205 59.7627C14.1872 59.4295 14 58.9775 14 58.5062C14.0011 54.3302 15.098 50.2275 17.1812 46.6082C19.2644 42.9889 22.261 39.9797 25.8714 37.8812C29.4819 35.7827 33.5798 34.6684 37.7558 34.6497C41.9318 34.6309 46.0395 35.7084 49.6687 37.7744C50.1283 38.0368 50.5844 38.3182 51.0257 38.6108C51.4043 38.8771 51.664 39.2805 51.7497 39.7353C51.8353 40.1901 51.7402 40.6604 51.4845 41.0461C51.2287 41.4319 50.8326 41.7026 50.3804 41.8008C49.9281 41.899 49.4554 41.8169 49.0627 41.5719C48.6872 41.3231 48.2986 41.0838 47.9077 40.8611C44.8452 39.1177 41.3815 38.2017 37.8575 38.2033C27.2612 38.2033 18.5349 46.3627 17.6322 56.7286H43.233C43.7042 56.7287 44.1561 56.9159 44.4893 57.2492C44.8225 57.5824 45.0097 58.0344 45.0097 58.5056C45.0097 58.9768 44.8225 59.4288 44.4893 59.762C44.1561 60.0953 43.7042 60.2825 43.233 60.2826L43.2318 60.2832Z" fill="#555555"/>
<path d="M37.8571 55.4919C37.6782 55.4919 37.5012 55.4552 37.3371 55.3838C37.173 55.3125 37.0254 55.2081 36.9034 55.0773L33.8576 51.8099C33.7309 51.6739 33.6347 51.5124 33.5755 51.3362C33.5164 51.1599 33.4956 50.9731 33.5147 50.7881L34.4879 41.3203C34.5208 40.9995 34.6716 40.7023 34.911 40.4862C35.1504 40.2701 35.4614 40.1505 35.7839 40.1504H39.9302C40.2528 40.1503 40.564 40.2699 40.8035 40.486C41.043 40.7021 41.1939 40.9994 41.2269 41.3203L42.1989 50.7887C42.2179 50.9737 42.1971 51.1605 42.138 51.3368C42.0788 51.513 41.9827 51.6745 41.8559 51.8105L38.8101 55.0773C38.6882 55.2081 38.5407 55.3124 38.3767 55.3837C38.2128 55.455 38.0359 55.4919 37.8571 55.4919ZM36.1677 50.4659L37.8571 52.2779L39.5458 50.4659L38.7568 42.7567H36.9603L36.1677 50.4659Z" fill="#555555"/>
<path d="M52.708 64.5889C49.6329 64.5889 46.6528 63.5226 44.2757 61.5718C41.8986 59.6209 40.2714 56.9062 39.6715 53.8901C39.0715 50.8741 39.5359 47.7433 40.9855 45.0312C42.4351 42.3191 44.7802 40.1936 47.6212 39.0168C50.4623 37.8399 53.6235 37.6845 56.5663 38.5772C59.5091 39.4698 62.0513 41.3551 63.7598 43.912C65.4683 46.4689 66.2374 49.539 65.9361 52.5994C65.6348 55.6598 64.2816 58.521 62.1072 60.6955C60.8758 61.9337 59.411 62.9154 57.7976 63.5837C56.1842 64.252 54.4543 64.5937 52.708 64.5889ZM52.708 41.5589C47.3385 41.5589 42.97 45.9274 42.97 51.2969C42.97 56.6664 47.3385 61.0349 52.708 61.0349C58.0775 61.0349 62.446 56.6664 62.446 51.2969C62.446 45.9274 58.0775 41.5589 52.708 41.5589Z" fill="#425BB5"/>
<path d="M55.2605 51.1209H50.1575C49.8119 51.1209 49.4804 50.9836 49.236 50.7392C48.9917 50.4949 48.8544 50.1634 48.8544 49.8178C48.8544 49.4722 48.9917 49.1407 49.236 48.8963C49.4804 48.6519 49.8119 48.5146 50.1575 48.5146H55.2605C55.6061 48.5146 55.9375 48.6519 56.1819 48.8963C56.4263 49.1407 56.5636 49.4722 56.5636 49.8178C56.5636 50.1634 56.4263 50.4949 56.1819 50.7392C55.9375 50.9836 55.6061 51.1209 55.2605 51.1209ZM55.7906 55.3034H49.6274C49.2817 55.3034 48.9503 55.1661 48.7059 54.9217C48.4615 54.6773 48.3242 54.3459 48.3242 54.0003C48.3242 53.6547 48.4615 53.3232 48.7059 53.0788C48.9503 52.8344 49.2817 52.6971 49.6274 52.6971H55.7906C56.1362 52.6971 56.4677 52.8344 56.7121 53.0788C56.9565 53.3232 57.0938 53.6547 57.0938 54.0003C57.0938 54.3459 56.9565 54.6773 56.7121 54.9217C56.4677 55.1661 56.1362 55.3034 55.7906 55.3034Z" fill="#425BB5"/>
<path d="M52.7074 59.2229C52.5363 59.2229 52.3668 59.1892 52.2087 59.1237C52.0506 59.0582 51.907 58.9622 51.786 58.8412C51.665 58.7202 51.569 58.5765 51.5035 58.4184C51.438 58.2603 51.4043 58.0909 51.4043 57.9198V49.8178C51.4043 49.4722 51.5416 49.1407 51.786 48.8963C52.0304 48.6519 52.3618 48.5146 52.7074 48.5146C53.053 48.5146 53.3845 48.6519 53.6289 48.8963C53.8733 49.1407 54.0106 49.4722 54.0106 49.8178V57.9198C54.0106 58.2654 53.8733 58.5968 53.6289 58.8412C53.3845 59.0856 53.053 59.2229 52.7074 59.2229Z" fill="#425BB5"/>
<path d="M51.9299 50.0093C51.6935 50.0092 51.4615 49.9447 51.2588 49.8229C51.0562 49.701 50.8905 49.5263 50.7796 49.3174L49.2668 46.4701C49.1079 46.1654 49.0758 45.8103 49.1775 45.4821C49.2791 45.1539 49.5062 44.8791 49.8095 44.7175C50.1127 44.556 50.4675 44.5207 50.7966 44.6194C51.1257 44.7181 51.4025 44.9428 51.5668 45.2445L53.0796 48.0925C53.1851 48.291 53.2374 48.5134 53.2315 48.738C53.2256 48.9627 53.1616 49.182 53.0459 49.3747C52.9302 49.5674 52.7666 49.7268 52.5711 49.8376C52.3755 49.9484 52.1547 50.0067 51.9299 50.0069V50.0093Z" fill="#425BB5"/>
<path d="M53.4856 50.0091C53.2608 50.0089 53.04 49.9506 52.8444 49.8398C52.6489 49.7291 52.4853 49.5696 52.3696 49.3769C52.2539 49.1842 52.19 48.9649 52.184 48.7402C52.1781 48.5156 52.2304 48.2932 52.3359 48.0947L53.8487 45.2444C54.0112 44.9398 54.288 44.7121 54.6183 44.6114C54.9485 44.5107 55.3052 44.5451 55.6101 44.7071C55.915 44.8691 56.1431 45.1455 56.2445 45.4755C56.3458 45.8056 56.312 46.1624 56.1505 46.4676L54.6377 49.3149C54.5269 49.5245 54.3611 49.6998 54.1581 49.8222C53.9551 49.9445 53.7226 50.0091 53.4856 50.0091Z" fill="#425BB5"/>
</svg>
