<svg width="80" height="80" viewBox="0 0 80 80" fill="none" xmlns="http://www.w3.org/2000/svg">
<path d="M56.4605 61.9207H23.5395C19.9342 61.9207 17 58.9865 17 55.3812V24.6049C17 20.9996 19.9342 18.0654 23.5395 18.0654H56.4605C60.0658 18.0654 63 20.9996 63 24.6049V55.3944C63 58.9865 60.0658 61.9207 56.4605 61.9207ZM23.5395 20.7102C22.503 20.7102 21.509 21.1219 20.7762 21.8548C20.0433 22.5876 19.6316 23.5816 19.6316 24.6181V55.3944C19.6316 56.4308 20.0433 57.4248 20.7762 58.1577C21.509 58.8906 22.503 59.3023 23.5395 59.3023H56.4605C57.497 59.3023 58.491 58.8906 59.2238 58.1577C59.9567 57.4248 60.3684 56.4308 60.3684 55.3944V24.6049C60.3684 23.5685 59.9567 22.5745 59.2238 21.8416C58.491 21.1087 57.497 20.697 56.4605 20.697H23.5395V20.7102Z" fill="#555555" stroke="#555555" stroke-width="0.5"/>
<path d="M27.1049 56.1052C26.3812 56.1052 25.7891 55.5131 25.7891 54.7894V37.0131C25.7891 36.2894 26.3812 35.6973 27.1049 35.6973C27.8285 35.6973 28.4206 36.2894 28.4206 37.0131V54.8025C28.4172 55.1492 28.277 55.4805 28.0306 55.7244C27.7843 55.9684 27.4516 56.1052 27.1049 56.1052ZM36.1312 56.1052C35.4075 56.1052 34.8154 55.5131 34.8154 54.7894V46.7631C34.8154 46.0394 35.4075 45.4473 36.1312 45.4473C36.8549 45.4473 37.447 46.0394 37.447 46.7631V54.7894C37.447 55.5131 36.8549 56.1052 36.1312 56.1052ZM45.1443 56.1052C44.4206 56.1052 43.8285 55.5131 43.8285 54.7894V45.1973C43.8285 44.4736 44.4206 43.8815 45.1443 43.8815C45.868 43.8815 46.4601 44.4736 46.4601 45.1973V54.7894C46.4601 55.5131 45.868 56.1052 45.1443 56.1052ZM54.1575 56.1052C53.4338 56.1052 52.8417 55.5131 52.8417 54.7894V47.8025C52.8417 47.0788 53.4338 46.4867 54.1575 46.4867C54.8812 46.4867 55.4733 47.0788 55.4733 47.8025V54.7894C55.4733 55.5131 54.8943 56.1052 54.1575 56.1052Z" fill="#555555" stroke="#555555" stroke-width="0.5"/>
<path d="M41.4994 41.0396C41.2483 41.0383 41.0028 40.9658 40.7914 40.8304C40.58 40.6951 40.4114 40.5024 40.3052 40.2749C40.1991 40.0474 40.1597 39.7945 40.1918 39.5455C40.2238 39.2965 40.3259 39.0617 40.4862 38.8685L52.1441 25.0922C52.6178 24.5396 53.4468 24.4738 53.9994 24.9343C54.552 25.408 54.6178 26.2369 54.1573 26.7896L42.4994 40.5659C42.3789 40.7148 42.2265 40.8347 42.0534 40.9167C41.8803 40.9987 41.6909 41.0407 41.4994 41.0396ZM42.7099 32.1054C41.9136 32.1054 41.1351 31.8692 40.473 31.4268C39.8109 30.9844 39.2948 30.3556 38.9901 29.6199C38.6853 28.8841 38.6056 28.0746 38.761 27.2936C38.9163 26.5125 39.2998 25.7951 39.8629 25.232C40.426 24.6689 41.1434 24.2855 41.9244 24.1301C42.7054 23.9747 43.515 24.0545 44.2507 24.3592C44.9864 24.664 45.6153 25.18 46.0577 25.8422C46.5001 26.5043 46.7362 27.2827 46.7362 28.0791C46.7362 30.3027 44.9204 32.1054 42.7099 32.1054ZM42.7099 26.6843C42.4341 26.6843 42.1644 26.7661 41.935 26.9194C41.7057 27.0726 41.5269 27.2905 41.4213 27.5453C41.3158 27.8002 41.2882 28.0806 41.342 28.3512C41.3958 28.6217 41.5286 28.8702 41.7237 29.0653C41.9187 29.2603 42.1673 29.3932 42.4378 29.447C42.7084 29.5008 42.9888 29.4732 43.2437 29.3676C43.4985 29.2621 43.7163 29.0833 43.8696 28.8539C44.0228 28.6246 44.1046 28.3549 44.1046 28.0791C44.1046 27.3159 43.4731 26.6843 42.7099 26.6843ZM51.9731 41.6054C49.7625 41.6054 47.9731 39.8159 47.9731 37.6054C47.9731 35.3948 49.7625 33.6054 51.9731 33.6054C54.1836 33.6054 55.9731 35.3948 55.9731 37.6054C55.9731 39.8159 54.1836 41.6054 51.9731 41.6054ZM51.9731 36.2238C51.2231 36.2238 50.6046 36.8422 50.6046 37.5922C50.6046 38.3422 51.2231 38.9606 51.9731 38.9606C52.7231 38.9606 53.3415 38.3422 53.3415 37.5922C53.3415 36.8422 52.7362 36.2238 51.9731 36.2238Z" fill="#425BB5"/>
</svg>
