<svg width="80" height="80" viewBox="0 0 80 80" fill="none" xmlns="http://www.w3.org/2000/svg">
<path d="M36.7866 59.7143H23.5714C22.7 59.7143 21.8643 59.3681 21.2481 58.7519C20.6319 58.1357 20.2857 57.3 20.2857 56.4286V23.5714C20.2857 22.7 20.6319 21.8643 21.2481 21.2481C21.8643 20.6319 22.7 20.2857 23.5714 20.2857H53.1429C54.0143 20.2857 54.85 20.6319 55.4662 21.2481C56.0824 21.8643 56.4286 22.7 56.4286 23.5714V34.8151C57.6114 35.3343 58.6924 36.0177 59.7143 36.7899V23.5714C59.7143 21.8286 59.0219 20.1571 57.7896 18.9247C56.5572 17.6923 54.8857 17 53.1429 17H23.5714C21.8286 17 20.1571 17.6923 18.9247 18.9247C17.6923 20.1571 17 21.8286 17 23.5714V56.4286C17 58.1714 17.6923 59.8429 18.9247 61.0753C20.1571 62.3077 21.8286 63 23.5714 63H40.0887C38.8386 62.0659 37.7269 60.9597 36.7866 59.7143Z" fill="#555555"/>
<path d="M49.8577 36.7139C46.372 36.7139 43.0291 38.0986 40.5643 40.5633C38.0995 43.0281 36.7148 46.371 36.7148 49.8567C36.7148 53.3424 38.0995 56.6854 40.5643 59.1501C43.0291 61.6149 46.372 62.9996 49.8577 62.9996C53.3434 62.9996 56.6863 61.6149 59.1511 59.1501C61.6159 56.6854 63.0006 53.3424 63.0006 49.8567C63.0006 46.371 61.6159 43.0281 59.1511 40.5633C56.6863 38.0986 53.3434 36.7139 49.8577 36.7139ZM49.8577 59.7073C47.2447 59.7073 44.7388 58.6693 42.8911 56.8216C41.0435 54.974 40.0055 52.4681 40.0055 49.8551C40.0055 47.2421 41.0435 44.7362 42.8911 42.8885C44.7388 41.0409 47.2447 40.0029 49.8577 40.0029C52.4707 40.0029 54.9766 41.0409 56.8243 42.8885C58.6719 44.7362 59.7099 47.2421 59.7099 49.8551C59.7099 52.4681 58.6719 54.974 56.8243 56.8216C54.9766 58.6693 52.4707 59.7073 49.8577 59.7073Z" fill="#425BB5"/>
<path d="M52.0227 47.4159L49.8574 43.2857L47.6921 47.4159L43.286 48.3063L46.3548 51.7464L45.7963 56.4286L49.8574 54.4276L53.9186 56.4286L53.36 51.7464L56.4288 48.3063L52.0227 47.4159ZM49.8574 30.1429C49.8574 29.7071 49.6843 29.2893 49.3762 28.9812C49.0681 28.6731 48.6503 28.5 48.2146 28.5H28.5003C28.0646 28.5 27.6467 28.6731 27.3386 28.9812C27.0305 29.2893 26.8574 29.7071 26.8574 30.1429C26.8574 30.5786 27.0305 30.9964 27.3386 31.3045C27.6467 31.6126 28.0646 31.7857 28.5003 31.7857H48.2146C48.6503 31.7857 49.0681 31.6126 49.3762 31.3045C49.6843 30.9964 49.8574 30.5786 49.8574 30.1429ZM38.3574 38.3571C38.3574 37.9214 38.1843 37.5036 37.8762 37.1955C37.5681 36.8874 37.1503 36.7143 36.7146 36.7143H28.5003C28.0646 36.7143 27.6467 36.8874 27.3386 37.1955C27.0305 37.5036 26.8574 37.9214 26.8574 38.3571C26.8574 38.7929 27.0305 39.2107 27.3386 39.5188C27.6467 39.8269 28.0646 40 28.5003 40H36.7146C37.1503 40 37.5681 39.8269 37.8762 39.5188C38.1843 39.2107 38.3574 38.7929 38.3574 38.3571ZM28.5003 44.9286C28.0646 44.9286 27.6467 45.1017 27.3386 45.4098C27.0305 45.7178 26.8574 46.1357 26.8574 46.5714C26.8574 47.0071 27.0305 47.425 27.3386 47.7331C27.6467 48.0412 28.0646 48.2143 28.5003 48.2143H31.786C32.2217 48.2143 32.6396 48.0412 32.9477 47.7331C33.2558 47.425 33.4289 47.0071 33.4289 46.5714C33.4289 46.1357 33.2558 45.7178 32.9477 45.4098C32.6396 45.1017 32.2217 44.9286 31.786 44.9286H28.5003Z" fill="#555555"/>
</svg>
