<svg width="80" height="80" viewBox="0 0 80 80" fill="none" xmlns="http://www.w3.org/2000/svg">
<path d="M40 64C53.2555 64 64 53.2555 64 40C64 26.7445 53.2555 16 40 16C26.7445 16 16 26.7445 16 40C16 53.2555 26.7445 64 40 64ZM40 61C28.402 61 19 51.598 19 40C19 28.402 28.402 19 40 19C51.598 19 61 28.402 61 40C61 51.598 51.598 61 40 61ZM50.6065 29.3935C50.3252 29.1123 49.9437 28.9543 49.546 28.9543C49.1483 28.9543 48.7668 29.1123 48.4855 29.3935L29.3935 48.4855C29.1203 48.7684 28.9691 49.1473 28.9725 49.5406C28.9759 49.9339 29.1337 50.3101 29.4118 50.5882C29.6899 50.8663 30.0661 51.0241 30.4594 51.0275C30.8527 51.0309 31.2316 50.8797 31.5145 50.6065L50.6065 31.5145C50.8877 31.2332 51.0457 30.8517 51.0457 30.454C51.0457 30.0563 50.8877 29.6748 50.6065 29.3935ZM40 40L30.454 49.546L40 40ZM47.5 52C48.6935 52 49.8381 51.5259 50.682 50.682C51.5259 49.8381 52 48.6935 52 47.5C52 46.3065 51.5259 45.1619 50.682 44.318C49.8381 43.4741 48.6935 43 47.5 43C46.3065 43 45.1619 43.4741 44.318 44.318C43.4741 45.1619 43 46.3065 43 47.5C43 48.6935 43.4741 49.8381 44.318 50.682C45.1619 51.5259 46.3065 52 47.5 52ZM47.5 49C47.1022 49 46.7206 48.842 46.4393 48.5607C46.158 48.2794 46 47.8978 46 47.5C46 47.1022 46.158 46.7206 46.4393 46.4393C46.7206 46.158 47.1022 46 47.5 46C47.8978 46 48.2794 46.158 48.5607 46.4393C48.842 46.7206 49 47.1022 49 47.5C49 47.8978 48.842 48.2794 48.5607 48.5607C48.2794 48.842 47.8978 49 47.5 49ZM32.5 37C33.0909 37 33.6761 36.8836 34.2221 36.6575C34.768 36.4313 35.2641 36.0998 35.682 35.682C36.0998 35.2641 36.4313 34.768 36.6575 34.2221C36.8836 33.6761 37 33.0909 37 32.5C37 31.9091 36.8836 31.3239 36.6575 30.7779C36.4313 30.232 36.0998 29.7359 35.682 29.318C35.2641 28.9002 34.768 28.5687 34.2221 28.3425C33.6761 28.1164 33.0909 28 32.5 28C31.3065 28 30.1619 28.4741 29.318 29.318C28.4741 30.1619 28 31.3065 28 32.5C28 33.6935 28.4741 34.8381 29.318 35.682C30.1619 36.5259 31.3065 37 32.5 37ZM32.5 34C32.1022 34 31.7206 33.842 31.4393 33.5607C31.158 33.2794 31 32.8978 31 32.5C31 32.1022 31.158 31.7206 31.4393 31.4393C31.7206 31.158 32.1022 31 32.5 31C32.8978 31 33.2794 31.158 33.5607 31.4393C33.842 31.7206 34 32.1022 34 32.5C34 32.8978 33.842 33.2794 33.5607 33.5607C33.2794 33.842 32.8978 34 32.5 34Z" fill="#425BB5"/>
<path fill-rule="evenodd" clip-rule="evenodd" d="M64 40C64 53.2555 53.2555 64 40 64C26.7445 64 16 53.2555 16 40C16 26.7445 26.7445 16 40 16C53.2555 16 64 26.7445 64 40ZM19 40C19 51.598 28.402 61 40 61C51.598 61 61 51.598 61 40C61 28.402 51.598 19 40 19C28.402 19 19 28.402 19 40Z" fill="#555555" stroke="#555555" stroke-width="0.5"/>
</svg>
