<svg width="80" height="80" viewBox="0 0 80 80" fill="none" xmlns="http://www.w3.org/2000/svg">
<path d="M60.4273 53.7383H19.5727C18.8904 53.7383 18.236 53.4672 17.7535 52.9847C17.2711 52.5023 17 51.8479 17 51.1655V19.5727C17 18.8904 17.2711 18.236 17.7535 17.7535C18.236 17.2711 18.8904 17 19.5727 17H60.4273C61.1096 17 61.764 17.2711 62.2465 17.7535C62.7289 18.236 63 18.8904 63 19.5727V51.1655C63 51.8479 62.7289 52.5023 62.2465 52.9847C61.764 53.4672 61.1096 53.7383 60.4273 53.7383ZM59.9128 21.1163C59.9128 20.8434 59.8043 20.5817 59.6113 20.3887C59.4184 20.1957 59.1566 20.0872 58.8837 20.0872H21.1163C20.8434 20.0872 20.5817 20.1957 20.3887 20.3887C20.1957 20.5817 20.0872 20.8434 20.0872 21.1163V49.6219C20.0872 49.8949 20.1957 50.1566 20.3887 50.3496C20.5817 50.5426 20.8434 50.651 21.1163 50.651H58.8837C59.1566 50.651 59.4184 50.5426 59.6113 50.3496C59.8043 50.1566 59.9128 49.8949 59.9128 49.6219V21.1163ZM23.0201 59.9128H56.9799C57.3893 59.9128 57.7819 60.0754 58.0714 60.3649C58.3609 60.6544 58.5235 61.047 58.5235 61.4564C58.5235 61.8658 58.3609 62.2584 58.0714 62.5479C57.7819 62.8374 57.3893 63 56.9799 63H23.0201C22.6107 63 22.2181 62.8374 21.9286 62.5479C21.6391 62.2584 21.4765 61.8658 21.4765 61.4564C21.4765 61.047 21.6391 60.6544 21.9286 60.3649C22.2181 60.0754 22.6107 59.9128 23.0201 59.9128Z" fill="#555555"/>
<path fill-rule="evenodd" clip-rule="evenodd" d="M44.0023 40.9157C44.4116 40.9157 44.8043 40.753 45.0938 40.4635L53.0976 32.4592C53.242 32.3161 53.3567 32.1459 53.4351 31.9584C53.5135 31.7708 53.5541 31.5696 53.5545 31.3663C53.555 31.1631 53.5152 30.9617 53.4377 30.7738C53.3601 30.5859 53.2461 30.4152 53.1024 30.2715C52.9587 30.1277 52.7879 30.0138 52.6 29.9362C52.4122 29.8586 52.2108 29.8189 52.0075 29.8193C51.8042 29.8198 51.603 29.8604 51.4155 29.9388C51.2279 30.0172 51.0577 30.1319 50.9146 30.2762L44.0017 37.1891L37.0888 30.2762C36.7993 29.9868 36.4067 29.8241 35.9973 29.8241C35.5879 29.8241 35.1953 29.9868 34.9058 30.2762L26.9013 38.2806C26.6118 38.57 26.4492 38.9627 26.4492 39.3721C26.4492 39.7815 26.6119 40.1741 26.9014 40.4636C27.1908 40.7531 27.5835 40.9157 27.9929 40.9157C28.4023 40.9157 28.7949 40.753 29.0844 40.4635L35.9976 33.5504L42.9108 40.4635C43.2002 40.753 43.5929 40.9157 44.0023 40.9157Z" fill="#425BB5"/>
</svg>
