<svg width="80" height="80" viewBox="0 0 80 80" fill="none" xmlns="http://www.w3.org/2000/svg">
<path d="M31.4086 17.2511C31.7997 17.082 32.2218 16.9965 32.6478 17.0001C33.0739 17.0037 33.4945 17.0964 33.8826 17.2722L47.2549 23.3283L58.7767 21.68C60.779 21.3935 62.6358 22.7677 62.9535 24.7576L62.9627 24.8181C62.9875 24.9916 63 25.1666 63 25.342V57.4312C63 59.3198 61.5774 60.9052 59.6998 61.1089L48.2518 62.3515C47.7308 62.408 47.2041 62.3297 46.7221 62.1239L32.7461 56.157L22.529 61.9715C20.771 62.972 18.5398 62.374 17.5149 60.639L17.4842 60.5861C17.1669 60.0285 17 59.398 17 58.7564V25.9142C17 24.4389 17.8766 23.1046 19.2306 22.519L31.4086 17.2511ZM32.6171 20.5836L20.6354 25.7666C20.6066 25.7791 20.5821 25.7997 20.5648 25.8259C20.5476 25.8521 20.5384 25.8828 20.5384 25.9142V58.7564C20.5384 58.7845 20.5458 58.8122 20.5598 58.8366C20.5739 58.861 20.5941 58.8813 20.6184 58.8954C20.6427 58.9096 20.6703 58.9171 20.6985 58.9172C20.7266 58.9174 20.7543 58.9101 20.7787 58.8962L31.2041 52.9634C31.6136 52.7304 32.0713 52.5952 32.5417 52.5684C33.012 52.5416 33.4822 52.6239 33.9155 52.8089L47.9951 58.8199L59.318 57.5912C59.3543 57.5872 59.3881 57.5711 59.414 57.5455C59.4398 57.5198 59.4562 57.4861 59.4605 57.4499L59.4615 57.4312V25.3419C59.4615 25.3189 59.4566 25.2961 59.447 25.2752C59.4374 25.2542 59.4235 25.2355 59.406 25.2204C59.3886 25.2054 59.3682 25.1942 59.3461 25.1877C59.324 25.1812 59.3007 25.1795 59.2779 25.1828L47.6169 26.8511C47.0409 26.9335 46.4534 26.8498 45.9234 26.6098L32.6171 20.5836ZM35.0587 28.6209L40.0402 33.5963L44.8608 28.7815L47.3629 31.2806L41.8586 36.778H47.5594V40.3122H41.7692V44.007H47.5594V47.5411H41.7692V52.0391H38.2307V47.5411H32.4405V44.007H38.2307V40.3122H32.4405V36.778H38.2217L32.5566 31.1199L35.0587 28.6209H35.0587Z" fill="#555555"/>
<path d="M35.0596 28.6211L32.5575 31.1201L38.2226 36.7782H32.4414V40.3124H38.2316V44.0072H32.4414V47.5413H38.2316V52.0393H41.7701V47.5413H47.5603V44.0072H41.7701V40.3124H47.5603V36.7782H41.8595L47.3638 31.2808L44.8617 28.7817L40.0411 33.5965L35.0596 28.6211Z" fill="#425BB5"/>
</svg>
