<svg width="80" height="80" viewBox="0 0 80 80" fill="none" xmlns="http://www.w3.org/2000/svg">
<path d="M34.3543 46.1818H27.2452C25.9907 46.1818 25.1543 45.3455 25.1543 44.0909C25.1543 42.8364 25.9907 42 27.2452 42H34.1452C35.3998 42 36.2361 42.8364 36.2361 44.0909C36.2361 45.3455 35.3998 46.1818 34.3543 46.1818ZM52.127 46.1818H45.227C43.9725 46.1818 43.1361 45.3455 43.1361 44.0909C43.1361 42.8364 43.9725 42 45.227 42H52.127C53.3816 42 54.2179 42.8364 54.2179 44.0909C54.2179 45.3455 53.1725 46.1818 52.127 46.1818Z" fill="#425BB5" stroke="white"/>
<path d="M34.3543 53.1818H27.2452C25.9907 53.1818 25.1543 52.3455 25.1543 51.0909C25.1543 49.8364 25.9907 49 27.2452 49H34.1452C35.3998 49 36.2361 49.8364 36.2361 51.0909C36.2361 52.3455 35.3998 53.1818 34.3543 53.1818ZM52.127 53.1818H45.227C43.9725 53.1818 43.1361 52.3455 43.1361 51.0909C43.1361 49.8364 43.9725 49 45.227 49H52.127C53.3816 49 54.2179 49.8364 54.2179 51.0909C54.2179 52.3455 53.1725 53.1818 52.127 53.1818Z" fill="#425BB5" stroke="white"/>
<path d="M60.9091 21.6H51.2909V19.0909C51.2909 17.8364 50.4545 17 49.2 17C47.9455 17 47.1091 17.8364 47.1091 19.0909V21.6H32.8909V19.0909C32.8909 17.8364 32.0545 17 30.8 17C29.5455 17 28.7091 17.8364 28.7091 19.0909V21.6H19.0909C17.8364 21.6 17 22.4364 17 23.6909V60.9091C17 62.1636 17.8364 63 19.0909 63H60.9091C62.1636 63 63 62.1636 63 60.9091V23.6909C63 22.6455 61.9545 21.6 60.9091 21.6ZM28.7091 25.7818V25.9909C28.7091 27.2455 29.5455 28.0818 30.8 28.0818C32.0545 28.0818 32.8909 27.2455 32.8909 25.9909V25.7818H47.1091V25.9909C47.1091 27.2455 47.9455 28.0818 49.2 28.0818C50.4545 28.0818 51.2909 27.2455 51.2909 25.9909V25.7818H58.8182V32.2636H21.1818V25.7818H28.7091ZM21.1818 58.8182V36.4455H58.8182V58.8182H21.1818Z" fill="#555555" stroke="white"/>
</svg>
