<svg width="80" height="80" viewBox="0 0 80 80" fill="none" xmlns="http://www.w3.org/2000/svg">
<path d="M23.5723 30.1429V37.5357H26.0366V30.1429H23.5723ZM59.7151 17H26.858C25.9866 17 25.1508 17.3462 24.5346 17.9624C23.9184 18.5786 23.5723 19.4143 23.5723 20.2857V26.8571H26.0366V20.2857C26.0366 20.0679 26.1231 19.8589 26.2771 19.7049C26.4312 19.5508 26.6401 19.4643 26.858 19.4643H59.7151C59.933 19.4643 60.1419 19.5508 60.296 19.7049C60.45 19.8589 60.5365 20.0679 60.5365 20.2857V59.7143C60.5365 59.9321 60.45 60.1411 60.296 60.2951C60.1419 60.4492 59.933 60.5357 59.7151 60.5357H26.858C26.6401 60.5357 26.4312 60.4492 26.2771 60.2951C26.1231 60.1411 26.0366 59.9321 26.0366 59.7143V51.5H23.5723V59.7143C23.5723 60.5857 23.9184 61.4214 24.5346 62.0376C25.1508 62.6538 25.9866 63 26.858 63H59.7151C60.5865 63 61.4223 62.6538 62.0385 62.0376C62.6547 61.4214 63.0008 60.5857 63.0008 59.7143V20.2857C63.0008 19.4143 62.6547 18.5786 62.0385 17.9624C61.4223 17.3462 60.5865 17 59.7151 17ZM26.0366 40.8214H23.5723V48.2143H26.0366V40.8214Z" fill="#555555" stroke="#555555" stroke-width="0.5"/>
<path d="M28.5 25.2139H20.2857C19.4143 25.2139 18.5786 25.56 17.9624 26.1762C17.3462 26.7924 17 27.6282 17 28.4996C17 29.371 17.3462 30.2067 17.9624 30.8229C18.5786 31.4391 19.4143 31.7853 20.2857 31.7853H28.5C29.3714 31.7853 30.2072 31.4391 30.8233 30.8229C31.4395 30.2067 31.7857 29.371 31.7857 28.4996C31.7857 27.6282 31.4395 26.7924 30.8233 26.1762C30.2072 25.56 29.3714 25.2139 28.5 25.2139ZM28.5 30.1424H20.2857C19.85 30.1424 19.4321 29.9694 19.124 29.6613C18.8159 29.3532 18.6429 28.9353 18.6429 28.4996C18.6429 28.0639 18.8159 27.646 19.124 27.3379C19.4321 27.0298 19.85 26.8567 20.2857 26.8567H28.5C28.9357 26.8567 29.3536 27.0298 29.6617 27.3379C29.9698 27.646 30.1429 28.0639 30.1429 28.4996C30.1429 28.9353 29.9698 29.3532 29.6617 29.6613C29.3536 29.9694 28.9357 30.1424 28.5 30.1424ZM28.5 35.8924H20.2857C19.4143 35.8924 18.5786 36.2386 17.9624 36.8548C17.3462 37.471 17 38.3067 17 39.1782C17 40.0496 17.3462 40.8853 17.9624 41.5015C18.5786 42.1177 19.4143 42.4639 20.2857 42.4639H28.5C29.3714 42.4639 30.2072 42.1177 30.8233 41.5015C31.4395 40.8853 31.7857 40.0496 31.7857 39.1782C31.7857 38.3067 31.4395 37.471 30.8233 36.8548C30.2072 36.2386 29.3714 35.8924 28.5 35.8924ZM28.5 40.821H20.2857C19.85 40.821 19.4321 40.6479 19.124 40.3398C18.8159 40.0317 18.6429 39.6139 18.6429 39.1782C18.6429 38.7424 18.8159 38.3246 19.124 38.0165C19.4321 37.7084 19.85 37.5353 20.2857 37.5353H28.5C28.9357 37.5353 29.3536 37.7084 29.6617 38.0165C29.9698 38.3246 30.1429 38.7424 30.1429 39.1782C30.1429 39.6139 29.9698 40.0317 29.6617 40.3398C29.3536 40.6479 28.9357 40.821 28.5 40.821ZM28.5 46.571H20.2857C19.4143 46.571 18.5786 46.9172 17.9624 47.5334C17.3462 48.1496 17 48.9853 17 49.8567C17 50.7282 17.3462 51.5639 17.9624 52.1801C18.5786 52.7963 19.4143 53.1424 20.2857 53.1424H28.5C29.3714 53.1424 30.2072 52.7963 30.8233 52.1801C31.4395 51.5639 31.7857 50.7282 31.7857 49.8567C31.7857 48.9853 31.4395 48.1496 30.8233 47.5334C30.2072 46.9172 29.3714 46.571 28.5 46.571ZM28.5 51.4996H20.2857C19.85 51.4996 19.4321 51.3265 19.124 51.0184C18.8159 50.7103 18.6429 50.2924 18.6429 49.8567C18.6429 49.421 18.8159 49.0031 19.124 48.695C19.4321 48.387 19.85 48.2139 20.2857 48.2139H28.5C28.9357 48.2139 29.3536 48.387 29.6617 48.695C29.9698 49.0031 30.1429 49.421 30.1429 49.8567C30.1429 50.2924 29.9698 50.7103 29.6617 51.0184C29.3536 51.3265 28.9357 51.4996 28.5 51.4996Z" fill="#555555" stroke="#555555" stroke-width="0.5"/>
<path d="M36.3044 50.6787H56.0187C56.8401 50.6787 57.2508 51.0894 57.2508 51.9109C57.2508 52.7323 56.8401 53.143 56.0187 53.143H36.3044C35.483 53.143 35.0723 52.7323 35.0723 51.9109C35.0723 51.0894 35.483 50.6787 36.3044 50.6787Z" fill="#555555" stroke="#555555" stroke-width="0.5"/>
<path d="M36.3044 44.9287H56.0187C56.8401 44.9287 57.2508 45.3394 57.2508 46.1609C57.2508 46.9823 56.8401 47.393 56.0187 47.393H36.3044C35.483 47.393 35.0723 46.9823 35.0723 46.1609C35.0723 45.3394 35.483 44.9287 36.3044 44.9287Z" fill="#555555" stroke="#555555" stroke-width="0.5"/>
<path d="M42.6869 23.5713L46.1615 30.4959L49.6361 23.5713H52.9219L48.5108 31.572H51.4515V33.0999H47.6319V35.0713H51.4515V36.5499H47.6072V39.9999H44.7158V36.5499H40.9208V35.0713H44.7158V33.1245H40.9208V31.5802H43.8369L39.4258 23.5713H42.6869Z" fill="#425BB5"/>
</svg>
