<svg width="80" height="80" viewBox="0 0 80 80" fill="none" xmlns="http://www.w3.org/2000/svg">
<path d="M62.9876 29.2977C63.0299 28.9675 62.9635 28.6326 62.7983 28.3436C62.6332 28.0546 62.3783 27.8273 62.0724 27.6961L40.7946 17.1716C40.5428 17.0585 40.2698 17 39.9938 17C39.7177 17 39.4448 17.0585 39.193 17.1716L18.144 27.6961C17.8124 27.8141 17.5249 28.0308 17.3204 28.3172C17.1158 28.6036 17.004 28.9458 17 29.2977V50.5755C17.0347 50.8909 17.1338 51.1959 17.2912 51.4714C17.4486 51.7469 17.661 51.9871 17.9152 52.1771L39.193 62.7016C39.391 62.8501 39.6319 62.9304 39.8794 62.9304C40.1269 62.9304 40.3677 62.8501 40.5658 62.7016L61.8436 52.1771C62.1495 52.046 62.4044 51.8187 62.5695 51.5297C62.7347 51.2407 62.8011 50.9057 62.7588 50.5755L62.9876 29.2977ZM40.1082 20.3747L57.4965 29.0689L51.3191 32.0432L33.702 23.3491L40.1082 20.3747ZM40.1082 37.7631L22.7198 29.0689L30.0412 25.4082L47.6584 34.1024L40.1082 37.7631ZM20.4319 31.8144L38.2778 40.7374V58.1257L20.4319 49.2028V31.8144ZM41.7097 58.1257V40.7374L49.4887 36.8479V42.5677C49.4853 42.809 49.5304 43.0486 49.6211 43.2722C49.7119 43.4958 49.8466 43.6989 50.0173 43.8695C50.1879 44.0402 50.391 44.1749 50.6146 44.2657C50.8382 44.3565 51.0778 44.4015 51.3191 44.3981C51.5651 44.4206 51.813 44.3887 52.0453 44.3047C52.2776 44.2207 52.4885 44.0866 52.6632 43.9119C52.8379 43.7372 52.972 43.5263 53.056 43.294C53.14 43.0617 53.1719 42.8137 53.1494 42.5677V35.2463L59.5557 32.0432H59.7844V49.4316L41.7097 58.1257Z" fill="#555555"/>
<path fill-rule="evenodd" clip-rule="evenodd" d="M51.5 46C50.6716 46 50 45.3284 50 44.5V37L53 35.5V44.5C53 45.3284 52.3284 46 51.5 46Z" fill="#425BB5" stroke="#425BB5"/>
</svg>
