<svg width="80" height="80" viewBox="0 0 80 80" fill="none" xmlns="http://www.w3.org/2000/svg">
<path d="M18.4375 20C18.8187 20 19.1844 20.1515 19.454 20.421C19.7235 20.6906 19.875 21.0563 19.875 21.4375V57.375H61.5625C61.9437 57.375 62.3094 57.5265 62.579 57.796C62.8486 58.0656 63 58.4313 63 58.8125C63 59.1937 62.8486 59.5594 62.579 59.829C62.3094 60.0986 61.9437 60.25 61.5625 60.25H18.4375C18.2487 60.25 18.0618 60.2128 17.8874 60.1406C17.713 60.0683 17.5545 59.9625 17.421 59.829C17.2875 59.6955 17.1817 59.537 17.1094 59.3626C17.0372 59.1882 17 59.0013 17 58.8125V21.4375C17 21.0563 17.1515 20.6906 17.421 20.421C17.6906 20.1515 18.0563 20 18.4375 20ZM50.5333 40.0341L40.9143 49.8684C40.6595 50.1233 40.3182 50.2732 39.9581 50.2883C39.598 50.3035 39.2454 50.1829 38.97 49.9503C38.6298 49.9242 38.3102 49.7768 38.0694 49.5349L30.3472 41.8133L25.0809 47.0811C24.9474 47.2146 24.7889 47.3205 24.6145 47.3927C24.44 47.465 24.253 47.5022 24.0642 47.5022C23.6829 47.5022 23.3172 47.3507 23.0476 47.0811C22.7779 46.8114 22.6264 46.4457 22.6264 46.0644C22.6264 45.6831 22.7779 45.3174 23.0476 45.0477L29.1462 38.9491C29.2796 38.8156 29.4381 38.7096 29.6126 38.6374C29.787 38.5651 29.974 38.5279 30.1628 38.5279C30.3517 38.5279 30.5386 38.5651 30.7131 38.6374C30.8875 38.7096 31.046 38.8156 31.1795 38.9491L31.1996 38.9707C31.4917 39.0209 31.7609 39.1605 31.9701 39.3703L39.6586 47.0581L48.5 38C48.9264 38.89 49.6433 39.6077 50.5333 40.0341ZM61.2434 27.5066C61.5129 27.7762 61.6643 28.1418 61.6643 28.5229C61.6643 28.9041 61.5129 29.2697 61.2434 29.5393L57.5341 33.0341C57.1077 32.144 56.39 31.4264 55.5 31L59.2108 27.5066C59.4803 27.2371 59.8459 27.0857 60.2271 27.0857C60.6082 27.0857 60.9738 27.2371 61.2434 27.5066Z" fill="#555555" stroke="#555555"/>
<path d="M52.9375 28.625C56.9072 28.625 60.125 31.8428 60.125 35.8125C60.125 39.7822 56.9072 43 52.9375 43C48.9678 43 45.75 39.7822 45.75 35.8125C45.75 31.8428 48.9678 28.625 52.9375 28.625ZM52.9375 31.5C52.3711 31.4999 51.8103 31.6114 51.287 31.8281C50.7638 32.0448 50.2883 32.3625 49.8878 32.7629C49.4873 33.1634 49.1696 33.6388 48.9529 34.1621C48.7361 34.6853 48.6245 35.2461 48.6245 35.8125C48.6245 36.3789 48.7361 36.9397 48.9529 37.4629C49.1696 37.9862 49.4873 38.4616 49.8878 38.8621C50.2883 39.2625 50.7638 39.5802 51.287 39.7969C51.8103 40.0136 52.3711 40.1251 52.9375 40.125C54.0812 40.1249 55.178 39.6705 55.9866 38.8617C56.7953 38.053 57.2495 36.9562 57.2495 35.8125C57.2495 34.6688 56.7953 33.572 55.9866 32.7633C55.178 31.9545 54.0812 31.5001 52.9375 31.5Z" fill="#425BB5"/>
</svg>
