<svg width="80" height="80" viewBox="0 0 80 80" fill="none" xmlns="http://www.w3.org/2000/svg">
<path d="M63.539 35.3284L63.5166 35.2197H60.2985L60.2473 35.2357L60.4201 36.0418C61.2571 40.3546 60.7072 44.8217 58.8492 48.8028C56.9911 52.7839 53.9204 56.0745 50.0772 58.203C46.2339 60.3315 41.8155 61.1886 37.4551 60.6515C33.0948 60.1143 29.0164 58.2105 25.8047 55.2128H30.4079V52.0139H19.2277L19.6532 52.7209C22.9467 57.9972 28.1606 61.7883 34.1953 63.2946C40.23 64.8008 46.6139 63.9046 52.0005 60.7949C56.3431 58.2874 59.7912 54.4827 61.8607 49.9152C63.9302 45.3476 64.5171 40.2466 63.539 35.3284Z" fill="#555555"/>
<path d="M60.3817 27.3567L59.9402 26.6658V26.6626C56.8496 22.0372 52.2477 18.6295 46.9218 17.0227C41.596 15.4158 35.8773 15.7096 30.7442 17.8539C25.6111 19.9981 21.3827 23.8595 18.7824 28.7773C16.1821 33.6951 15.3716 39.3637 16.4895 44.8132H19.7684L19.602 44.0582C18.7515 39.7478 19.2877 35.2787 21.1335 31.2917C22.9794 27.3047 26.0402 24.0045 29.8772 21.8642C33.7142 19.7239 38.1303 18.8534 42.4925 19.3775C46.8547 19.9016 50.939 21.7934 54.1598 24.7816H49.6014V27.9805H60.7592L60.3817 27.3567Z" fill="#555555"/>
<path d="M35.463 28.0221L39.9414 37.6188H40.0662L44.5447 28.0221H47.6732L47.9995 28.1757L43.5946 37.6188H48.0027V40.8177H41.6049V44.0167H48.0027V47.2156H41.6049V52.8137H38.406V47.2156H32.0081V44.0167H38.406V40.8177H32.0081V37.6188H36.413L32.0081 28.1757L32.3344 28.0221H35.463Z" fill="#425BB5"/>
</svg>
