<svg width="80" height="80" viewBox="0 0 80 80" fill="none" xmlns="http://www.w3.org/2000/svg">
<path d="M23.1244 19.9687C22.7696 19.9692 22.4184 20.0399 22.0911 20.1766C21.7637 20.3133 21.4666 20.5134 21.2169 20.7654C20.9672 21.0174 20.7698 21.3163 20.636 21.6449C20.5022 21.9735 20.4348 22.3252 20.4375 22.68V55.3228C20.4375 57.2578 22.0275 58.8366 24.0562 58.8853C26.1206 58.935 27.8559 57.2466 27.8559 55.3228C27.8559 55.0244 27.9745 54.7383 28.1854 54.5273C28.3964 54.3163 28.6826 54.1978 28.9809 54.1978C29.2793 54.1978 29.5655 54.3163 29.7764 54.5273C29.9874 54.7383 30.1059 55.0244 30.1059 55.3228C30.1059 57.2822 31.7137 58.8853 33.6966 58.8853C35.6803 58.8853 37.2891 57.2822 37.2891 55.3228C37.2891 55.0244 37.4076 54.7383 37.6186 54.5273C37.8295 54.3163 38.1157 54.1978 38.4141 54.1978C38.7124 54.1978 38.9986 54.3163 39.2096 54.5273C39.4205 54.7383 39.5391 55.0244 39.5391 55.3228C39.5391 56.3212 39.9759 57.3909 40.6566 58.125C41.3297 58.8497 42.1022 59.1216 42.8391 58.9237C43.0866 58.8572 43.1578 58.8178 43.2497 58.7616C43.3106 58.7241 43.3744 58.6819 43.4775 58.6134L43.5506 58.5637C43.6913 58.47 43.8656 58.3547 44.0972 58.2131C44.351 58.0614 44.6544 58.0158 44.9416 58.0861C45.2289 58.1563 45.4769 58.3369 45.632 58.5886C45.7872 58.8404 45.837 59.1431 45.7706 59.4312C45.7043 59.7194 45.5271 59.9699 45.2775 60.1284C45.0963 60.2403 44.9175 60.3559 44.7413 60.4753C44.6381 60.5438 44.5284 60.6178 44.4244 60.6816C44.1197 60.8672 43.8431 60.9834 43.4231 61.0969C41.6512 61.5731 40.0669 60.7959 39.0075 59.655C38.7681 59.3967 38.5511 59.1185 38.3587 58.8234C37.8128 59.5423 37.1079 60.125 36.2993 60.5261C35.4906 60.9272 34.6001 61.1357 33.6975 61.1353C32.7723 61.1357 31.8602 60.9167 31.0361 60.4962C30.212 60.0757 29.4993 59.4658 28.9566 58.7166C27.8297 60.2175 25.9941 61.1822 24.0019 61.1353C20.8388 61.0584 18.1875 58.5647 18.1875 55.3228V22.68C18.1875 19.95 20.3737 17.7188 23.1244 17.7188H53.8566C54.5082 17.7186 55.1535 17.8469 55.7556 18.0961C56.3577 18.3454 56.9048 18.7108 57.3656 19.1715C57.8265 19.6322 58.1921 20.1791 58.4416 20.7811C58.6911 21.3831 58.8196 22.0284 58.8197 22.68V37.4606C58.8197 37.759 58.7012 38.0451 58.4902 38.2561C58.2792 38.4671 57.9931 38.5856 57.6947 38.5856C57.3963 38.5856 57.1102 38.4671 56.8992 38.2561C56.6882 38.0451 56.5697 37.759 56.5697 37.4606V22.68C56.5696 22.3238 56.4993 21.9712 56.3629 21.6422C56.2265 21.3132 56.0266 21.0142 55.7746 20.7625C55.5227 20.5107 55.2236 20.311 54.8945 20.1748C54.5654 20.0387 54.2127 19.9686 53.8566 19.9687H23.1253H23.1244ZM26.5378 28.2525C26.5378 27.9541 26.6563 27.668 26.8673 27.457C27.0783 27.246 27.3644 27.1275 27.6628 27.1275H49.2572C49.4049 27.1275 49.5512 27.1566 49.6877 27.2131C49.8242 27.2697 49.9482 27.3525 50.0527 27.457C50.1571 27.5615 50.24 27.6855 50.2966 27.822C50.3531 27.9585 50.3822 28.1048 50.3822 28.2525C50.3822 28.4002 50.3531 28.5465 50.2966 28.683C50.24 28.8195 50.1571 28.9435 50.0527 29.048C49.9482 29.1525 49.8242 29.2353 49.6877 29.2919C49.5512 29.3484 49.4049 29.3775 49.2572 29.3775H27.6628C27.3644 29.3775 27.0783 29.259 26.8673 29.048C26.6563 28.837 26.5378 28.5509 26.5378 28.2525ZM26.5378 36.69C26.5378 36.3916 26.6563 36.1055 26.8673 35.8945C27.0783 35.6835 27.3644 35.565 27.6628 35.565H49.2572C49.4049 35.565 49.5512 35.5941 49.6877 35.6506C49.8242 35.7072 49.9482 35.79 50.0527 35.8945C50.1571 35.999 50.24 36.123 50.2966 36.2595C50.3531 36.396 50.3822 36.5423 50.3822 36.69C50.3822 36.8377 50.3531 36.984 50.2966 37.1205C50.24 37.257 50.1571 37.381 50.0527 37.4855C49.9482 37.59 49.8242 37.6728 49.6877 37.7294C49.5512 37.7859 49.4049 37.815 49.2572 37.815H27.6628C27.3644 37.815 27.0783 37.6965 26.8673 37.4855C26.6563 37.2745 26.5378 36.9884 26.5378 36.69ZM26.5697 45.1266C26.5697 44.8282 26.6882 44.542 26.8992 44.3311C27.1102 44.1201 27.3963 44.0016 27.6947 44.0016H41.0541C41.2018 44.0016 41.3481 44.0307 41.4846 44.0872C41.6211 44.1437 41.7451 44.2266 41.8496 44.3311C41.954 44.4355 42.0369 44.5596 42.0934 44.696C42.15 44.8325 42.1791 44.9788 42.1791 45.1266C42.1791 45.2743 42.15 45.4206 42.0934 45.5571C42.0369 45.6936 41.954 45.8176 41.8496 45.9221C41.7451 46.0265 41.6211 46.1094 41.4846 46.1659C41.3481 46.2225 41.2018 46.2516 41.0541 46.2516H27.6947C27.3963 46.2516 27.1102 46.133 26.8992 45.9221C26.6882 45.7111 26.5697 45.4249 26.5697 45.1266Z" fill="#555555" stroke="#555555"/>
<path d="M52.4006 40.5386C52.6064 40.6236 52.7824 40.7678 52.9062 40.9528C53.0301 41.1379 53.0962 41.3556 53.0962 41.5783V46.383C53.309 46.398 53.5181 46.4139 53.7215 46.4298C53.9231 46.4448 54.1171 46.4598 54.3028 46.472C55.0368 46.5208 55.7259 46.5348 56.4412 46.4317C57.8221 46.232 59.4759 45.5673 61.6537 43.4542C61.8124 43.3001 62.013 43.1962 62.2304 43.1555C62.4478 43.1148 62.6724 43.1391 62.8761 43.2253C63.0797 43.3115 63.2535 43.4559 63.3756 43.6404C63.4977 43.8248 63.5627 44.0412 63.5625 44.2623C63.5625 48.3873 61.6237 50.9317 59.1449 52.383C57.1771 53.5361 54.9131 53.9805 53.0962 54.1033V58.2189C53.0962 58.4416 53.0301 58.6592 52.9063 58.8443C52.7825 59.0294 52.6066 59.1736 52.4008 59.2586C52.195 59.3436 51.9686 59.3657 51.7503 59.3219C51.5319 59.2782 51.3315 59.1707 51.1743 59.013L42.8906 50.6927C42.6805 50.4818 42.5625 50.1963 42.5625 49.8986C42.5625 49.6009 42.6805 49.3154 42.8906 49.1045L51.1734 40.7842C51.3306 40.6264 51.5312 40.5187 51.7497 40.475C51.9682 40.4313 52.1947 40.4534 52.4006 40.5386ZM45.2756 49.8986L50.8462 55.4945V53.0158C50.8462 52.868 50.8753 52.7218 50.9318 52.5853C50.9884 52.4488 51.0712 52.3247 51.1757 52.2203C51.2802 52.1158 51.4042 52.033 51.5407 51.9764C51.6772 51.9199 51.8235 51.8908 51.9712 51.8908C53.699 51.8908 56.0896 51.5636 58.0087 50.4405C59.2575 49.7092 60.3337 48.6292 60.8962 46.9877C59.4121 47.9908 58.0593 48.4698 56.7628 48.6564C55.8168 48.7942 54.945 48.7689 54.1556 48.7164C53.9118 48.7005 53.684 48.6827 53.4646 48.6658C52.9396 48.6255 52.4681 48.5889 51.9712 48.5889C51.6728 48.5889 51.3867 48.4704 51.1757 48.2594C50.9647 48.0484 50.8462 47.7623 50.8462 47.4639V44.3017L45.2746 49.8977L45.2756 49.8986Z" fill="#425BB5"/>
</svg>
