<svg width="80" height="80" viewBox="0 0 80 80" fill="none" xmlns="http://www.w3.org/2000/svg">
<path d="M58.228 15C60.3107 15 61.9994 16.6887 61.9994 18.7714V55.2286C61.9994 57.3113 60.3107 59 58.228 59H52.5709V24.4286H24.2852V18.7714C24.2852 16.6887 25.9739 15 28.0566 15H58.228ZM58.228 18.1429H28.0566C27.7676 18.1429 27.5234 18.3382 27.4505 18.6042L27.428 18.7714V21.2857H55.7137V55.8571H58.228C58.517 55.8571 58.7612 55.6618 58.8341 55.3958L58.8566 55.2286V18.7714C58.8566 18.4824 58.6613 18.2383 58.3953 18.1653L58.228 18.1429Z" fill="#555555"/>
<path d="M51.9429 21.2852C54.0256 21.2852 55.7143 22.9739 55.7143 25.0566V61.5137C55.7143 63.5964 54.0256 65.2852 51.9429 65.2852H21.7714C19.6887 65.2852 18 63.5964 18 61.5137V25.0566C18 22.9739 19.6887 21.2852 21.7714 21.2852H51.9429ZM51.9429 24.428H21.7714C21.4824 24.428 21.2383 24.6233 21.1653 24.8893L21.1429 25.0566V61.5137C21.1429 61.8028 21.3382 62.0469 21.6042 62.1199L21.7714 62.1423H51.9429C52.2319 62.1423 52.476 61.947 52.549 61.681L52.5714 61.5137V25.0566C52.5714 24.7676 52.3761 24.5234 52.1101 24.4505L51.9429 24.428Z" fill="#555555"/>
<path d="M38.6811 55.857V51.0798H43.9925V49.1313H38.6811V46.4284L38.7125 46.397H43.9925V44.4484H39.8125L45.9411 33.417H41.7925L36.8582 43.0656L31.924 33.417H27.7754L33.904 44.4484H29.7554V46.397H35.004L35.0354 46.4284V49.1313H29.7554V51.0798H35.0354V55.857H38.6811Z" fill="#425BB5"/>
</svg>
