<svg width="80" height="80" viewBox="0 0 80 80" fill="none" xmlns="http://www.w3.org/2000/svg">
<path d="M36.9298 60.2105H23.5848C23.1754 60.2105 22.848 59.883 22.848 59.4737V20.5848C22.848 20.1754 23.1754 19.848 23.5848 19.848H56.4152C56.8246 19.848 57.152 20.1754 57.152 20.5848V41.6257L61 42.9357V19.7661C61 17.7193 59.2807 16 57.2339 16H22.7661C20.7193 16 19 17.7193 19 19.7661V60.2105C19 62.2573 20.7193 63.9766 22.7661 63.9766H36.9298V60.2105H29.5614H36.9298ZM26.7778 23.8596H53.1404V27.0526H26.7778V23.8596ZM26.7778 30.9825H35.8655V34.3392H26.7778V30.9825ZM26.7778 38.5965H36.9298V41.8713H26.7778V38.5965ZM61 52.3509C61 58.655 56.0877 63.731 50.0292 63.731C43.9708 63.731 39.0585 58.655 39.0585 52.3509C39.0585 46.0468 43.9708 40.9708 50.0292 40.9708C56.0877 40.8889 61 46.0468 61 52.3509ZM50.0292 43.345C45.2807 43.345 41.4328 47.3567 41.4328 52.269C41.4328 57.1813 45.2807 61.193 50.0292 61.193C54.7778 61.193 58.6257 57.1813 58.6257 52.269C58.6257 47.3567 54.7778 43.345 50.0292 43.345ZM48.5556 56.4444H45.5263V54.3977H48.5556V53.3333H45.5263V51.3684H47.8187L45.6082 47.4386C45.5263 47.2749 45.2807 46.9474 45.2807 46.9474L47.4912 45.9649L49.8655 50.5497L52.4854 45.9649L54.5322 47.193L52.076 51.2865H54.3684V53.3333H51.3392V54.3158H54.3684V56.3626H51.3392V59.9649H48.3918V56.4444H48.5556Z" fill="#425BB5"/>
<path d="M36.9298 60.2105V63.9766H22.7661C20.7193 63.9766 19 62.2573 19 60.2105V19.7661C19 17.7193 20.7193 16 22.7661 16H57.2339C59.2807 16 61 17.7193 61 19.7661V42.9357L57.152 41.6257V20.5848C57.152 20.1754 56.8246 19.848 56.4152 19.848H23.5848C23.1754 19.848 22.848 20.1754 22.848 20.5848V59.4737C22.848 59.883 23.1754 60.2105 23.5848 60.2105H36.9298Z" fill="#555555"/>
<path d="M53.1404 23.8596H26.7778V27.0526H53.1404V23.8596Z" fill="#555555"/>
<path d="M35.8655 30.9825H26.7778V34.3392H35.8655V30.9825Z" fill="#555555"/>
<path d="M36.9298 38.5965H26.7778V41.8713H36.9298V38.5965Z" fill="#555555"/>
<path d="M36.9298 60.2105V63.9766H22.7661C20.7193 63.9766 19 62.2573 19 60.2105V19.7661C19 17.7193 20.7193 16 22.7661 16H57.2339C59.2807 16 61 17.7193 61 19.7661V42.9357L57.152 41.6257V20.5848C57.152 20.1754 56.8246 19.848 56.4152 19.848H23.5848C23.1754 19.848 22.848 20.1754 22.848 20.5848V59.4737C22.848 59.883 23.1754 60.2105 23.5848 60.2105H36.9298Z" stroke="white" stroke-width="0.4"/>
<path d="M53.1404 23.8596H26.7778V27.0526H53.1404V23.8596Z" stroke="white" stroke-width="0.4"/>
<path d="M35.8655 30.9825H26.7778V34.3392H35.8655V30.9825Z" stroke="white" stroke-width="0.4"/>
<path d="M36.9298 38.5965H26.7778V41.8713H36.9298V38.5965Z" stroke="white" stroke-width="0.4"/>
</svg>
