<svg width="80" height="80" viewBox="0 0 80 80" fill="none" xmlns="http://www.w3.org/2000/svg">
<path d="M49.8275 17.799H55.2539C57.1351 17.799 59.4256 19.6406 59.4256 21.1427V59.4972C59.4256 61.2056 58.136 62.5459 56.4562 62.5459H28.7927C28.1583 62.5459 27.0321 62.5443 27.0321 59.4988V30.5822C27.0321 29.5211 26.185 28.6629 25.1889 28.6629C24.1927 28.6629 23.3457 29.5211 23.3457 30.5822V59.4988C23.3457 63.807 25.3951 66.3449 28.7927 66.3449H56.4562C60.1584 66.3449 63.0009 63.3565 63.0009 59.4988V21.1427C63.0009 17.1645 58.788 14 55.2539 14H49.8291C48.8313 14 48.0239 14.8407 48.0239 15.9003C48.0239 16.9583 48.8329 17.799 49.8275 17.799Z" fill="#555555"/>
<path d="M51.5349 34.9726C51.3006 34.7469 50.9879 34.6209 50.6625 34.6209C50.3372 34.6209 50.0245 34.7469 49.7901 34.9726L43.1724 41.4062L36.5548 34.9726C36.3204 34.7469 36.0077 34.6209 35.6824 34.6209C35.357 34.6209 35.0443 34.7469 34.81 34.9726C34.6955 35.0823 34.6044 35.214 34.5421 35.3599C34.4799 35.5057 34.4478 35.6626 34.4478 35.8212C34.4478 35.9798 34.4799 36.1367 34.5421 36.2825C34.6044 36.4284 34.6955 36.5601 34.81 36.6698L40.3934 42.0978H35.7696C35.6103 42.0943 35.4518 42.1223 35.3034 42.1802C35.155 42.2382 35.0195 42.325 34.9048 42.4356C34.79 42.5462 34.6983 42.6784 34.635 42.8246C34.5716 42.9708 34.5378 43.1282 34.5355 43.2875C34.5355 43.9489 35.0875 44.474 35.7696 44.474H41.9844V48.0398H35.7696C35.6103 48.0362 35.4518 48.0642 35.3034 48.1222C35.155 48.1801 35.0195 48.2669 34.9048 48.3775C34.79 48.4881 34.6983 48.6203 34.635 48.7666C34.5716 48.9128 34.5378 49.0701 34.5355 49.2294C34.5355 49.8909 35.0875 50.4175 35.7696 50.4175H41.9844V54.042C41.9844 54.7034 42.5237 55.2412 43.2058 55.2412C43.365 55.2435 43.5231 55.2142 43.671 55.1551C43.8188 55.0959 43.9535 55.008 44.0672 54.8965C44.181 54.785 44.2714 54.6521 44.3335 54.5054C44.3955 54.3588 44.4279 54.2012 44.4287 54.042V50.4175H50.5753C51.2574 50.4175 51.8094 49.8909 51.8094 49.2278C51.8069 49.0686 51.7729 48.9115 51.7095 48.7655C51.646 48.6194 51.5543 48.4874 51.4396 48.377C51.3249 48.2665 51.1895 48.1799 51.0411 48.122C50.8928 48.0642 50.7345 48.0362 50.5753 48.0398H44.4287V44.474H50.5753C51.2574 44.474 51.8094 43.9489 51.8094 43.2859C51.8071 43.1266 51.7733 42.9693 51.7099 42.823C51.6466 42.6768 51.5549 42.5446 51.4401 42.434C51.3254 42.3234 51.1899 42.2366 51.0415 42.1786C50.8931 42.1207 50.7346 42.0927 50.5753 42.0963H45.9515L51.5349 36.6682C51.6494 36.5585 51.7405 36.4268 51.8028 36.281C51.865 36.1351 51.8971 35.9782 51.8971 35.8196C51.8971 35.6611 51.865 35.5041 51.8028 35.3583C51.7405 35.2124 51.6494 35.0807 51.5349 34.971V34.9726ZM18.8305 26.2611H42.4016L39.2815 29.6461C38.5677 30.4202 38.5677 31.6764 39.2815 32.4537C39.9953 33.2278 41.1532 33.2278 41.8702 32.4537L47.8343 25.9867C48.3673 25.6441 48.7242 25.0191 48.7242 24.2958C48.7242 23.6137 48.4069 23.0173 47.92 22.6668L41.9273 16.1681C41.764 15.9862 41.5645 15.8405 41.3416 15.7403C41.1187 15.64 40.8773 15.5875 40.6329 15.5859C40.165 15.5859 39.6971 15.7795 39.3386 16.1681C38.9936 16.554 38.8028 17.0534 38.8028 17.5711C38.8028 18.0887 38.9936 18.5882 39.3386 18.9741L42.4349 22.3305H18.8305C17.8201 22.3305 17 23.1997 17 24.2974C17 25.3919 17.8201 26.2627 18.8305 26.2627V26.2611Z" fill="#425BB5"/>
</svg>
