<svg width="80" height="80" viewBox="0 0 80 80" fill="none" xmlns="http://www.w3.org/2000/svg">
<path d="M44.2593 30.6299H22.1111C19.2932 30.6299 17 32.9231 17 35.741V57.8891C17 60.7071 19.2932 63.0003 22.1111 63.0003H44.2593C47.0772 63.0003 49.3704 60.7071 49.3704 57.8891V35.741C49.3704 32.9231 47.0772 30.6299 44.2593 30.6299ZM45.963 57.8891C45.963 58.341 45.7835 58.7743 45.464 59.0938C45.1445 59.4133 44.7111 59.5928 44.2593 59.5928H22.1111C21.1724 59.5928 20.4074 58.8296 20.4074 57.8891V35.741C20.4074 34.8023 21.1724 34.0373 22.1111 34.0373H44.2593C45.1997 34.0373 45.963 34.8023 45.963 35.741V57.8891Z" fill="#555555"/>
<path d="M51.0737 23.8145H28.9256C28.4737 23.8145 28.0404 23.994 27.7209 24.3135C27.4014 24.633 27.2219 25.0663 27.2219 25.5182C27.2219 25.97 27.4014 26.4034 27.7209 26.7229C28.0404 27.0424 28.4737 27.2219 28.9256 27.2219H51.0737C52.0142 27.2219 52.7774 27.9868 52.7774 28.9256V51.0737C52.7774 51.5256 52.9569 51.9589 53.2764 52.2784C53.5959 52.5979 54.0293 52.7774 54.4811 52.7774C54.933 52.7774 55.3663 52.5979 55.6858 52.2784C56.0053 51.9589 56.1848 51.5256 56.1848 51.0737V28.9256C56.1848 26.1076 53.8916 23.8145 51.0737 23.8145ZM40.8515 52.7774H25.5182C25.0663 52.7774 24.633 52.9569 24.3135 53.2764C23.994 53.5959 23.8145 54.0293 23.8145 54.4811C23.8145 54.933 23.994 55.3663 24.3135 55.6858C24.633 56.0053 25.0663 56.1848 25.5182 56.1848H40.8515C41.3033 56.1848 41.7367 56.0053 42.0562 55.6858C42.3757 55.3663 42.5552 54.933 42.5552 54.4811C42.5552 54.0293 42.3757 53.5959 42.0562 53.2764C41.7367 52.9569 41.3033 52.7774 40.8515 52.7774Z" fill="#425BB5"/>
<path d="M57.889 17H35.7408C35.289 17 34.8556 17.1795 34.5361 17.499C34.2166 17.8185 34.0371 18.2519 34.0371 18.7037C34.0371 19.1556 34.2166 19.5889 34.5361 19.9084C34.8556 20.2279 35.289 20.4074 35.7408 20.4074H57.889C58.8294 20.4074 59.5927 21.1724 59.5927 22.1111V44.2593C59.5927 44.7111 59.7722 45.1445 60.0917 45.464C60.4112 45.7835 60.8445 45.963 61.2964 45.963C61.7482 45.963 62.1816 45.7835 62.5011 45.464C62.8206 45.1445 63.0001 44.7111 63.0001 44.2593V22.1111C63.0001 19.2932 60.7069 17 57.889 17Z" fill="#555555"/>
</svg>
