<svg width="80" height="80" viewBox="0 0 80 80" fill="none" xmlns="http://www.w3.org/2000/svg">
<path d="M51.0082 13C53.7593 13 55.7798 15.6008 55.916 18.6828L55.9231 19.0154V20.0769H59.2652L59.5394 20.0858C61.4413 20.2185 63 21.7082 63 23.6154V27.1538L62.9929 27.5519C62.9128 29.6865 62.1909 31.7473 60.9214 33.4653C59.652 35.1832 57.894 36.4784 55.8771 37.1818C55.6017 40.8853 54.0406 44.3759 51.4637 47.05C48.8868 49.7241 45.4564 51.4135 41.7657 51.8258C41.7685 51.8581 41.7697 51.8906 41.7692 51.9231V62.5385H48.8462C49.3154 62.5385 49.7654 62.7249 50.0972 63.0567C50.429 63.3885 50.6154 63.8385 50.6154 64.3077C50.6154 64.7769 50.429 65.2269 50.0972 65.5587C49.7654 65.8905 49.3154 66.0769 48.8462 66.0769H31.1538C30.6846 66.0769 30.2346 65.8905 29.9028 65.5587C29.571 65.2269 29.3846 64.7769 29.3846 64.3077C29.3846 63.8385 29.571 63.3885 29.9028 63.0567C30.2346 62.7249 30.6846 62.5385 31.1538 62.5385L38.2308 62.5367V51.9231L38.2361 51.8258C34.5448 51.4136 31.1137 49.7245 28.5359 47.0505C25.9582 44.3765 24.396 40.8857 24.1194 37.1818C22.1032 36.4777 20.3462 35.1821 19.0774 33.4643C17.8087 31.7464 17.0872 29.686 17.0071 27.5519L17 27.1538V23.6154C17 21.7082 18.5587 20.2185 20.4606 20.0858L20.7348 20.0769H24.0769V19.0154C24.0769 15.8998 26.0018 13.1928 28.6999 13.0106L28.9918 13H51.0082ZM51.0082 16.5385H28.9918C28.408 16.5385 27.7145 17.4231 27.626 18.7288L27.6154 19.0154V36C27.6138 39.2489 28.8889 42.3683 31.1659 44.6857C33.4428 47.0032 36.5393 48.3331 39.7877 48.3888C43.0361 48.4445 46.1763 47.2215 48.5313 44.9835C50.8864 42.7455 52.2677 39.6716 52.3775 36.4246L52.3846 36V19.0154C52.3846 17.6495 51.73 16.6765 51.1355 16.5526L51.0082 16.5385ZM24.0769 23.6154H20.7348C20.6234 23.6154 20.5685 23.6402 20.5491 23.6331L20.5385 23.6154V27.1538C20.5385 29.7723 21.9609 32.0599 24.0769 33.2842V23.6154ZM59.2652 23.6154H55.9231L55.9248 33.2825C56.9469 32.6921 57.8051 31.8554 58.4213 30.8487C59.0374 29.842 59.392 28.6971 59.4527 27.5183L59.4615 27.1538V23.6154L59.4509 23.6331C59.4315 23.6402 59.3766 23.6154 59.2652 23.6154Z" fill="#555555"/>
<path d="M33 24L38.1739 32.5476H34.4203V33.7381H38.8841V36.0714H34.4203V37.2619H38.8841V41H41.1159V37.2619H45.6051V36.0714H41.1159V33.7381H45.6051V32.5476H41.8261L47 24H44.4891L40 31.8095L35.5109 24H33Z" fill="#425BB5" stroke="#425BB5"/>
</svg>
