<svg width="80" height="80" viewBox="0 0 80 80" fill="none" xmlns="http://www.w3.org/2000/svg">
<path d="M50.8601 30.8383C50.2892 31.65 50.3227 32.7253 50.9845 33.4655C52.4481 35.0761 53.5284 36.9969 54.1445 39.0842C54.7605 41.1715 54.8964 43.3711 54.5418 45.5184C55.9329 45.6092 57.323 45.9768 58.6134 46.714C59.1561 43.8598 59.0298 40.9186 58.2446 38.1214C57.4594 35.3241 56.0366 32.7469 54.0879 30.592C53.2149 29.6219 51.6309 29.7324 50.8848 30.8032C50.8769 30.8151 50.8685 30.8269 50.8601 30.8383ZM26.0121 38.6444C26.6996 36.5804 27.8337 34.6933 29.3337 33.1176C30.8336 31.5419 32.6626 30.3163 34.6902 29.5281C34.0754 28.2801 33.6993 26.895 33.6919 25.4111C30.9501 26.3834 28.4687 27.9736 26.4401 30.0587C24.4115 32.1438 22.8899 34.6679 21.9934 37.4354C21.5986 38.6562 22.4829 39.9462 23.7619 40.0508L23.8044 40.0542C24.7879 40.1426 25.7018 39.582 26.0121 38.6444ZM45.3308 58.8784C44.9104 57.9744 43.959 57.4696 42.9839 57.6754C42.0033 57.8827 41.0037 57.9874 40.0014 57.9877C36.64 57.989 33.3803 56.8348 30.7687 54.7185C29.9949 55.8762 28.9828 56.8942 27.7003 57.6428C31.1234 60.5842 35.4881 62.2001 40.0014 62.197C41.2933 62.1967 42.5816 62.0615 43.8455 61.7938C45.1522 61.5175 45.918 60.1254 45.3476 58.9169C45.3412 58.9041 45.3353 58.8913 45.3308 58.8784Z" fill="#555555"/>
<path d="M48.4198 26.4165C48.4203 28.0818 47.927 29.7097 47.0022 31.0946C46.0774 32.4794 44.7627 33.5589 43.2243 34.1965C41.686 34.834 39.9931 35.0011 38.3599 34.6766C36.7266 34.352 35.2262 33.5503 34.0485 32.373C32.8709 31.1957 32.0688 29.6956 31.7437 28.0624C31.4187 26.4292 31.5853 24.7363 32.2224 23.1978C32.8596 21.6592 33.9386 20.3442 35.3232 19.419C36.7078 18.4938 38.3356 18 40.0008 18C42.2332 18.0001 44.3742 18.8868 45.9529 20.4651C47.5317 22.0435 48.419 24.1842 48.4198 26.4165ZM44.2101 26.4165C44.2101 25.584 43.9632 24.7702 43.5007 24.078C43.0382 23.3858 42.3808 22.8463 41.6116 22.5277C40.8425 22.2091 39.9961 22.1258 39.1796 22.2882C38.3631 22.4506 37.6131 22.8515 37.0244 23.4401C36.4357 24.0288 36.0348 24.7788 35.8724 25.5954C35.71 26.4119 35.7934 27.2582 36.112 28.0274C36.4305 28.7965 36.9701 29.4539 37.6623 29.9164C38.3545 30.3789 39.1683 30.6258 40.0008 30.6258C41.1168 30.6246 42.1868 30.1808 42.9759 29.3916C43.765 28.6025 44.2089 27.5325 44.2101 26.4165ZM21.2096 44.3821C22.6517 43.5496 24.3082 43.1634 25.9698 43.2723C27.6313 43.3813 29.2233 43.9804 30.5443 44.9941C31.8653 46.0078 32.856 47.3904 33.3913 48.9672C33.9265 50.5439 33.9821 52.244 33.5511 53.8524C33.1202 55.4607 32.2219 56.9052 30.97 58.0031C29.7181 59.1009 28.1688 59.8029 26.5179 60.0203C24.867 60.2376 23.1888 59.9605 21.6954 59.2241C20.202 58.4876 18.9605 57.3249 18.128 55.8828C17.5751 54.9254 17.2163 53.8683 17.072 52.7722C16.9277 51.676 17.0007 50.5622 17.2869 49.4942C17.573 48.4263 18.0668 47.4252 18.7398 46.548C19.4129 45.6709 20.2521 44.9349 21.2096 44.3821ZM23.3143 48.0279C22.5933 48.4441 22.0119 49.0648 21.6437 49.8115C21.2755 50.5581 21.137 51.3972 21.2456 52.2226C21.3543 53.048 21.7053 53.8227 22.2542 54.4486C22.8031 55.0745 23.5253 55.5236 24.3295 55.739C25.1336 55.9545 25.9836 55.9267 26.772 55.6591C27.5603 55.3914 28.2516 54.8961 28.7584 54.2356C29.2652 53.5751 29.5647 52.7791 29.6191 51.9484C29.6736 51.1177 29.4804 50.2894 29.0641 49.5685C28.505 48.6027 27.5857 47.8981 26.5077 47.6093C25.4298 47.3205 24.2814 47.471 23.3143 48.0279ZM50.3735 58.964C48.931 58.1318 47.7678 56.8904 47.031 55.397C46.2941 53.9036 46.0167 52.2253 46.2338 50.5742C46.451 48.9231 47.1528 47.3735 48.2507 46.1214C49.3486 44.8692 50.7932 43.9708 52.4017 43.5397C54.0103 43.1087 55.7105 43.1643 57.2874 43.6997C58.8643 44.235 60.247 45.226 61.2607 46.5472C62.2743 47.8685 62.8734 49.4607 62.9821 51.1224C63.0907 52.7842 62.7041 54.4408 61.8712 55.8828C60.7547 57.8157 58.9163 59.2261 56.7602 59.8039C54.6042 60.3817 52.3069 60.0796 50.3735 58.964ZM52.4781 55.3188C53.199 55.735 54.0273 55.9281 54.858 55.8737C55.6887 55.8192 56.4846 55.5196 57.145 55.0129C57.8055 54.5061 58.3008 53.8148 58.5685 53.0265C58.8361 52.2382 58.8639 51.3883 58.6485 50.5841C58.433 49.78 57.984 49.0578 57.3581 48.5089C56.7322 47.9599 55.9577 47.6089 55.1323 47.5002C54.3069 47.3915 53.4679 47.53 52.7212 47.8981C51.9745 48.2663 51.3538 48.8475 50.9375 49.5685C50.3806 50.5356 50.2301 51.6842 50.5189 52.7621C50.8077 53.8401 51.5123 54.7596 52.4781 55.3188Z" fill="#425BB5"/>
</svg>
