<svg width="80" height="80" viewBox="0 0 80 80" fill="none" xmlns="http://www.w3.org/2000/svg">
<path d="M33.75 60H27.365C26.0625 60 25 58.87 25 57.48V27.52C25 26.13 26.0625 25 27.365 25H33.645C33.925 25 34.17 24.89 34.3775 24.7375C34.5372 24.6544 34.6769 24.5376 34.787 24.3951C34.897 24.2527 34.9748 24.088 35.015 23.9125C35.2665 22.8048 35.8858 21.815 36.7721 21.1044C37.6583 20.3939 38.7591 20.0046 39.895 20C42.265 20 44.325 21.6825 44.795 24C44.8525 24.2819 45.0056 24.5354 45.2283 24.7175C45.451 24.8997 45.7298 24.9995 46.0175 25C46.07 25 46.1225 24.99 46.175 24.985C46.2 24.9875 46.2225 25 46.25 25H52.635C53.9375 25 55 26.13 55 27.52V43.8525C55 44.184 55.1317 44.502 55.3661 44.7364C55.6005 44.9708 55.9185 45.1025 56.25 45.1025C56.5815 45.1025 56.8995 44.9708 57.1339 44.7364C57.3683 44.502 57.5 44.184 57.5 43.8525V27.52C57.5 24.75 55.3175 22.5 52.635 22.5H46.95C46.4317 21.0417 45.476 19.779 44.2134 18.8841C42.9507 17.9892 41.4426 17.5059 39.895 17.5C38.3495 17.5097 36.8445 17.9947 35.5842 18.8892C34.3238 19.7837 33.3692 21.0443 32.85 22.5H27.365C24.6825 22.5 22.5 24.75 22.5 27.52V57.48C22.5 60.25 24.6825 62.5 27.365 62.5H33.75C34.0815 62.5 34.3995 62.3683 34.6339 62.1339C34.8683 61.8995 35 61.5815 35 61.25C35 60.9185 34.8683 60.6005 34.6339 60.3661C34.3995 60.1317 34.0815 60 33.75 60Z" fill="#555555" stroke="#555555" stroke-width="0.8"/>
<path d="M48.6445 41.9253C48.9761 41.9253 49.294 41.7936 49.5284 41.5592C49.7628 41.3248 49.8945 41.0068 49.8945 40.6753C49.8945 40.3438 49.7628 40.0258 49.5284 39.7914C49.294 39.557 48.9761 39.4253 48.6445 39.4253H41.327V38.0253L47.407 32.2878C47.5355 32.1776 47.6403 32.0425 47.715 31.8907C47.7897 31.7388 47.8328 31.5734 47.8417 31.4044C47.8505 31.2354 47.825 31.0664 47.7666 30.9075C47.7082 30.7487 47.6182 30.6034 47.5019 30.4804C47.3857 30.3574 47.2457 30.2592 47.0904 30.1919C46.9352 30.1247 46.7678 30.0896 46.5986 30.0889C46.4294 30.0882 46.2618 30.1218 46.1059 30.1878C45.9501 30.2538 45.8093 30.3508 45.692 30.4728L39.942 35.8978L34.1895 30.4728C34.0713 30.3544 33.9306 30.261 33.7756 30.1981C33.6206 30.1351 33.4546 30.1039 33.2874 30.1063C33.1201 30.1087 32.9551 30.1446 32.8019 30.2119C32.6488 30.2793 32.5108 30.3766 32.396 30.4983C32.2812 30.6199 32.192 30.7634 32.1336 30.9202C32.0753 31.0769 32.049 31.2438 32.0563 31.4109C32.0637 31.578 32.1044 31.7419 32.1763 31.893C32.2481 32.044 32.3495 32.1791 32.4745 32.2903L38.827 38.2828V39.4278H31.1445C30.813 39.4278 30.4951 39.5595 30.2606 39.7939C30.0262 40.0283 29.8945 40.3463 29.8945 40.6778C29.8945 41.0093 30.0262 41.3273 30.2606 41.5617C30.4951 41.7961 30.813 41.9278 31.1445 41.9278H38.827V45.4428H31.1445C30.813 45.4428 30.4951 45.5745 30.2606 45.8089C30.0262 46.0433 29.8945 46.3613 29.8945 46.6928C29.8945 47.0243 30.0262 47.3423 30.2606 47.5767C30.4951 47.8111 30.813 47.9428 31.1445 47.9428H38.827V53.4378C38.827 53.7693 38.9587 54.0873 39.1931 54.3217C39.4276 54.5561 39.7455 54.6878 40.077 54.6878C40.4086 54.6878 40.7265 54.5561 40.9609 54.3217C41.1953 54.0873 41.327 53.7693 41.327 53.4378V47.9428H48.6445C48.9761 47.9428 49.294 47.8111 49.5284 47.5767C49.7628 47.3423 49.8945 47.0243 49.8945 46.6928C49.8945 46.3613 49.7628 46.0433 49.5284 45.8089C49.294 45.5745 48.9761 45.4428 48.6445 45.4428H41.327V41.9253H48.6445Z" fill="#555555" stroke="#555555" stroke-width="0.5"/>
<path d="M60.0461 51.3403C59.9763 51.1548 59.8621 50.9891 59.7136 50.8578C59.6186 50.7753 59.5061 50.7278 59.3936 50.6828C59.2116 50.5725 59.0038 50.5122 58.7911 50.5078H54.9786C54.6471 50.5078 54.3291 50.6395 54.0947 50.8739C53.8603 51.1084 53.7286 51.4263 53.7286 51.7578C53.7286 52.0893 53.8603 52.4073 54.0947 52.6417C54.3291 52.8761 54.6471 53.0078 54.9786 53.0078H56.2461L52.1036 57.8703L46.1961 53.1553C45.9489 52.9578 45.636 52.8614 45.3205 52.8855C45.005 52.9096 44.7104 53.0525 44.4961 53.2853L38.1411 60.1928C37.9163 60.4371 37.7978 60.7608 37.8116 61.0925C37.8255 61.4242 37.9705 61.7368 38.2148 61.9616C38.4592 62.1863 38.7828 62.3048 39.1145 62.291C39.4462 62.2772 39.7588 62.1321 39.9836 61.8878L45.5486 55.8378L51.4911 60.5803C51.7447 60.7833 52.0674 60.8796 52.3908 60.8488C52.7142 60.818 53.0129 60.6626 53.2236 60.4153L57.7061 55.1453V55.7353C57.7061 56.0668 57.8378 56.3848 58.0722 56.6192C58.3066 56.8536 58.6246 56.9853 58.9561 56.9853C59.2876 56.9853 59.6055 56.8536 59.84 56.6192C60.0744 56.3848 60.2061 56.0668 60.2061 55.7353V51.9203C60.2025 51.7166 60.1475 51.517 60.0461 51.3403Z" fill="#425BB5" stroke="#425BB5" stroke-width="0.5"/>
</svg>
