<svg width="80" height="80" viewBox="0 0 80 80" fill="none" xmlns="http://www.w3.org/2000/svg">
<path d="M17 37.0714H35.0714V19H17V37.0714ZM20.2857 22.2857H31.7857V33.7857H20.2857V22.2857ZM17 60.0714H35.0714V42H17V60.0714ZM20.2857 45.2857H31.7857V56.7857H20.2857V45.2857ZM40.7623 23.9286H61.3571C61.7929 23.9286 62.2107 23.7555 62.5188 23.4474C62.8269 23.1393 63 22.7214 63 22.2857C63 21.85 62.8269 21.4321 62.5188 21.124C62.2107 20.8159 61.7929 20.6429 61.3571 20.6429H40.7623C40.3266 20.6429 39.9087 20.8159 39.6006 21.124C39.2925 21.4321 39.1194 21.85 39.1194 22.2857C39.1194 22.7214 39.2925 23.1393 39.6006 23.4474C39.9087 23.7555 40.3266 23.9286 40.7623 23.9286ZM61.3571 43.6429H40.7623C40.3266 43.6429 39.9087 43.8159 39.6006 44.124C39.2925 44.4321 39.1194 44.85 39.1194 45.2857C39.1194 45.7214 39.2925 46.1393 39.6006 46.4474C39.9087 46.7555 40.3266 46.9286 40.7623 46.9286H61.3571C61.7929 46.9286 62.2107 46.7555 62.5188 46.4474C62.8269 46.1393 63 45.7214 63 45.2857C63 44.85 62.8269 44.4321 62.5188 44.124C62.2107 43.8159 61.7929 43.6429 61.3571 43.6429ZM61.3571 32.1429H40.7623C40.3266 32.1429 39.9087 32.3159 39.6006 32.624C39.2925 32.9321 39.1194 33.35 39.1194 33.7857C39.1194 34.2214 39.2925 34.6393 39.6006 34.9474C39.9087 35.2555 40.3266 35.4286 40.7623 35.4286H61.3571C61.7929 35.4286 62.2107 35.2555 62.5188 34.9474C62.8269 34.6393 63 34.2214 63 33.7857C63 33.35 62.8269 32.9321 62.5188 32.624C62.2107 32.3159 61.7929 32.1429 61.3571 32.1429ZM61.3571 55.1429H40.7623C40.3266 55.1429 39.9087 55.3159 39.6006 55.624C39.2925 55.9321 39.1194 56.35 39.1194 56.7857C39.1194 57.2214 39.2925 57.6393 39.6006 57.9474C39.9087 58.2555 40.3266 58.4286 40.7623 58.4286H61.3571C61.7929 58.4286 62.2107 58.2555 62.5188 57.9474C62.8269 57.6393 63 57.2214 63 56.7857C63 56.35 62.8269 55.9321 62.5188 55.624C62.2107 55.3159 61.7929 55.1429 61.3571 55.1429Z" fill="#425BB5"/>
<path fill-rule="evenodd" clip-rule="evenodd" d="M35.0714 37.0714H17V19H35.0714V37.0714ZM31.7857 22.2857H20.2857V33.7857H31.7857V22.2857ZM35.0714 60.0714H17V42H35.0714V60.0714ZM31.7857 45.2857H20.2857V56.7857H31.7857V45.2857Z" fill="#555555"/>
</svg>
