<svg width="80" height="80" viewBox="0 0 80 80" fill="none" xmlns="http://www.w3.org/2000/svg">
<path d="M39.8066 65.8706C39.2279 65.8706 38.6461 65.7196 38.1304 65.4146L18.626 53.9295C17.6134 53.332 16.9907 52.2313 17.0001 51.0551L17.1951 28.4216C17.2045 27.2455 17.8461 26.1542 18.8713 25.5755L38.5675 14.427C39.5896 13.8484 40.857 13.8578 41.8696 14.4553L61.374 25.9403C62.3867 26.5379 63.0093 27.6386 62.9999 28.8147L62.8049 51.4483C62.7955 52.6244 62.1539 53.7157 61.1287 54.2943L41.4325 65.4429C40.9293 65.7259 40.3695 65.8706 39.8066 65.8706ZM40.1934 16.8328C40.1148 16.8328 40.033 16.8517 39.9607 16.8926L20.2645 28.0411C20.1926 28.0819 20.1327 28.1408 20.0907 28.212C20.0488 28.2832 20.0263 28.3642 20.0255 28.4468L19.8305 51.0803C19.8305 51.2501 19.9185 51.4074 20.0632 51.4923L39.5676 62.9773C39.7122 63.0622 39.8946 63.0622 40.0393 62.9804L59.7355 51.8319C59.8802 51.7502 59.9745 51.5929 59.9745 51.4262L60.1695 28.7927C60.1695 28.6229 60.0815 28.4657 59.9368 28.3807L40.4324 16.8957C40.3601 16.8517 40.2783 16.8328 40.1934 16.8328Z" fill="#555555" stroke="#555555"/>
<path d="M47.5307 51.7497C46.7477 51.7497 46.1155 51.1176 46.1155 50.3346V37.1262C46.1155 36.3431 46.7477 35.711 47.5307 35.711C48.3138 35.711 48.9459 36.3431 48.9459 37.1262V50.3346C48.9459 51.1145 48.3107 51.7497 47.5307 51.7497ZM38.1119 51.7497C37.3288 51.7497 36.6967 51.1176 36.6967 50.3346V41.5384C36.6967 40.7553 37.3288 40.1232 38.1119 40.1232C38.895 40.1232 39.5271 40.7553 39.5271 41.5384V50.3346C39.5271 50.7099 39.378 51.0698 39.1126 51.3352C38.8472 51.6006 38.4872 51.7497 38.1119 51.7497ZM28.4855 51.7497C27.7024 51.7497 27.0703 51.1176 27.0703 50.3346V42.7051C27.0703 41.9221 27.7024 41.29 28.4855 41.29C29.2686 41.29 29.9007 41.9221 29.9007 42.7051V50.3346C29.9007 50.7099 29.7516 51.0698 29.4862 51.3352C29.2208 51.6006 28.8608 51.7497 28.4855 51.7497ZM48.8327 35.016C48.0496 35.016 47.4175 34.3839 47.4175 33.6008V28.264H42.0807C41.2976 28.264 40.6655 27.6318 40.6655 26.8488C40.6655 26.0657 41.2976 25.4336 42.0807 25.4336H48.8327C49.6158 25.4336 50.2479 26.0657 50.2479 26.8488V33.6008C50.2479 34.3839 49.6158 35.016 48.8327 35.016Z" fill="#425BB5"/>
<path d="M28.9249 38.9886C28.3148 38.9886 27.9374 38.9571 27.8525 38.9508C27.0757 38.8785 26.5002 38.1898 26.5725 37.413C26.6069 37.04 26.7878 36.6959 27.0754 36.456C27.3631 36.216 27.7341 36.0999 28.1072 36.133C28.5758 36.1739 39.6488 37.001 47.6871 26.0161C47.7968 25.8659 47.935 25.7389 48.0939 25.6423C48.2527 25.5457 48.4291 25.4814 48.6129 25.453C48.7966 25.4247 48.9842 25.4329 49.1647 25.4772C49.3453 25.5214 49.5154 25.6009 49.6652 25.711C49.8153 25.8207 49.9423 25.9589 50.039 26.1178C50.1356 26.2766 50.1999 26.453 50.2282 26.6368C50.2566 26.8205 50.2484 27.0081 50.2041 27.1886C50.1598 27.3692 50.0804 27.5393 49.9703 27.6891C42.366 38.0829 32.2238 38.9886 28.9249 38.9886Z" fill="#425BB5"/>
</svg>
