<svg width="80" height="80" viewBox="0 0 80 80" fill="none" xmlns="http://www.w3.org/2000/svg">
<path d="M40.5036 41.7076C40.3955 41.7076 40.2874 41.6982 40.1793 41.67C39.7891 41.5807 39.4507 41.3362 39.2439 40.9931L34.8348 33.6463C34.6341 33.3122 34.5744 32.912 34.6687 32.5339C34.763 32.1557 35.0037 31.8305 35.3378 31.6298C35.6719 31.4291 36.072 31.3693 36.4502 31.4636C36.8284 31.5579 37.1536 31.7986 37.3543 32.1327L40.969 38.1587L46.2993 34.6052C46.9762 34.1539 47.888 34.3372 48.3346 35.0141C48.7858 35.691 48.6025 36.6029 47.9257 37.0494L41.3168 41.4584C41.0771 41.623 40.7903 41.7076 40.5036 41.7076Z" fill="#425BB5"/>
<path d="M45.5213 43.9124C45.4084 43.9124 45.2909 43.8983 45.1781 43.8701L35.5092 41.5528C35.1303 41.4618 34.803 41.224 34.5993 40.8916C34.3957 40.5593 34.3324 40.1597 34.4234 39.7807C34.5144 39.4018 34.7523 39.0744 35.0846 38.8708C35.4169 38.6672 35.8165 38.6039 36.1955 38.6949L45.8644 41.0123C46.6541 41.2003 47.1382 41.9947 46.9502 42.7843C46.8721 43.1049 46.689 43.3901 46.4301 43.5946C46.1711 43.799 45.8512 43.9109 45.5213 43.9124ZM45.5213 48.3168C45.4084 48.3168 45.2909 48.3027 45.1781 48.2745L35.5092 45.9572C35.3216 45.9121 35.1447 45.8305 34.9885 45.7171C34.8324 45.6036 34.7002 45.4605 34.5993 45.296C34.4985 45.1314 34.4311 44.9486 34.4009 44.758C34.3707 44.5674 34.3784 44.3727 34.4234 44.1851C34.4685 43.9974 34.5501 43.8205 34.6635 43.6644C34.777 43.5082 34.92 43.376 35.0846 43.2752C35.2492 43.1743 35.432 43.1069 35.6226 43.0767C35.8132 43.0465 36.0079 43.0542 36.1955 43.0993L45.8644 45.4166C46.6541 45.6046 47.1382 46.399 46.9502 47.1887C46.8729 47.5097 46.6901 47.7954 46.4309 48C46.1718 48.2046 45.8514 48.3161 45.5213 48.3168Z" fill="#425BB5"/>
<path d="M40.5025 51.988C39.6893 51.988 39.0312 51.33 39.0312 50.5168V40.2369C39.0312 39.4237 39.6893 38.7656 40.5025 38.7656C41.3157 38.7656 41.9737 39.4237 41.9737 40.2369V50.5215C41.9737 51.33 41.3157 51.988 40.5025 51.988Z" fill="#425BB5"/>
<path d="M59.5957 63.0054C59.4076 63.0054 59.2243 62.996 59.0363 62.9678L20.845 58.0135C18.6546 57.7315 17 55.8231 17 53.581V27.625C17 26.3277 17.5547 25.0961 18.5183 24.2501C18.9844 23.839 19.5328 23.5321 20.1269 23.3497C20.721 23.1673 21.3472 23.1137 21.9637 23.1925L60.155 28.1467C62.3454 28.4335 64 30.3372 64 32.5793V58.54C64 59.8373 63.4453 61.0688 62.4771 61.9149C61.6812 62.6167 60.6568 63.0044 59.5957 63.0054ZM21.4043 26.0973C21.0612 26.0973 20.7322 26.2243 20.4595 26.4593C20.1258 26.7507 19.9378 27.1785 19.9378 27.6297V53.5857C19.9378 54.3566 20.4924 55.0099 21.2257 55.1039L59.417 60.0582C59.826 60.1099 60.2302 59.9877 60.5452 59.7104C60.8789 59.419 61.0669 58.9912 61.0669 58.54V32.5793C61.0669 31.8084 60.5123 31.155 59.779 31.061L21.5877 26.1067C21.5266 26.0973 21.4654 26.0973 21.4043 26.0973Z" fill="#555555"/>
<path d="M18.4712 56.8387C17.6581 56.8387 17 56.1807 17 55.3722V25.9378C17 23.7239 18.5653 21.8672 20.7275 21.5241L55.2477 16.0528C56.5075 15.8553 57.7907 16.2173 58.7684 17.0493C59.2618 17.4713 59.6577 17.9954 59.9288 18.5854C60.1999 19.1754 60.3396 19.8172 60.3383 20.4665V29.2987C60.3383 30.1119 59.6803 30.7699 58.8671 30.7699C58.0539 30.7699 57.3958 30.1119 57.3958 29.2987V20.4665C57.3958 20.0059 57.1984 19.5734 56.86 19.282C56.5357 19.0047 56.122 18.8871 55.7084 18.953L21.1881 24.4243C20.4642 24.5371 19.9378 25.1764 19.9378 25.9378V55.3722C19.9378 56.1807 19.2797 56.8387 18.4712 56.8387Z" fill="#555555"/>
</svg>
