<svg width="80" height="80" viewBox="0 0 80 80" fill="none" xmlns="http://www.w3.org/2000/svg">
<path d="M30.9151 16.036C31.0166 16.0129 31.1223 16 31.2308 16H57.4729C57.5818 16 57.6875 16.0125 57.7886 16.036C61.2778 16.3923 64 19.3397 64 22.9231V26.6154C64 26.9826 63.8541 27.3348 63.5945 27.5945C63.3348 27.8541 62.9826 28 62.6154 28H58.8575V56.1538C58.8575 59.9772 55.7583 63.0769 51.9345 63.0769H22.1662C18.7605 63.0769 16 59.9772 16 56.1538V52.4615C16 51.6968 16.552 51.0769 17.2332 51.0769H24.7037V22.9231C24.7037 19.3397 27.4258 16.3923 30.9151 16.036ZM57.0769 18.7692H35.8462C36.7461 19.967 37.2321 21.4249 37.2308 22.9231V25.2308H61.2308V22.9231C61.2308 21.8214 60.7931 20.7649 60.0141 19.9859C59.2351 19.2069 58.1786 18.7692 57.0769 18.7692ZM30.9695 18.8209C28.9877 19.1362 27.4729 20.8526 27.4729 22.9231V56.1538C27.4729 57.8126 27.2666 59.2102 26.836 60.3077H51.9345C53.0361 60.3077 54.0927 59.8701 54.8717 59.0911C55.6507 58.3121 56.0883 57.2555 56.0883 56.1538V28H35.8462C35.4789 28 35.1267 27.8541 34.8671 27.5945C34.6074 27.3348 34.4615 26.9826 34.4615 26.6154V22.9231C34.4616 21.936 34.1102 20.9811 33.4704 20.2294C32.8305 19.4778 31.944 18.9785 30.9695 18.8209ZM23.26 60.3077C24.1485 60.1069 24.7037 58.8871 24.7037 56.1538V53.8462H18.4665V56.1538C18.4665 58.4477 20.1225 60.3077 22.1657 60.3077H23.2595H23.26ZM31.6674 37.2322C31.4226 37.2322 31.1878 37.1349 31.0147 36.9618C30.8416 36.7887 30.7443 36.5539 30.7443 36.3091C30.7443 36.0643 30.8416 35.8295 31.0147 35.6564C31.1878 35.4833 31.4226 35.386 31.6674 35.386H51.9751C52.2199 35.386 52.4547 35.4833 52.6278 35.6564C52.8009 35.8295 52.8982 36.0643 52.8982 36.3091C52.8982 36.5539 52.8009 36.7887 52.6278 36.9618C52.4547 37.1349 52.2199 37.2322 51.9751 37.2322H31.6674ZM31.6923 44.1538C31.4475 44.1538 31.2127 44.0566 31.0396 43.8835C30.8665 43.7104 30.7692 43.4756 30.7692 43.2308C30.7692 42.986 30.8665 42.7512 31.0396 42.5781C31.2127 42.4049 31.4475 42.3077 31.6923 42.3077H52C52.2448 42.3077 52.4796 42.4049 52.6527 42.5781C52.8258 42.7512 52.9231 42.986 52.9231 43.2308C52.9231 43.4756 52.8258 43.7104 52.6527 43.8835C52.4796 44.0566 52.2448 44.1538 52 44.1538H31.6923ZM31.6923 51.0769C31.4475 51.0769 31.2127 50.9797 31.0396 50.8066C30.8665 50.6334 30.7692 50.3987 30.7692 50.1538C30.7692 49.909 30.8665 49.6742 31.0396 49.5011C31.2127 49.328 31.4475 49.2308 31.6923 49.2308H52C52.2448 49.2308 52.4796 49.328 52.6527 49.5011C52.8258 49.6742 52.9231 49.909 52.9231 50.1538C52.9231 50.3987 52.8258 50.6334 52.6527 50.8066C52.4796 50.9797 52.2448 51.0769 52 51.0769H31.6923Z" fill="#555555"/>
<path d="M31.0145 36.9615C31.1876 37.1346 31.4224 37.2319 31.6672 37.2319H51.9749C52.2197 37.2319 52.4545 37.1346 52.6276 36.9615C52.8007 36.7884 52.898 36.5536 52.898 36.3088C52.898 36.064 52.8007 35.8292 52.6276 35.6561C52.4545 35.483 52.2197 35.3857 51.9749 35.3857H31.6672C31.4224 35.3857 31.1876 35.483 31.0145 35.6561C30.8414 35.8292 30.7441 36.064 30.7441 36.3088C30.7441 36.5536 30.8414 36.7884 31.0145 36.9615Z" fill="#425BB5"/>
<path d="M31.0394 43.8832C31.2125 44.0563 31.4473 44.1536 31.6921 44.1536H51.9998C52.2446 44.1536 52.4794 44.0563 52.6525 43.8832C52.8257 43.7101 52.9229 43.4753 52.9229 43.2305C52.9229 42.9857 52.8257 42.7509 52.6525 42.5778C52.4794 42.4047 52.2446 42.3074 51.9998 42.3074H31.6921C31.4473 42.3074 31.2125 42.4047 31.0394 42.5778C30.8663 42.7509 30.7691 42.9857 30.7691 43.2305C30.7691 43.4753 30.8663 43.7101 31.0394 43.8832Z" fill="#425BB5"/>
<path d="M31.0394 50.8063C31.2125 50.9794 31.4473 51.0767 31.6921 51.0767H51.9998C52.2446 51.0767 52.4794 50.9794 52.6525 50.8063C52.8257 50.6332 52.9229 50.3984 52.9229 50.1536C52.9229 49.9088 52.8257 49.674 52.6525 49.5009C52.4794 49.3278 52.2446 49.2305 51.9998 49.2305H31.6921C31.4473 49.2305 31.2125 49.3278 31.0394 49.5009C30.8663 49.674 30.7691 49.9088 30.7691 50.1536C30.7691 50.3984 30.8663 50.6332 31.0394 50.8063Z" fill="#425BB5"/>
<path d="M31.0145 36.9615C31.1876 37.1346 31.4224 37.2319 31.6672 37.2319H51.9749C52.2197 37.2319 52.4545 37.1346 52.6276 36.9615C52.8007 36.7884 52.898 36.5536 52.898 36.3088C52.898 36.064 52.8007 35.8292 52.6276 35.6561C52.4545 35.483 52.2197 35.3857 51.9749 35.3857H31.6672C31.4224 35.3857 31.1876 35.483 31.0145 35.6561C30.8414 35.8292 30.7441 36.064 30.7441 36.3088C30.7441 36.5536 30.8414 36.7884 31.0145 36.9615Z" stroke="#425BB5"/>
<path d="M31.0394 43.8832C31.2125 44.0563 31.4473 44.1536 31.6921 44.1536H51.9998C52.2446 44.1536 52.4794 44.0563 52.6525 43.8832C52.8257 43.7101 52.9229 43.4753 52.9229 43.2305C52.9229 42.9857 52.8257 42.7509 52.6525 42.5778C52.4794 42.4047 52.2446 42.3074 51.9998 42.3074H31.6921C31.4473 42.3074 31.2125 42.4047 31.0394 42.5778C30.8663 42.7509 30.7691 42.9857 30.7691 43.2305C30.7691 43.4753 30.8663 43.7101 31.0394 43.8832Z" stroke="#425BB5"/>
<path d="M31.0394 50.8063C31.2125 50.9794 31.4473 51.0767 31.6921 51.0767H51.9998C52.2446 51.0767 52.4794 50.9794 52.6525 50.8063C52.8257 50.6332 52.9229 50.3984 52.9229 50.1536C52.9229 49.9088 52.8257 49.674 52.6525 49.5009C52.4794 49.3278 52.2446 49.2305 51.9998 49.2305H31.6921C31.4473 49.2305 31.2125 49.3278 31.0394 49.5009C30.8663 49.674 30.7691 49.9088 30.7691 50.1536C30.7691 50.3984 30.8663 50.6332 31.0394 50.8063Z" stroke="#425BB5"/>
</svg>
