<svg width="80" height="80" viewBox="0 0 80 80" fill="none" xmlns="http://www.w3.org/2000/svg">
<path d="M40.5 33.5789C52.9342 33.5789 63 29.9079 63 25.2895C63 20.6711 52.9342 17 40.5 17C28.0658 17 18 20.6711 18 25.2895C18 29.9079 28.0658 33.5789 40.5 33.5789ZM40.5 20.5526C52.1053 20.5526 58.6184 23.8684 59.4474 25.2895C58.7368 26.7105 52.2237 30.0263 40.5 30.0263C28.7763 30.0263 22.3816 26.7105 21.5526 25.2895C22.3816 23.8684 28.8947 20.5526 40.5 20.5526ZM60.2763 53.7105H60.0395C59.5658 53.7105 59.2105 53.9474 58.9737 54.1842C57.3158 55.7237 51.0395 58.4474 40.5 58.4474C29.9605 58.4474 23.6842 55.7237 22.0263 54.1842C21.6711 53.9474 21.3158 53.7105 20.8421 53.7105H20.7237C19.1842 53.7105 18.4737 55.6053 19.5395 56.6711C22.7368 59.75 30.9079 62 40.5 62C50.0921 62 58.2632 59.75 61.4605 56.6711C62.6447 55.6053 61.9342 53.7105 60.2763 53.7105Z" fill="#555555"/>
<path d="M45.5916 44.8288C46.539 44.8288 47.3679 43.9999 47.3679 43.0525C47.3679 42.1051 46.539 41.2762 45.5916 41.2762H44.9995V39.4999C44.9995 38.5525 44.1705 37.7235 43.2232 37.7235C42.2758 37.7235 41.4468 38.5525 41.4468 39.4999V41.2762H39.0784V39.4999C39.0784 38.5525 38.2495 37.7235 37.3021 37.7235C36.3547 37.7235 35.5258 38.5525 35.5258 39.4999V41.2762H34.9337C33.9863 41.2762 33.1574 42.1051 33.1574 43.0525C33.1574 43.9999 33.9863 44.8288 34.9337 44.8288H38.4863V47.1972H34.9337C33.9863 47.1972 33.1574 48.0262 33.1574 48.9735C33.1574 49.9209 33.9863 50.7499 34.9337 50.7499H38.4863V53.7104C38.4863 54.6577 39.3153 55.4867 40.2626 55.4867C41.21 55.4867 42.039 54.6577 42.039 53.7104V50.7499H45.5916C46.539 50.7499 47.3679 49.9209 47.3679 48.9735C47.3679 48.0262 46.539 47.1972 45.5916 47.1972H42.039V44.8288H45.5916ZM19.4205 49.5656C21.0784 51.1051 23.9205 52.4077 27.4732 53.3551C28.6574 53.7104 29.8416 52.6446 29.7232 51.4604C29.6047 50.7499 29.1311 50.1577 28.4205 49.9209C26.6442 49.4472 25.1047 48.8551 24.039 48.3814L25.6968 47.4341C26.5258 46.9604 26.8811 45.8946 26.289 45.0656C25.8153 44.2367 24.7495 43.8814 23.9205 44.4735L19.7758 46.842C19.1837 47.0788 18.8284 47.7893 18.9468 48.4999C18.9468 48.8551 19.1837 49.2104 19.4205 49.5656ZM18.9468 37.3683C18.8284 37.7235 18.9468 38.1972 19.1837 38.5525C19.3021 38.7893 19.539 39.0262 19.6574 39.1446C21.4337 40.6841 24.2758 41.9867 28.0653 42.9341C28.8942 43.1709 29.7232 42.6972 30.0784 41.9867C30.5521 41.0393 30.0784 39.7367 28.8942 39.4999C26.8811 39.0262 25.2232 38.4341 24.039 37.842L25.5784 36.8946C26.4074 36.4209 26.7626 35.3551 26.1705 34.5262C25.6968 33.6972 24.6311 33.342 23.8021 33.9341L19.6574 36.3025C19.3021 36.5393 19.0653 36.7762 18.9468 37.1314C19.0653 37.1314 18.9468 37.2499 18.9468 37.3683ZM61.9337 37.1314C61.9337 37.013 61.9337 37.013 61.9337 37.1314C61.6968 36.6577 61.46 36.4209 61.1047 36.1841L56.96 33.8156C56.1311 33.342 55.0653 33.5788 54.5916 34.4077C54.1179 35.2367 54.3547 36.3025 55.1837 36.7762L56.7232 37.7235C55.4205 38.3156 53.6442 39.0262 51.3942 39.4999C50.3284 39.7367 49.7363 40.9209 50.21 41.9867C50.5653 42.6972 51.3942 43.1709 52.2232 42.9341C56.2495 41.9867 59.3284 40.6841 61.1047 39.0262L61.3416 38.7893C61.46 38.6709 61.46 38.5525 61.5784 38.4341C61.8153 38.0788 61.8153 37.6051 61.8153 37.2499C61.9337 37.2499 61.9337 37.1314 61.9337 37.1314ZM61.1047 46.7235L56.96 44.3551C56.1311 43.8814 55.0653 44.1183 54.5916 44.9472C54.1179 45.7762 54.3547 46.842 55.1837 47.3156L56.8416 48.263C55.6574 48.8551 53.9995 49.4472 51.8679 49.9209C51.1574 50.0393 50.6837 50.6314 50.5653 51.342C50.4468 52.5262 51.5126 53.592 52.6968 53.2367C56.6047 52.2893 59.6837 50.8683 61.3416 49.3288C61.6968 48.9735 61.8153 48.6183 61.8153 48.263C62.1705 47.7893 61.8153 47.0788 61.1047 46.7235Z" fill="#425BB5"/>
</svg>
