<svg width="80" height="80" viewBox="0 0 80 80" fill="none" xmlns="http://www.w3.org/2000/svg">
<path d="M61.225 65.7482H18.7732C17.5729 65.7469 16.4222 65.2695 15.5735 64.4208C14.7247 63.5721 14.2474 62.4214 14.2461 61.2211V18.7693C14.2474 17.569 14.7247 16.4183 15.5735 15.5696C16.4222 14.7208 17.5729 14.2435 18.7732 14.2422H61.225C62.4253 14.2435 63.576 14.7208 64.4247 15.5696C65.2735 16.4183 65.7508 17.569 65.7521 18.7693V61.2211C65.7508 62.4214 65.2735 63.5721 64.4247 64.4208C63.576 65.2695 62.4253 65.7469 61.225 65.7482ZM18.7732 16.6641C18.215 16.6647 17.6799 16.8867 17.2853 17.2814C16.8906 17.676 16.6686 18.2111 16.668 18.7693V61.2211C16.6686 61.7793 16.8906 62.3144 17.2853 62.709C17.6799 63.1037 18.215 63.3257 18.7732 63.3263H61.225C61.7832 63.3257 62.3183 63.1037 62.7129 62.709C63.1076 62.3144 63.3296 61.7793 63.3302 61.2211V18.7693C63.3296 18.2111 63.1076 17.676 62.7129 17.2814C62.3183 16.8867 61.7832 16.6647 61.225 16.6641H18.7732Z" fill="#555555" stroke="#555555"/>
<path d="M53.2664 57.7887H26.7347C25.5341 57.7874 24.383 57.3098 23.5342 56.4607C22.6853 55.6116 22.208 54.4604 22.207 53.2598V26.7293C22.2077 25.5285 22.6848 24.377 23.5337 23.5276C24.3826 22.6783 25.5339 22.2005 26.7347 22.1992H53.2664C54.4668 22.2005 55.6177 22.6779 56.4665 23.5268C57.3153 24.3756 57.7928 25.5265 57.7941 26.7269V53.2598C57.7931 54.4604 57.3158 55.6116 56.4669 56.4607C55.6181 57.3098 54.467 57.7874 53.2664 57.7887ZM26.7347 24.6211C26.1764 24.6217 25.6412 24.8438 25.2464 25.2386C24.8516 25.6334 24.6295 26.1686 24.6289 26.7269V53.2598C24.6292 53.8183 24.8512 54.3538 25.246 54.7489C25.6408 55.1439 26.1762 55.3662 26.7347 55.3668H53.2664C53.8249 55.3662 54.3603 55.1439 54.7551 54.7489C55.1499 54.3538 55.3719 53.8183 55.3722 53.2598V26.7293C55.3722 26.1706 55.1504 25.6347 54.7556 25.2394C54.3607 24.8441 53.8251 24.6217 53.2664 24.6211H26.7347Z" fill="#425BB5" stroke="#425BB5"/>
<path d="M23.4165 39.9306C23.1771 39.9304 22.9432 39.8591 22.7443 39.726C22.5454 39.5928 22.3904 39.4037 22.299 39.1825C22.2075 38.9613 22.1836 38.718 22.2303 38.4832C22.2771 38.2485 22.3924 38.0329 22.5616 37.8636L37.8672 22.5567C38.0956 22.3361 38.4015 22.2141 38.719 22.2168C39.0365 22.2196 39.3402 22.347 39.5647 22.5715C39.7893 22.796 39.9166 23.0997 39.9194 23.4172C39.9221 23.7347 39.8001 24.0406 39.5795 24.269L24.2726 39.5764C24.1604 39.6891 24.0269 39.7783 23.88 39.8391C23.733 39.8999 23.5755 39.931 23.4165 39.9306ZM23.4165 52.6867C23.1771 52.6864 22.9432 52.6152 22.7443 52.482C22.5454 52.3488 22.3904 52.1597 22.299 51.9385C22.2075 51.7174 22.1836 51.474 22.2303 51.2393C22.2771 51.0045 22.3924 50.7889 22.5616 50.6196L50.6232 22.5567C50.8516 22.3361 51.1575 22.2141 51.475 22.2168C51.7925 22.2196 52.0962 22.347 52.3208 22.5715C52.5453 22.796 52.6726 23.0997 52.6754 23.4172C52.6781 23.7347 52.5561 24.0406 52.3355 24.269L24.2726 52.3319C24.1604 52.4446 24.027 52.534 23.88 52.5949C23.7331 52.6558 23.5756 52.687 23.4165 52.6867ZM31.0702 57.7889C30.8307 57.789 30.5966 57.7181 30.3974 57.585C30.1982 57.452 30.0429 57.2629 29.9512 57.0417C29.8595 56.8204 29.8355 56.5769 29.8822 56.342C29.9289 56.1071 30.0442 55.8913 30.2135 55.7219L55.7255 30.2098C55.8369 30.0927 55.9706 29.9991 56.1188 29.9345C56.2669 29.8698 56.4265 29.8355 56.5881 29.8335C56.7497 29.8315 56.9101 29.8619 57.0598 29.9229C57.2095 29.9839 57.3455 30.0742 57.4597 30.1886C57.5739 30.3029 57.6641 30.439 57.7249 30.5887C57.7857 30.7385 57.816 30.8989 57.8138 31.0605C57.8117 31.2221 57.7772 31.3817 57.7124 31.5298C57.6476 31.6778 57.5538 31.8115 57.4366 31.9227L31.9264 57.4341C31.8141 57.5468 31.6806 57.6361 31.5337 57.697C31.3868 57.7579 31.2293 57.7891 31.0702 57.7889ZM43.8256 57.7889C43.5862 57.7889 43.3521 57.7178 43.153 57.5848C42.9539 57.4517 42.7988 57.2626 42.7071 57.0414C42.6155 56.8201 42.5915 56.5767 42.6382 56.3418C42.6849 56.107 42.8002 55.8912 42.9695 55.7219L55.7255 42.9671C55.8363 42.8478 55.97 42.7521 56.1187 42.6857C56.2673 42.6193 56.4278 42.5835 56.5905 42.5806C56.7533 42.5776 56.915 42.6075 57.0659 42.6684C57.2169 42.7293 57.354 42.8201 57.4691 42.9352C57.5842 43.0503 57.6749 43.1875 57.7357 43.3384C57.7966 43.4894 57.8264 43.6511 57.8234 43.8139C57.8204 43.9766 57.7845 44.1371 57.7181 44.2857C57.6516 44.4343 57.5559 44.568 57.4366 44.6787L44.6824 57.4341C44.57 57.5468 44.4365 57.6362 44.2894 57.6971C44.1424 57.758 43.9848 57.7892 43.8256 57.7889Z" fill="#425BB5" stroke="#425BB5"/>
</svg>
