<svg width="80" height="80" viewBox="0 0 80 80" fill="none" xmlns="http://www.w3.org/2000/svg">
<path d="M35.5941 33.7459C41.3441 33.7459 47.2881 32.4809 50.8675 30.0875V31.2806C50.8675 31.721 51.0424 32.1433 51.3538 32.4546C51.6652 32.766 52.0875 32.9409 52.5278 32.9409C52.9682 32.9409 53.3905 32.766 53.7018 32.4546C54.0132 32.1433 54.1881 31.721 54.1881 31.2806V24.8766C54.1881 19.1266 44.6072 16 35.5941 16C26.5809 16 17 19.1122 17 24.8766V51.0319C17 56.4297 25.395 59.4916 33.8547 59.8869C34.0718 59.8963 34.2886 59.8629 34.4928 59.7885C34.697 59.7142 34.8845 59.6003 35.0447 59.4535C35.2049 59.3067 35.3346 59.1297 35.4263 58.9328C35.5181 58.7358 35.5702 58.5227 35.5797 58.3056C35.5891 58.0885 35.5557 57.8717 35.4814 57.6675C35.407 57.4634 35.2932 57.2758 35.1463 57.1156C34.9995 56.9555 34.8225 56.8258 34.6256 56.734C34.4286 56.6422 34.2155 56.5901 33.9984 56.5806C25.4741 56.2428 20.3422 53.2384 20.3422 51.0534V43.1688C23.5694 45.325 28.7228 46.5684 33.8978 46.7625C34.1149 46.771 34.3315 46.7366 34.5354 46.6614C34.7392 46.5862 34.9262 46.4716 35.0857 46.3241C35.2452 46.1766 35.3741 45.9991 35.465 45.8018C35.556 45.6045 35.6071 45.3912 35.6156 45.1741C35.6241 44.957 35.5898 44.7403 35.5145 44.5365C35.4393 44.3327 35.3247 44.1457 35.1772 43.9862C35.0297 43.8267 34.8522 43.6978 34.6549 43.6068C34.4576 43.5159 34.2443 43.4647 34.0272 43.4563C25.5028 43.1184 20.3709 40.1141 20.3709 37.9291V30.0228C23.8928 32.4881 29.8584 33.7459 35.5941 33.7459ZM35.5941 19.3206C45.06 19.3206 50.8675 22.555 50.8675 24.8766C50.8675 27.1981 45.0313 30.4181 35.5941 30.4181C26.1569 30.4181 20.3134 27.1838 20.3134 24.8622C20.3134 22.5406 26.1281 19.3206 35.5941 19.3206ZM50.4506 35.5644C42.2209 35.5644 37.9156 38.7341 37.9156 41.8606V58.665C37.9156 61.7916 42.2281 64.9613 50.4506 64.9613C58.6731 64.9613 62.9281 61.8419 63 58.7369V41.8606C63 38.7269 58.6875 35.5644 50.4506 35.5644ZM50.4506 38.8778C56.5384 38.8778 59.6794 40.9622 59.6794 41.8606C59.6794 42.7591 56.5312 44.8363 50.4506 44.8363C44.37 44.8363 41.2291 42.7519 41.2291 41.8606C41.2291 40.9694 44.37 38.8778 50.4506 38.8778ZM50.4506 61.6406C44.37 61.6406 41.2291 59.5563 41.2291 58.665V54.6544C43.335 55.7972 46.4256 56.5519 50.4506 56.5519C54.4756 56.5519 57.5734 55.8331 59.6794 54.6544V58.665C59.6866 59.5563 56.5312 61.6406 50.4506 61.6406ZM50.4506 53.2384C44.37 53.2384 41.2291 51.1541 41.2291 50.2556V46.2306C43.335 47.3734 46.4256 48.1353 50.4506 48.1353C54.4756 48.1353 57.5734 47.3878 59.6794 46.2306V50.2556C59.6866 51.1541 56.5312 53.2456 50.4506 53.2384Z" fill="#425BB5"/>
<path fill-rule="evenodd" clip-rule="evenodd" d="M50.8675 30.0875C47.2881 32.4809 41.3441 33.7459 35.5941 33.7459C29.8584 33.7459 23.8928 32.4881 20.3709 30.0228V37.9291C20.3709 40.1141 25.5028 43.1184 34.0272 43.4563C34.2443 43.4647 34.4576 43.5159 34.6549 43.6068C34.8522 43.6978 35.0297 43.8267 35.1772 43.9862C35.3247 44.1457 35.4393 44.3327 35.5145 44.5365C35.5898 44.7403 35.6241 44.957 35.6156 45.1741C35.6071 45.3912 35.556 45.6045 35.465 45.8018C35.3741 45.9991 35.2452 46.1766 35.0857 46.3241C34.9262 46.4716 34.7392 46.5862 34.5354 46.6614C34.3315 46.7366 34.1149 46.771 33.8978 46.7625C28.7228 46.5684 23.5694 45.325 20.3422 43.1688V51.0534C20.3422 53.2384 25.4741 56.2428 33.9984 56.5806C34.2155 56.5901 34.4286 56.6422 34.6256 56.734C34.8225 56.8258 34.9995 56.9555 35.1463 57.1156C35.2932 57.2758 35.407 57.4634 35.4814 57.6675C35.5557 57.8717 35.5891 58.0885 35.5797 58.3056C35.5702 58.5227 35.5181 58.7358 35.4263 58.9328C35.3346 59.1297 35.2049 59.3067 35.0447 59.4535C34.8845 59.6003 34.697 59.7142 34.4928 59.7885C34.2886 59.8629 34.0718 59.8963 33.8547 59.8869C25.395 59.4916 17 56.4297 17 51.0319V24.8766C17 19.1122 26.5809 16 35.5941 16C44.6072 16 54.1881 19.1266 54.1881 24.8766V31.2806C54.1881 31.721 54.0132 32.1433 53.7018 32.4546C53.3905 32.766 52.9682 32.9409 52.5278 32.9409C52.0875 32.9409 51.6652 32.766 51.3538 32.4546C51.0424 32.1433 50.8675 31.721 50.8675 31.2806V30.0875ZM50.8675 24.8766C50.8675 22.555 45.06 19.3206 35.5941 19.3206C26.1281 19.3206 20.3134 22.5406 20.3134 24.8622C20.3134 27.1838 26.1569 30.4181 35.5941 30.4181C45.0313 30.4181 50.8675 27.1981 50.8675 24.8766Z" fill="#555555"/>
</svg>
