<svg width="80" height="80" viewBox="0 0 80 80" fill="none" xmlns="http://www.w3.org/2000/svg">
<path d="M31.3418 36.4214L28.6284 40.9455C28.5831 40.9408 28.5289 40.9408 28.4839 40.9408C28.222 40.9408 27.9735 40.9817 27.739 41.0538L25.8741 39.189C25.9489 38.9478 25.987 38.6966 25.9871 38.444C25.9871 37.0669 24.8672 35.9473 23.49 35.9473C22.1129 35.9473 20.9936 37.0672 20.9936 38.444C20.9936 38.9229 21.129 39.3653 21.3594 39.7447L18.6413 44.2685C18.596 44.2641 18.5418 44.2641 18.4968 44.2641C17.1196 44.2641 16 45.3837 16 46.7609C16 48.138 17.1199 49.2576 18.4968 49.2576C19.8736 49.2576 20.9936 48.1377 20.9936 46.7609C20.9935 46.3021 20.8671 45.8521 20.628 45.4605L23.3458 40.9314C23.6464 40.9487 23.9476 40.9121 24.2353 40.8234L26.1001 42.6882C26.0253 42.9294 25.9872 43.1804 25.9871 43.4329C25.9871 44.8104 27.107 45.9297 28.4839 45.9297C29.8608 45.9297 30.9763 44.8101 30.9763 43.4329C30.9763 42.9543 30.8409 42.5119 30.6107 42.1329C30.6107 42.1329 33.4277 37.6132 33.4733 37.6132L31.3418 36.4214Z" fill="#425BB5"/>
<path d="M31.475 40.8384L34.1931 36.3093C34.4935 36.3266 34.7947 36.29 35.0823 36.2013L42.6512 43.7702C42.5765 44.0115 42.5384 44.2626 42.5382 44.5152C42.5382 45.8923 43.6581 47.012 45.0349 47.012C46.4124 47.012 47.5276 45.8921 47.5276 44.5152C47.5278 44.0563 47.4012 43.6063 47.1618 43.2149L49.8799 38.6904C49.9249 38.6952 49.9791 38.6952 50.0244 38.6952C51.4015 38.6952 52.5212 37.5752 52.5212 36.1984C52.5212 34.8215 51.4012 33.706 50.0244 33.706C48.6472 33.706 47.5276 34.8259 47.5276 36.2028C47.5276 36.6814 47.663 37.124 47.8932 37.5031L45.1795 42.0275C45.1344 42.0228 45.08 42.0228 45.0349 42.0228C44.773 42.0228 44.5249 42.0634 44.2903 42.1356L36.7217 34.5669C36.7963 34.3256 36.8343 34.0745 36.8344 33.822C36.8344 32.4448 35.7145 31.3252 34.3376 31.3252C32.9607 31.3252 31.8408 32.4451 31.8408 33.822C31.8409 34.2809 31.9675 34.7309 32.2067 35.1226C32.2067 35.1226 29.3891 39.6417 29.3438 39.6417L31.475 40.8384Z" fill="#425BB5"/>
<path d="M55.4185 51.3556L63.4422 59.406C64.1824 60.1074 64.1824 61.2991 63.4678 62.0137C62.7538 62.7557 61.5623 62.7814 60.8462 62.0396L52.7696 53.9762C51.2076 55.2739 49.4599 56.3471 47.5529 57.1276C45.0829 58.1622 42.4314 58.6938 39.7535 58.6914C33.8078 58.6914 28.1409 56.0551 24.274 51.4865C22.3273 49.2102 25.2809 47.0784 27.5051 49.5281C30.6574 52.9841 35.0802 54.9431 39.7535 54.9431C42.0178 54.9431 44.1629 54.4934 46.1087 53.6857C48.1192 52.8609 49.9465 51.6458 51.4849 50.1108L51.5119 50.0838C53.0348 48.5477 54.2798 46.7217 55.1269 44.6817C55.9213 42.7618 56.3722 40.6038 56.3722 38.3389C56.3715 36.1922 55.9574 34.0657 55.1525 32.0756L55.1266 31.9962C54.3088 30.014 53.1124 28.2103 51.6044 26.6859L51.5116 26.5941C49.962 25.0712 48.1345 23.8271 46.1087 23.0045C44.1767 22.1712 42.0184 21.735 39.7535 21.735C32.9878 21.735 27.1619 25.8656 24.5919 31.6512C24.274 32.3405 23.6385 32.7508 22.883 32.7508H22.8709C22.2087 32.7508 21.6659 32.4324 21.3077 31.904C20.9507 31.3601 20.9104 30.7247 21.1759 30.1148C24.3802 22.9262 31.6899 18 39.7533 18C42.4934 18 45.1297 18.5563 47.5529 19.562C50.0424 20.5824 52.2925 22.1056 54.1465 23.9584L54.2512 24.0523C56.0796 25.9183 57.5362 28.1169 58.5555 30.554L58.5949 30.6587C59.5747 33.0434 60.1051 35.6105 60.1051 38.3386C60.1066 41.0021 59.5799 43.6394 58.5555 46.098C57.7787 47.9975 56.7213 49.7698 55.4185 51.3556Z" fill="#555555"/>
</svg>
