<?xml version="1.0" encoding="UTF-8"?><svg version="1.1" width="163px" height="149px" viewBox="0 0 163.0 149.0" xmlns="http://www.w3.org/2000/svg" xmlns:xlink="http://www.w3.org/1999/xlink"><defs><clipPath id="10710048554550991089545"><path d="M150.4,49.2 C154.533333,49.2 157.566667,50.4666667 159.5,53 C161.433333,55.5333333 162.4,58.3333333 162.4,61.4 L162.4,148.8 L124.8,148.8 L124.8,62.2 C124.8,58.0666667 126.1,54.8666667 128.7,52.6 C131.3,50.3333333 134.133333,49.2 137.2,49.2 L150.4,49.2 Z M87.8,0 C91.4,0 94.2666667,1.1 96.4,3.3 C98.5333333,5.5 99.6,8.13333333 99.6,11.2 L99.6,148.8 L62.2,148.8 L62.2,11.6 C62.2,9.6 62.6,7.86666667 63.4,6.4 C64.2,4.93333333 65.2,3.73333333 66.4,2.8 C67.6,1.86666667 68.9333333,1.16666667 70.4,0.7 C71.8666667,0.233333333 73.2,0 74.4,0 L87.8,0 Z M25,86.6 C26.2,86.6 27.5,86.9333333 28.9,87.6 C30.3,88.2666667 31.6333333,89.2 32.9,90.4 C34.1666667,91.6 35.2333333,92.9666667 36.1,94.5 C36.9666667,96.0333333 37.4,97.6666667 37.4,99.4 L37.4,148.8 L-3.55271368e-15,148.8 L-3.55271368e-15,99.8 C-3.55271368e-15,98.3333333 0.3,96.8 0.9,95.2 C1.5,93.6 2.33333333,92.1666667 3.4,90.9 C4.46666667,89.6333333 5.73333333,88.6 7.2,87.8 C8.66666667,87 10.2666667,86.6 12,86.6 L25,86.6 Z"></path></clipPath></defs><g transform="translate(162.99999999999997 149.0) rotate(180.0)"><g clip-path="url(#10710048554550991089545)"><polygon points="-3.55271368e-15,0 162.4,0 162.4,148.8 -3.55271368e-15,148.8 -3.55271368e-15,0" stroke="none" fill="#000000"></polygon></g></g></svg>
