<?xml version="1.0" standalone="no"?><!DOCTYPE svg PUBLIC "-//W3C//DTD SVG 1.1//EN" "http://www.w3.org/Graphics/SVG/1.1/DTD/svg11.dtd"><svg class="icon" width="200px" height="200.00px" viewBox="0 0 1024 1024" version="1.1" xmlns="http://www.w3.org/2000/svg"><path fill="#000000" d="M155.826 810.862a57.318 57.318 0 0 0 35.381 52.951 57.314 57.314 0 0 0 21.933 4.362h597.55a57.313 57.313 0 0 0 57.314-57.313V408.651H155.826v402.211zM639.09 512.087h50.869a25.437 25.437 0 0 1 25.302 25.434 25.437 25.437 0 0 1-25.302 25.435H639.09a25.437 25.437 0 0 1-25.302-25.435 25.436 25.436 0 0 1 25.302-25.434z m-152.61 0h50.87a25.433 25.433 0 0 1 25.302 25.434 25.435 25.435 0 0 1-25.302 25.435h-50.87a25.437 25.437 0 0 1-25.302-25.435 25.436 25.436 0 0 1 25.302-25.434z m0 154.305h50.87a25.433 25.433 0 0 1 25.302 25.435 25.433 25.433 0 0 1-25.302 25.434h-50.87a25.437 25.437 0 0 1-25.302-25.434 25.437 25.437 0 0 1 25.302-25.435zM333.871 512.087h50.87a25.437 25.437 0 0 1 25.303 25.434 25.437 25.437 0 0 1-25.303 25.435h-50.87a25.435 25.435 0 0 1 0-50.869z m0 154.305h50.87a25.437 25.437 0 0 1 25.303 25.435 25.437 25.437 0 0 1-25.303 25.434h-50.87a25.435 25.435 0 0 1 0-50.869z m534.133-402.211a57.313 57.313 0 0 0-57.313-57.314h-95.297v-22.382a28.656 28.656 0 1 0-57.313 0v22.382H365.749v-22.382a28.657 28.657 0 0 0-57.314 0v22.382H213.14a57.315 57.315 0 0 0-57.314 57.314v89.191h712.178v-89.191z"  opacity=".4" /></svg>