<?xml version="1.0" standalone="no"?><!DOCTYPE svg PUBLIC "-//W3C//DTD SVG 1.1//EN" "http://www.w3.org/Graphics/SVG/1.1/DTD/svg11.dtd"><svg class="icon" width="200px" height="200.00px" viewBox="0 0 1024 1024" version="1.1" xmlns="http://www.w3.org/2000/svg"><path fill="#000000" d="M596.465 341.325H416.951c-55.565 0-98.149-119.565-98.149-119.565 0-35.886 9.426-72.599 65.405-64.909 27.322 3.753 46.646 14.006 64.578 23.52 18.809 9.979 36.086 19.146 59.453 19.146 20.06 0 34.141-9.182 49.25-19.034 18.272-11.914 38.047-24.809 71.721-23.632 61.932 2.149 65.405 29.023 65.405 64.909 0 0-42.584 119.565-98.149 119.565z"  opacity=".4" /><path fill="#000000" d="M417.117 378.452H606.47c199.887 0 256.08 371.527 261.294 405.999 0.254 1.677 0.387 2.557 0.41 2.557 0 53.746-43.907 107.575-98.149 107.575h-516.05c-54.242 0-98.149-53.746-98.149-107.575 0 0 51.679-408.556 261.291-408.556z m239.65 333.681c-0.248-12.486-10.667-22.408-23.152-22.077l-0.083-0.414h-92.94v-28.609h94.015c12.486-0.248 22.408-10.667 22.077-23.153-0.248-12.485-10.666-22.408-23.152-22.077h-59.369l64.578-114.025v-0.083c6.367-10.832 2.646-24.806-8.186-31.09-10.915-6.367-24.889-2.729-31.421 8.103l-77.891 136.599h-3.886l-77.891-136.599c-6.533-10.749-20.507-14.387-31.421-8.103-10.832 6.367-14.471 20.341-8.186 31.173l64.992 114.438H400.52c-12.486 0.248-22.408 10.667-22.077 23.153 0.248 12.485 10.666 22.408 23.152 22.077h93.354v28.61H400.52c-12.486 0.248-22.408 10.666-22.077 23.152 0.248 12.486 10.666 22.408 23.152 22.078h93.436v59.782c0.248 12.155 10.088 21.912 22.243 22.243 12.651 0.331 23.07-9.674 23.4-22.243v-59.782h94.016c12.485-0.249 22.408-10.667 22.077-23.153z"  opacity=".4" /></svg>