<?xml version="1.0" standalone="no"?><!DOCTYPE svg PUBLIC "-//W3C//DTD SVG 1.1//EN" "http://www.w3.org/Graphics/SVG/1.1/DTD/svg11.dtd"><svg class="icon" width="200px" height="200.00px" viewBox="0 0 1024 1024" version="1.1" xmlns="http://www.w3.org/2000/svg"><path d="M417.034 341.331h179.431c55.565 0 98.149-119.565 98.149-119.565 0-35.886-3.473-62.76-65.405-64.91-61.519-2.149-76.651 42.667-120.971 42.667-45.643 0-68.051-34.977-124.031-42.667-55.979-7.689-65.405 29.024-65.405 64.91 0 0 42.584 119.565 98.149 119.565h0.083z m189.436 37.126H417.117c-209.612 0-261.291 408.556-261.291 408.556 0 53.83 43.907 107.576 98.15 107.576h516.049c54.242 0 98.149-53.829 98.149-107.576-0.496 0-52.093-408.556-261.704-408.556z" fill="#3971E2" /><path d="M633.615 690.066c12.486-0.331 22.905 9.591 23.153 22.077 0.33 12.486-9.592 22.904-22.078 23.152h-94.015v59.783c-0.33 12.568-10.749 22.573-23.4 22.243-12.155-0.331-21.995-10.088-22.243-22.243v-59.783h-93.436c-12.486 0.331-22.904-9.591-23.152-22.077-0.331-12.486 9.591-22.904 22.077-23.152h94.428v-28.61h-93.353c-12.486 0.331-22.904-9.592-23.152-22.078-0.331-12.485 9.591-22.904 22.077-23.152h64.33l-64.992-114.439c-6.284-10.832-2.646-24.806 8.186-31.172 10.915-6.285 24.889-2.646 31.422 8.103l77.891 136.599h3.886l77.891-136.599c6.532-10.832 20.506-14.47 31.421-8.103 10.832 6.284 14.553 20.258 8.186 31.09v0.082l-64.578 114.026h59.369c12.485-0.331 22.904 9.591 23.152 22.077 0.331 12.486-9.592 22.904-22.077 23.152h-94.015v28.61h92.94l0.082 0.414z" fill="#30C5A9" /></svg>