<?xml version="1.0" standalone="no"?><!DOCTYPE svg PUBLIC "-//W3C//DTD SVG 1.1//EN" "http://www.w3.org/Graphics/SVG/1.1/DTD/svg11.dtd"><svg class="icon" width="200px" height="200.00px" viewBox="0 0 1024 1024" version="1.1" xmlns="http://www.w3.org/2000/svg"><path fill="#000000" d="M617.298 646.053s-19.08 23.321-47.709 0C540.96 622.733 442.387 513 442.387 513s-23.321-28.103-49.83 0c-26.508 28.103-108.121 148.945-108.121 148.945s-25.441 43.469-62.55 0c-31.936-37.448-59.123-21.404-66.06-16.248v164.057c0 28.103 22.778 50.881 50.881 50.881h610.569c28.103 0 50.881-22.778 50.881-50.881V361.477c-1.933 0.356-3.952 1.137-6.004 2.188L617.298 646.053z m-372.787-61.48c32.784 0 59.361-26.577 59.361-59.361 0-8.413-1.798-16.384-4.952-23.626l104.068-128.525c5.868 1.951 12.025 3.257 18.554 3.257 8.905 0 17.283-2.103 24.847-5.614l91.026 91.025c-1.934 5.852-3.223 11.991-3.223 18.47 0 32.784 26.56 59.361 59.361 59.361 32.785 0 59.361-26.577 59.361-59.361 0-7.31-1.509-14.23-3.918-20.691l141.822-165.77c5.699 1.815 11.669 3.07 17.995 3.07 32.784 0 59.361-26.577 59.361-59.361 0-32.784-26.577-59.361-59.361-59.361-32.801 0-59.361 26.577-59.361 59.361 0 7.615 1.56 14.823 4.172 21.505L612.277 424.145c-5.919-1.984-12.143-3.307-18.724-3.307-7.428 0-14.484 1.527-21.03 4.02l-93.553-93.553c1.153-4.613 1.95-9.379 1.95-14.349 0-32.784-26.577-59.36-59.361-59.36-32.784 0-59.361 26.576-59.361 59.36 0 7.344 1.51 14.281 3.935 20.777L260.42 468.276c-5.088-1.425-10.346-2.425-15.909-2.425-32.784 0-59.361 26.577-59.361 59.361 0 32.784 26.577 59.361 59.361 59.361z"  opacity=".4" /></svg>