<?xml version="1.0" standalone="no"?><!DOCTYPE svg PUBLIC "-//W3C//DTD SVG 1.1//EN" "http://www.w3.org/Graphics/SVG/1.1/DTD/svg11.dtd"><svg class="icon" width="200px" height="200.00px" viewBox="0 0 1024 1024" version="1.1" xmlns="http://www.w3.org/2000/svg"><path d="M617.298 646.055s-19.08 23.321-47.709 0c-28.629-23.32-127.202-133.053-127.202-133.053s-23.321-28.103-49.829 0c-26.509 28.103-108.122 148.945-108.122 148.945s-25.44 43.469-62.55 0c-31.936-37.448-59.123-21.404-66.06-16.248v164.057c0 28.103 22.778 50.881 50.881 50.881h610.569c28.104 0 50.881-22.778 50.881-50.881V361.479c-1.933 0.356-3.951 1.137-6.004 2.188L617.298 646.055z m-372.787-61.48c32.785 0 59.361-26.577 59.361-59.361 0-8.413-1.797-16.384-4.952-23.626l104.068-128.525c5.868 1.95 12.025 3.257 18.554 3.257 8.905 0 17.283-2.103 24.847-5.614l91.026 91.025c-1.934 5.852-3.222 11.991-3.222 18.47 0 32.784 26.559 59.361 59.361 59.361 32.784 0 59.36-26.577 59.36-59.361 0-7.31-1.509-14.23-3.917-20.691l141.821-165.77c5.699 1.815 11.669 3.07 17.995 3.07 32.784 0 59.361-26.577 59.361-59.361 0-32.784-26.577-59.361-59.361-59.361-32.801 0-59.361 26.577-59.361 59.361 0 7.615 1.56 14.823 4.172 21.505L612.278 424.147c-5.92-1.984-12.144-3.307-18.725-3.307-7.428 0-14.484 1.526-21.03 4.02l-93.553-93.553c1.153-4.613 1.95-9.379 1.95-14.349 0-32.784-26.576-59.361-59.361-59.361-32.784 0-59.361 26.577-59.361 59.361 0 7.344 1.51 14.281 3.935 20.777L260.42 468.278c-5.088-1.425-10.346-2.425-15.909-2.425-32.784 0-59.361 26.576-59.361 59.361 0 32.784 26.577 59.361 59.361 59.361z" fill="#3971E2" /><path d="M303.873 525.214c0 32.784-26.577 59.361-59.361 59.361-32.785 0-59.362-26.577-59.362-59.361 0-32.785 26.577-59.361 59.361-59.361 5.563 0 10.821 1 15.909 2.425l105.713-130.543c-2.425-6.496-3.934-13.433-3.934-20.777 0-32.784 26.577-59.361 59.361-59.361 32.784 0 59.361 26.577 59.361 59.361 0 4.97-0.797 9.736-1.951 14.349l93.553 93.553c6.547-2.494 13.602-4.02 21.031-4.02 6.58 0 12.805 1.323 18.724 3.307l141.347-165.193c-2.612-6.682-4.173-13.89-4.173-21.505 0-32.784 26.56-59.361 59.361-59.361 32.785 0 59.361 26.577 59.361 59.361 0 32.784-26.576 59.361-59.361 59.361-6.326 0-12.296-1.255-17.994-3.07L648.997 459.51c2.408 6.461 3.918 13.381 3.918 20.691 0 32.784-26.577 59.361-59.361 59.361-32.801 0-59.361-26.577-59.361-59.361 0-6.479 1.289-12.618 3.222-18.47l-91.025-91.025c-7.565 3.511-15.943 5.614-24.847 5.614-6.53 0-12.686-1.307-18.555-3.257L298.92 501.588c3.155 7.242 4.953 15.213 4.953 23.626z" fill="#30C5A9" /></svg>