<?xml version="1.0" standalone="no"?><!DOCTYPE svg PUBLIC "-//W3C//DTD SVG 1.1//EN" "http://www.w3.org/Graphics/SVG/1.1/DTD/svg11.dtd"><svg t="1668137886202" class="icon" viewBox="0 0 1024 1024" version="1.1" xmlns="http://www.w3.org/2000/svg" p-id="7613" xmlns:xlink="http://www.w3.org/1999/xlink" width="200" height="200"><path d="M404.15 338.603c0-65.963-55.562-119.483-124.185-119.483-68.529 0.048-124.139 53.52-124.139 119.483 0 32.104 13.202 61.263 34.62 82.775-5.84 23.556-8.88 48.06-8.88 73.324 0 113.596 62.165 213.277 155.529 269.127l24.838-98.115c-50.72-40.935-83.013-102.294-83.013-170.963 0-12.489 1.045-24.742 3.134-36.615 67.673-1.14 122.096-54.187 122.096-119.533z m106.52-66.722c42.931 0 83.059 11.207 117.585 30.82-5.461 13.44-8.358 28.019-8.358 43.263 0 66.011 55.564 119.485 124.091 119.485 68.528 0 124.186-53.522 124.186-119.485s-55.658-119.485-124.186-119.485c-16.051 0-31.438 2.945-45.448 8.264-53.331-35.713-117.965-56.655-187.87-56.655-47.299 0-92.273 9.641-132.924 26.927l56.751 79.165c23.839-7.978 49.483-12.299 76.173-12.299z m231.371 232.842c-3.704 81.207-52.667 151.16-123.188 187.11-20.516-38.702-62.355-65.202-110.604-65.202-68.623 0-124.186 53.521-124.186 119.484s55.563 119.532 124.186 119.532c51.431 0 95.692-30.157 114.403-73.087C749.259 748.442 839.68 631.712 839.68 494.751c0-7.029-0.284-13.962-0.76-20.848l-96.879 30.82zM404.15 338.603c0-65.963-55.562-119.483-124.185-119.483-68.529 0.048-124.139 53.52-124.139 119.483 0 32.104 13.202 61.263 34.62 82.775-5.84 23.556-8.88 48.06-8.88 73.324 0 113.596 62.165 213.277 155.529 269.127l24.838-98.115c-50.72-40.935-83.013-102.294-83.013-170.963 0-12.489 1.045-24.742 3.134-36.615 67.673-1.14 122.096-54.187 122.096-119.533z m106.52-66.722c42.931 0 83.059 11.207 117.585 30.82-5.461 13.44-8.358 28.019-8.358 43.263 0 66.011 55.564 119.485 124.091 119.485 68.528 0 124.186-53.522 124.186-119.485s-55.658-119.485-124.186-119.485c-16.051 0-31.438 2.945-45.448 8.264-53.331-35.713-117.965-56.655-187.87-56.655-47.299 0-92.273 9.641-132.924 26.927l56.751 79.165c23.839-7.978 49.483-12.299 76.173-12.299z m231.371 232.842c-3.704 81.207-52.667 151.16-123.188 187.11-20.516-38.702-62.355-65.202-110.604-65.202-68.623 0-124.186 53.521-124.186 119.484s55.563 119.532 124.186 119.532c51.431 0 95.692-30.157 114.403-73.087C749.259 748.442 839.68 631.712 839.68 494.751c0-7.029-0.284-13.962-0.76-20.848l-96.879 30.82zM404.15 338.603c0-65.963-55.562-119.483-124.185-119.483-68.529 0.048-124.139 53.52-124.139 119.483 0 32.104 13.202 61.263 34.62 82.775-5.84 23.556-8.88 48.06-8.88 73.324 0 113.596 62.165 213.277 155.529 269.127l24.838-98.115c-50.72-40.935-83.013-102.294-83.013-170.963 0-12.489 1.045-24.742 3.134-36.615 67.673-1.14 122.096-54.187 122.096-119.533z m106.52-66.722c42.931 0 83.059 11.207 117.585 30.82-5.461 13.44-8.358 28.019-8.358 43.263 0 66.011 55.564 119.485 124.091 119.485 68.528 0 124.186-53.522 124.186-119.485s-55.658-119.485-124.186-119.485c-16.051 0-31.438 2.945-45.448 8.264-53.331-35.713-117.965-56.655-187.87-56.655-47.299 0-92.273 9.641-132.924 26.927l56.751 79.165c23.839-7.978 49.483-12.299 76.173-12.299z m231.371 232.842c-3.704 81.207-52.667 151.16-123.188 187.11-20.516-38.702-62.355-65.202-110.604-65.202-68.623 0-124.186 53.521-124.186 119.484s55.563 119.532 124.186 119.532c51.431 0 95.692-30.157 114.403-73.087C749.259 748.442 839.68 631.712 839.68 494.751c0-7.029-0.284-13.962-0.76-20.848l-96.879 30.82z" fill="#3971E2" p-id="7614"></path></svg>