<?xml version="1.0" encoding="utf-8"?>
<!-- Generator: Adobe Illustrator 26.0.0, SVG Export Plug-In . SVG Version: 6.00 Build 0)  -->
<svg version="1.1" id="图层_1" xmlns="http://www.w3.org/2000/svg" xmlns:xlink="http://www.w3.org/1999/xlink" x="0px" y="0px"
	 viewBox="0 0 200 200" style="enable-background:new 0 0 200 200;" xml:space="preserve">
<style type="text/css">
	.st0{fill:#425BB5;}
	.st1{fill:#30C5A9;}
</style>
<path class="st0" d="M174,141.2v18.9c0,7.7-6.2,13.9-13.9,13.9h-13.9c-7.7,0-13.9-6.2-13.9-13.9v-18.9c0-3.8,1.5-7.3,4.1-9.8
	c2.5-2.5,6-4.1,9.8-4.1c1.3,0,2.3-1,2.3-2.3v-11.1c0-2.6-2.1-4.6-4.6-4.6h-37c-1.3,0-2.3,1-2.3,2.3v13.6c0,1.2,1,2.2,2.2,2.2h0.1
	c7.7,0,13.9,6.2,13.9,13.9v18.9c0,7.7-6.2,13.9-13.9,13.9H93.1c-7.7,0-13.9-6.2-13.9-13.9v-18.9c0-7.7,6.2-13.9,13.9-13.9h0.1
	c1.2,0,2.2-1,2.2-2.2v-13.6c0-1.3-1-2.3-2.3-2.3h-37c-2.6,0-4.6,2.1-4.6,4.6V125c0,0.6,0.3,1.2,0.7,1.6c0.4,0.4,1,0.7,1.6,0.7
	c7.7,0,13.9,6.2,13.9,13.9v18.9c0,7.7-6.2,13.9-13.9,13.9H39.9c-7.7,0-13.9-6.2-13.9-13.9v-18.9c0-3.8,1.5-7.3,4.1-9.8
	c2.5-2.5,6-4.1,9.8-4.1c1.3,0,2.3-1,2.3-2.3v-11.1c0-7.7,6.2-13.9,13.9-13.9h37c1.3,0,2.3-1,2.3-2.3V83.8c0-1.3-1-2.3-2.3-2.3h-6.9
	c-7.7,0-13.9-6.2-13.9-13.9V39.9c0-7.7,6.2-13.9,13.9-13.9h27.8c7.7,0,13.9,6.2,13.9,13.9v27.8c0,7.7-6.2,13.9-13.9,13.9h-6.9
	c-1.3,0-2.3,1-2.3,2.3v13.9c0,1.3,1,2.3,2.3,2.3h37c7.7,0,13.9,6.2,13.9,13.9V125c0,1.3,1,2.3,2.3,2.3
	C167.8,127.3,174,133.5,174,141.2z"/>
<path class="st1" d="M86.1,26h27.8c7.7,0,13.9,6.2,13.9,13.9v27.8c0,7.7-6.2,13.9-13.9,13.9H86.1c-7.7,0-13.9-6.2-13.9-13.9V39.9
	C72.2,32.2,78.5,26,86.1,26z"/>
</svg>
