<?xml version="1.0" standalone="no"?><!DOCTYPE svg PUBLIC "-//W3C//DTD SVG 1.1//EN" "http://www.w3.org/Graphics/SVG/1.1/DTD/svg11.dtd"><svg class="icon" width="200px" height="200.00px" viewBox="0 0 1024 1024" version="1.1" xmlns="http://www.w3.org/2000/svg"><path d="M224.742 775.109h550.44a53.866 53.866 0 0 0 53.2-45.426l50.3-317.441a50.237 50.237 0 0 0-86.946-41.493l-60.283 66.917a53.867 53.867 0 0 1-71.533 7.616 53.865 53.865 0 0 1-16.787-19.852L536.769 209.82a53.866 53.866 0 0 0-97.791 2.549l-88.05 204.829a53.868 53.868 0 0 1-67.893 29.353 53.859 53.859 0 0 1-22.177-15.205l-53.29-61.046a48.557 48.557 0 0 0-79.351 8.957 48.56 48.56 0 0 0-5.234 30.265l48.505 319.802a53.86 53.86 0 0 0 53.254 45.785z" fill="#3971E2" /><path d="M293.029 829.436h445.782c18.571 0 27.856 9.285 27.856 27.856v0.009c0 18.572-9.285 27.857-27.856 27.857H293.029c-18.572 0-27.857-9.285-27.857-27.857v-0.009c0-18.571 9.285-27.856 27.857-27.856z" fill="#30C5A9" /></svg>