<?xml version="1.0" standalone="no"?><!DOCTYPE svg PUBLIC "-//W3C//DTD SVG 1.1//EN" "http://www.w3.org/Graphics/SVG/1.1/DTD/svg11.dtd"><svg class="icon" width="200px" height="200.00px" viewBox="0 0 1024 1024" version="1.1" xmlns="http://www.w3.org/2000/svg"><path fill="#000000" d="M224.742 775.107h550.44a53.865 53.865 0 0 0 53.2-45.426l50.301-317.441a50.232 50.232 0 0 0-5.152-31.253 50.232 50.232 0 0 0-81.794-10.24l-60.284 66.917a53.863 53.863 0 0 1-88.319-12.236L536.77 209.818a53.859 53.859 0 0 0-49.712-30.018 53.864 53.864 0 0 0-48.079 32.567l-88.051 204.829a53.867 53.867 0 0 1-41.128 31.942 53.854 53.854 0 0 1-48.942-17.794l-53.29-61.046a48.554 48.554 0 0 0-57.003-12.113 48.563 48.563 0 0 0-27.582 51.335l48.505 319.802a53.867 53.867 0 0 0 53.254 45.785zM293.03 829.43h445.782c18.571 0 27.857 9.285 27.857 27.857v0.009c0 18.571-9.286 27.856-27.857 27.856H293.03c-18.571 0-27.857-9.285-27.857-27.856v-0.009c0-18.572 9.286-27.857 27.857-27.857z"  opacity=".4" /></svg>