<?xml version="1.0" standalone="no"?><!DOCTYPE svg PUBLIC "-//W3C//DTD SVG 1.1//EN" "http://www.w3.org/Graphics/SVG/1.1/DTD/svg11.dtd"><svg t="1668136581364" class="icon" viewBox="0 0 1024 1024" version="1.1" xmlns="http://www.w3.org/2000/svg" p-id="6409" xmlns:xlink="http://www.w3.org/1999/xlink" width="200" height="200"><path d="M816.327 608.631L512.106 815.456 208.027 608.631l-45.725 31.001a14.156 14.156 0 0 0 0 23.783l341.876 232.307a14.16 14.16 0 0 0 15.855 0l341.878-232.306a14.157 14.157 0 0 0 0-23.499l-45.584-31.286z" fill="#3971E2" p-id="6410"></path><path d="M816.329 461.979L512.108 668.803 208.029 461.979l-45.725 31.568a14.16 14.16 0 0 0-4.598 18.407 14.16 14.16 0 0 0 4.598 5.093L504.18 749.07a14.16 14.16 0 0 0 15.855 0l341.878-232.589a14.16 14.16 0 0 0 4.598-18.407 14.16 14.16 0 0 0-4.598-5.093l-45.583-31.002h-0.001z" fill="#30C5A9" p-id="6411"></path><path d="M861.939 369.821l-341.878 232.59a14.152 14.152 0 0 1-15.855 0L162.33 369.821a14.158 14.158 0 0 1 0-23.358l341.876-232.73a14.152 14.152 0 0 1 15.855 0l341.877 232.73a14.16 14.16 0 0 1 6.157 11.68 14.153 14.153 0 0 1-6.157 11.679l0.001-0.001z" fill="#3971E2" p-id="6412"></path></svg>