<?xml version="1.0" standalone="no"?><!DOCTYPE svg PUBLIC "-//W3C//DTD SVG 1.1//EN" "http://www.w3.org/Graphics/SVG/1.1/DTD/svg11.dtd"><svg class="icon" width="200px" height="200.00px" viewBox="0 0 1024 1024" version="1.1" xmlns="http://www.w3.org/2000/svg"><path fill="#000000" d="M816.327 608.633L512.106 815.458 208.027 608.633l-45.725 31.001a14.156 14.156 0 0 0 0 23.783l341.876 232.307a14.16 14.16 0 0 0 15.855 0l341.878-232.306a14.157 14.157 0 0 0 0-23.499l-45.584-31.286z"  opacity=".4" /><path fill="#000000" d="M816.329 461.977L512.108 668.801 208.03 461.977l-45.726 31.568a14.16 14.16 0 0 0-4.598 18.407 14.16 14.16 0 0 0 4.598 5.093l341.877 232.023a14.159 14.159 0 0 0 15.855 0l341.877-232.589a14.16 14.16 0 0 0 4.598-18.407 14.16 14.16 0 0 0-4.598-5.093l-45.583-31.002h-0.001z"  opacity=".4" /><path fill="#000000" d="M861.939 369.821l-341.878 232.59a14.152 14.152 0 0 1-15.855 0L162.33 369.821a14.158 14.158 0 0 1 0-23.358l341.876-232.73a14.152 14.152 0 0 1 15.855 0l341.877 232.73a14.16 14.16 0 0 1 6.157 11.68 14.153 14.153 0 0 1-6.157 11.679l0.001-0.001z"  opacity=".4" /></svg>